<svg width="55" height="20" viewBox="0 0 55 20" fill="none" xmlns="http://www.w3.org/2000/svg">
<path fill-rule="evenodd" clip-rule="evenodd" d="M12.8566 3.17411C15.0294 5.39541 15.6167 6.06551 15.5077 6.19873C14.9954 6.8246 13.7238 8.12603 13.6248 8.12603C13.5589 8.12603 12.7163 7.32193 11.7522 6.33897L9.99957 4.55203L8.2469 6.33897C7.28288 7.32193 6.43908 8.12603 6.37159 8.12603C6.2068 8.12603 4.39631 6.28173 4.39631 6.11391C4.39631 5.98291 9.87286 0.320557 9.99957 0.320557C10.0357 0.320557 11.3214 1.60469 12.8566 3.17411ZM29.9621 4.86659C31.1426 5.39594 31.7673 6.47101 31.5814 7.65289C31.4786 8.30555 31.2394 8.7303 30.7189 9.1838L30.326 9.5262L30.828 9.78794C31.4411 10.1076 31.7063 10.3961 31.9621 11.0211C32.4185 12.137 32.0597 13.5441 31.1465 14.2199C30.2957 14.8494 29.6138 14.9558 26.4273 14.9558H23.562L23.5286 9.88252C23.5103 7.09232 23.5255 4.72909 23.5623 4.63087C23.6171 4.48478 24.1413 4.46279 26.4609 4.50936C29.0721 4.56192 29.3448 4.58963 29.9621 4.86659ZM38.7829 7.64703L41.1359 10.8106L41.1995 7.67955L41.2632 4.54852H42.3457H43.4281V9.75217V14.9558L42.5197 14.9937L41.6114 15.0317L39.1451 11.734L36.6787 8.43643L36.6151 11.6961L36.5514 14.9558L35.5008 14.9935L34.4502 15.0314V9.75737V4.48347H35.44H36.43L38.7829 7.64703ZM52.7229 4.85697C53.7482 5.32464 54.154 5.80559 54.3289 6.76007C54.4861 7.61906 54.2362 8.46973 53.6579 9.04304L53.1535 9.54311L53.6592 9.80655C55.4423 10.7359 55.3745 13.5208 53.5463 14.4517C52.6876 14.8888 51.6042 15.0188 48.8085 15.0198L46.2934 15.0209V9.73565V4.4503L49.1906 4.50871C51.8404 4.56218 52.1419 4.59197 52.7229 4.85697ZM25.6632 7.6819V8.79886L27.1188 8.75515C28.3575 8.71794 28.628 8.67072 28.9335 8.43825C29.5341 7.98124 29.4908 7.10026 28.8514 6.76241C28.5833 6.62074 28.0796 6.56493 27.0704 6.56493H25.6632V7.6819ZM48.4583 7.67071V8.77648H49.7359C51.516 8.77648 52.1591 8.45789 52.1473 7.58173C52.137 6.81276 51.5617 6.56493 49.7872 6.56493H48.4583V7.67071ZM3.85789 10.8227L2.80995 11.8988L1.75654 10.8283L0.703125 9.75776L1.75106 8.68165L2.799 7.60553L3.85241 8.67605L4.90582 9.74657L3.85789 10.8227ZM11.1737 8.8306C12.1674 9.86457 12.2085 9.63027 10.7788 11.0783L9.96621 11.9014L8.96411 10.8484C8.41296 10.2693 7.96202 9.7657 7.96202 9.7294C7.96202 9.69298 8.40239 9.20201 8.94055 8.63833C10.0573 7.46868 9.84764 7.45059 11.1737 8.8306ZM18.2481 10.8227L17.2001 11.8988L16.1467 10.8283L15.0933 9.75776L16.1413 8.68165L17.1892 7.60553L18.2426 8.67605L19.296 9.74657L18.2481 10.8227ZM25.6632 11.8336V12.9394H27.3251C28.576 12.9394 29.0811 12.8896 29.3681 12.738C30.0659 12.3695 30.1402 11.4877 29.5159 10.986C29.2305 10.7567 28.997 10.7279 27.4289 10.7279H25.6632V11.8336ZM48.4583 11.824V12.9394L50.1457 12.9389C51.6031 12.9385 51.8894 12.9034 52.2469 12.6807C52.792 12.3411 52.8634 11.547 52.3928 11.0531C52.1717 10.821 51.9461 10.7883 50.3017 10.7507L48.4583 10.7086V11.824ZM8.2469 13.1654L9.99957 14.9523L11.7522 13.1654C12.7163 12.1824 13.5527 11.3783 13.611 11.3783C13.7259 11.3783 15.6028 13.3344 15.6028 13.4542C15.6028 13.4942 14.3421 14.8139 12.8012 16.3868L9.99957 19.2466L7.19794 16.3868C5.65704 14.8139 4.39631 13.4715 4.39631 13.4034C4.39631 13.241 6.20591 11.3857 6.36853 11.3816C6.43768 11.3797 7.28288 12.1824 8.2469 13.1654Z" fill="white"/>
</svg>
