<svg width="69" height="22" viewBox="0 0 69 22" fill="none" xmlns="http://www.w3.org/2000/svg">
<path fill-rule="evenodd" clip-rule="evenodd" d="M4.90416 2.70268L0.412937 5.34647L0.374529 10.7877L0.336121 16.2288L4.86643 18.8684L9.39657 21.5082L13.9121 18.8472L18.4275 16.1862V10.7676V5.3489L14.8585 3.25383C12.8956 2.10152 10.8634 0.911312 10.3425 0.608828L9.39555 0.0587158L4.90416 2.70268ZM12.059 6.20616L14.6036 7.69107V10.7749V13.8588L12.0736 15.3466C10.6821 16.1649 9.47764 16.8326 9.39691 16.8305C9.31618 16.8282 8.14133 16.176 6.786 15.381L4.32175 13.9356L4.27552 10.8135L4.22929 7.69159L6.73977 6.20928C8.12043 5.39389 9.30973 4.72558 9.3823 4.72403C9.45486 4.72247 10.6595 5.38939 12.059 6.20616ZM26.3496 6.8845C24.8138 7.37232 23.7883 8.89633 23.7883 10.6913C23.7883 13.0065 25.3114 14.5849 27.5455 14.5849C28.794 14.5849 29.8118 14.0448 30.428 13.0551C30.6979 12.622 30.9186 12.2179 30.9186 12.1574C30.9186 12.0968 30.6578 11.9658 30.339 11.8661C29.7841 11.6927 29.7423 11.7116 29.3617 12.3069C28.5757 13.5367 27.0012 13.6727 25.8617 12.6094C25.3161 12.1004 25.2427 11.9277 25.1768 10.9992C25.0459 9.15642 25.9336 8.0112 27.4935 8.00982C28.3835 8.00895 29.1498 8.4343 29.4333 9.08634C29.6705 9.63212 29.6666 9.63091 30.365 9.38311C31.0028 9.15676 30.9525 8.833 30.1267 7.85062C29.7018 7.34515 29.2972 7.07814 28.6682 6.88796C27.6301 6.57406 27.3288 6.57354 26.3496 6.8845ZM31.9383 10.5183V14.4118H32.5332H33.128V12.8625C33.128 11.1458 33.3351 10.4723 33.9084 10.3257C35.002 10.0462 35.3314 10.6202 35.3348 12.8111L35.3373 14.4118H35.9321H36.5269V12.5893C36.5269 10.5989 36.313 9.79721 35.6573 9.32964C35.1606 8.97524 34.2826 8.96745 33.6293 9.31147L33.128 9.57536V8.10015V6.62476H32.5332H31.9383V10.5183ZM43.5288 6.83242C43.2497 7.11656 43.2722 7.74921 43.5704 8.00117C43.9134 8.29102 44.5171 8.16262 44.7902 7.7416C45.2489 7.03436 44.1255 6.22485 43.5288 6.83242ZM52.3321 10.5183V14.4118H52.9269H53.5218V10.5183V6.62476H52.9269H52.3321V10.5183ZM55.0853 6.83242C54.8062 7.11656 54.8287 7.74921 55.1269 8.00117C55.4699 8.29102 56.0735 8.16262 56.3466 7.7416C56.8053 7.03436 55.682 6.22485 55.0853 6.83242ZM63.8886 10.5183V14.4118H64.4834C65.072 14.4118 65.0782 14.4039 65.0782 13.6599C65.0782 13.1394 65.1782 12.816 65.4032 12.6087C65.7164 12.32 65.7531 12.3469 66.4292 13.3606C67.1139 14.3871 67.1484 14.4118 67.9002 14.4118H68.6703L68.2848 13.8494C68.0727 13.5402 67.6001 12.8696 67.2344 12.3595L66.5695 11.4321L67.646 10.3262L68.7223 9.22045H67.8824C67.0882 9.22045 66.989 9.27426 66.0604 10.2101L65.0782 11.1996V8.91225V6.62476H64.4834H63.8886V10.5183ZM38.696 9.31822C38.0811 9.65808 37.5886 10.5889 37.913 10.7981C38.3233 11.0629 38.766 10.959 39.1066 10.5183C39.6491 9.81607 40.7756 10.0068 40.7756 10.8009C40.7756 11.1257 40.5843 11.2087 39.4161 11.391C38.3678 11.5545 38.0677 11.7467 37.7849 12.4356C37.5745 12.9485 37.5745 13.1064 37.7849 13.6193C37.9185 13.9446 38.1821 14.295 38.3709 14.398C38.9392 14.7076 40.0041 14.6217 40.4978 14.2261C40.8689 13.9288 40.9456 13.9141 40.9456 14.1396C40.9456 14.3353 41.1128 14.4118 41.5404 14.4118H42.1352V12.5893C42.1352 10.3693 41.9015 9.66638 41.0421 9.30074C40.2875 8.97974 39.2954 8.98718 38.696 9.31822ZM48.0409 9.31943C47.7702 9.46894 47.5736 9.50251 47.5736 9.39903C47.5736 9.30074 47.2677 9.22045 46.8938 9.22045H46.214V11.8161V14.4118H46.8938H47.5736V12.6217C47.5736 10.6486 47.7495 10.2587 48.6395 10.2587C49.3952 10.2587 49.6129 10.8094 49.6129 12.7199V14.4118H50.2078H50.8026V12.4299C50.8026 11.2619 50.7191 10.2617 50.5995 9.99431C50.2115 9.12717 48.978 8.80185 48.0409 9.31943ZM59.5974 9.31943C59.3267 9.46894 59.1301 9.50251 59.1301 9.39903C59.1301 9.30074 58.8241 9.22045 58.4503 9.22045H57.7705V11.8161V14.4118H58.4503H59.1301V12.6217C59.1301 10.6571 59.307 10.2587 60.1793 10.2587C60.9818 10.2587 61.1694 10.7121 61.1694 12.6518V14.4118H61.7642H62.3591V12.4299C62.3591 11.2619 62.2756 10.2617 62.156 9.99431C61.768 9.12717 60.5345 8.80185 59.5974 9.31943ZM43.4948 11.8057V14.4118H44.1792H44.8634L44.8165 11.8594L44.7694 9.30697L44.1321 9.25332L43.4948 9.19951V11.8057ZM55.0513 11.8161V14.4118H55.6461H56.2409V11.8161V9.22045H55.6461H55.0513V11.8161ZM40.7756 12.568C40.7756 13.161 40.2361 13.5815 39.5595 13.5154C39.0556 13.4663 38.9912 13.4021 38.9912 12.9487C38.9912 12.4059 39.3161 12.216 40.3083 12.1795C40.6902 12.1653 40.7756 12.2365 40.7756 12.568Z" fill="white"/>
</svg>
