<svg width="174" height="174" viewBox="0 0 174 174" fill="none" xmlns="http://www.w3.org/2000/svg">
<g filter="url(#filter0_f_240_291)">
<path d="M87.4419 113.103C101.798 113.103 113.4 101.402 113.4 87.0124C113.4 72.6223 101.798 60.9218 87.4419 60.9218C73.0861 60.9218 61.4834 72.6223 61.4834 87.0124C61.4834 101.402 73.0861 113.103 87.4419 113.103Z" stroke="url(#paint0_linear_240_291)" stroke-width="7"/>
</g>
<g filter="url(#filter1_f_240_291)">
<path d="M87.4419 113.103C101.798 113.103 113.4 101.402 113.4 87.0124C113.4 72.6223 101.798 60.9218 87.4419 60.9218C73.0861 60.9218 61.4834 72.6223 61.4834 87.0124C61.4834 101.402 73.0861 113.103 87.4419 113.103Z" stroke="url(#paint1_linear_240_291)" stroke-width="7"/>
</g>
<path fill-rule="evenodd" clip-rule="evenodd" d="M70.953 59.2024C70.4808 59.3035 69.5296 59.6631 68.8393 60.0016C67.7731 60.5244 67.405 60.7978 66.3924 61.8196C65.1189 63.1049 64.4893 64.1213 63.9721 65.7275C63.1794 68.1889 63.2353 70.6009 64.1482 73.3339C66.0336 78.9794 71.554 85.2551 79.0116 90.231C81.08 91.6111 83.1465 92.7784 83.5213 92.7784C83.8741 92.7784 86.1163 91.4972 88.1511 90.1329C95.473 85.224 100.993 78.9187 102.858 73.3339C103.58 71.1738 103.751 69.4304 103.439 67.4227C103.087 65.1528 102.189 63.3877 100.557 61.7552C99.6143 60.8122 99.21 60.5159 98.1673 60.0039C96.7409 59.3036 95.5123 59.0034 94.0601 59C90.3797 58.9917 86.5834 61.7132 84.1638 66.0947C83.8369 66.6868 83.5396 67.1712 83.5033 67.1712C83.467 67.1712 83.1697 66.6868 82.8428 66.0947C80.8857 62.5508 77.9709 60.0252 74.9461 59.2524C73.7767 58.9537 72.2077 58.934 70.953 59.2024ZM74.3742 61.3119C77.3335 62.0087 80.341 65.1605 82.0615 69.3676C82.7063 70.9446 82.8635 71.1377 83.5033 71.1377C84.1376 71.1377 84.3125 70.93 84.8957 69.4827C86.5195 65.4544 89.3973 62.2807 92.2224 61.4031C93.3011 61.0679 95.0921 61.1047 96.2108 61.4847C99.788 62.7003 101.943 66.5306 101.346 70.611C100.56 75.975 94.9735 82.9184 87.2023 88.1879C84.7408 89.8571 83.6912 90.446 83.3391 90.3557C83.175 90.3136 82.2619 89.7824 81.3097 89.1753C72.6387 83.6476 66.5039 76.3698 65.6609 70.611C65.2801 68.0095 66.0432 65.3045 67.6481 63.5678C69.4818 61.5836 71.9757 60.7472 74.3742 61.3119ZM57.8083 72.716C57.1603 72.9758 57.1312 73.1034 56.5537 78.227L56 83.1389L56.4032 87.2659C56.625 89.5357 56.8761 92.2835 56.9612 93.3722C57.0935 95.0634 57.1653 95.4439 57.4542 95.9858C57.8446 96.718 58.8127 97.7233 62.7882 101.524C65.9879 104.584 67.2428 106.043 68.0761 107.673L68.6412 108.778L68.7072 112.138L68.7733 115.499L69.0852 115.751C69.5195 116.101 70.1032 116.072 70.4966 115.679L70.8209 115.355V112.13C70.8209 108.428 70.7402 107.998 69.7065 106.191C68.7764 104.566 67.2929 102.858 64.4939 100.191C63.0715 98.8356 61.3082 97.1329 60.5754 96.4071L59.2433 95.0876L59.0817 92.9763C58.9929 91.8151 58.7476 89.1351 58.5367 87.0206L58.1532 83.1761L58.6093 79.1132C58.8601 76.8787 59.0912 75.0245 59.1228 74.993C59.2529 74.863 60.0088 75.5476 60.3029 76.0616C61.0793 77.4189 61.3092 78.9675 61.3092 82.8424V85.6869L61.6508 87.2083C62.0619 89.0397 62.6471 91.0372 63.167 92.3834L63.5498 93.3749L66.4326 96.2435C69.0006 98.799 69.3622 99.1122 69.7439 99.1122C70.318 99.1122 70.8209 98.61 70.8209 98.0366C70.8209 97.6564 70.5137 97.2997 68.0596 94.8307L65.2983 92.0526L64.9482 91.0691C64.6499 90.2311 63.6888 86.7973 63.6875 86.5654C63.6872 86.5229 64.0587 86.5387 64.5128 86.6005C65.9007 86.7892 66.3221 87.1477 67.9117 89.4923C68.6762 90.6201 69.4664 91.7539 69.6678 92.0117C69.8691 92.2697 71.3256 93.3599 72.9044 94.4344C76.8971 97.1519 78.886 98.9223 80.4473 101.149C81.3562 102.444 81.4671 102.994 81.2812 105.283C81.1943 106.353 80.9468 108.088 80.7309 109.141C80.3914 110.796 80.338 111.344 80.3356 113.204L80.3327 115.355L80.657 115.679C81.086 116.107 81.6932 116.107 82.1221 115.679L82.4464 115.355L82.4491 113.402C82.4513 111.77 82.5166 111.126 82.8471 109.471C83.0647 108.382 83.2803 107.061 83.3263 106.535C83.3723 106.008 83.4519 105.578 83.5033 105.578C83.5547 105.578 83.6344 106.008 83.6803 106.535C83.7263 107.061 83.9419 108.382 84.1595 109.471C84.49 111.126 84.5553 111.77 84.5575 113.402L84.5602 115.355L84.8845 115.679C85.3134 116.107 85.9206 116.107 86.3496 115.679L86.6739 115.355L86.671 113.204C86.6686 111.344 86.6152 110.796 86.2757 109.141C86.0599 108.088 85.8123 106.353 85.7254 105.283C85.5396 102.996 85.6506 102.444 86.5558 101.154C88.1421 98.8916 89.9574 97.2706 93.9742 94.5294L96.9808 92.4774L97.6732 91.548C98.0539 91.0368 98.841 89.9036 99.4223 89.0298C100.649 87.1853 101.159 86.7819 102.494 86.6005C102.948 86.5387 103.319 86.5229 103.319 86.5654C103.318 86.7973 102.357 90.2311 102.058 91.0691L101.708 92.0526L98.947 94.8307C96.493 97.2997 96.1857 97.6564 96.1857 98.0366C96.1857 98.61 96.6886 99.1122 97.2628 99.1122C97.6444 99.1122 98.006 98.799 100.574 96.2435L103.457 93.3749L103.84 92.3834C104.36 91.0365 104.945 89.0394 105.356 87.2057L105.699 85.6819L105.686 82.6653C105.67 78.7444 105.936 77.1621 106.832 75.871C107.164 75.3922 107.776 74.8855 107.888 74.9968C107.917 75.0263 108.146 76.8787 108.397 79.1132L108.853 83.1761L108.471 87.0206C108.261 89.1351 108.021 91.7557 107.937 92.8443L107.785 94.8237L107.437 95.3372C107.245 95.6198 105.869 96.9917 104.378 98.3861C99.8739 102.6 98.0384 104.662 97.0519 106.619C96.2431 108.223 96.1857 108.589 96.1857 112.14V115.355L96.51 115.679C96.9034 116.072 97.4871 116.101 97.9214 115.751L98.2333 115.499L98.2994 112.144L98.3655 108.79L98.9249 107.679C99.7357 106.068 100.984 104.617 104.218 101.524C108.192 97.725 109.162 96.7183 109.553 95.9858C109.844 95.441 109.913 95.0725 110.042 93.3722C110.124 92.2835 110.374 89.552 110.596 87.3022L111 83.2116L110.455 78.3292C109.883 73.2131 109.825 72.9592 109.174 72.7118C108.74 72.5472 107.576 72.7517 106.793 73.1301C104.489 74.2442 103.259 77.7827 103.512 82.5684L103.603 84.3004L102.834 84.3929C101.066 84.6054 99.9502 85.0595 99.0939 85.9148C98.8093 86.1991 97.9834 87.3105 97.2587 88.3845C96.534 89.4585 95.8028 90.4951 95.634 90.688C95.4652 90.881 94.0191 91.9304 92.4206 93.02C89.4114 95.0709 87.6893 96.5025 86.1962 98.1939C85.0634 99.4772 84.0801 100.981 83.8061 101.849C83.6857 102.231 83.548 102.543 83.5001 102.543C83.4522 102.543 83.3386 102.291 83.2475 101.982C82.8779 100.73 81.5126 98.8292 79.6845 97.022C78.2249 95.5792 77.1764 94.7599 74.2557 92.7802C72.8389 91.8197 71.5415 90.8771 71.3726 90.6855C71.2038 90.4939 70.4726 89.4585 69.748 88.3845C69.0232 87.3105 68.1973 86.1991 67.9127 85.9148C67.0615 85.0646 65.9382 84.6049 64.2034 84.3967L63.4648 84.308L63.4691 81.6486C63.4724 79.5678 63.4222 78.7595 63.2381 77.9343C62.5094 74.6696 61.0246 72.9864 58.6009 72.6775C58.3103 72.6404 57.9536 72.6577 57.8083 72.716Z" fill="url(#paint2_linear_240_291)"/>
<defs>
<filter id="filter0_f_240_291" x="0.983398" y="0.421753" width="172.917" height="173.181" filterUnits="userSpaceOnUse" color-interpolation-filters="sRGB">
<feFlood flood-opacity="0" result="BackgroundImageFix"/>
<feBlend mode="normal" in="SourceGraphic" in2="BackgroundImageFix" result="shape"/>
<feGaussianBlur stdDeviation="28.5" result="effect1_foregroundBlur_240_291"/>
</filter>
<filter id="filter1_f_240_291" x="0.983398" y="0.421753" width="172.917" height="173.181" filterUnits="userSpaceOnUse" color-interpolation-filters="sRGB">
<feFlood flood-opacity="0" result="BackgroundImageFix"/>
<feBlend mode="normal" in="SourceGraphic" in2="BackgroundImageFix" result="shape"/>
<feGaussianBlur stdDeviation="28.5" result="effect1_foregroundBlur_240_291"/>
</filter>
<linearGradient id="paint0_linear_240_291" x1="87.4419" y1="64.4218" x2="87.4419" y2="109.603" gradientUnits="userSpaceOnUse">
<stop stop-color="#43DF9B"/>
<stop offset="1" stop-color="#3DBAB5"/>
</linearGradient>
<linearGradient id="paint1_linear_240_291" x1="87.4419" y1="64.4218" x2="87.4419" y2="109.603" gradientUnits="userSpaceOnUse">
<stop stop-color="#43DF9B"/>
<stop offset="1" stop-color="#3DBAB5"/>
</linearGradient>
<linearGradient id="paint2_linear_240_291" x1="83.5" y1="59" x2="83.5" y2="116" gradientUnits="userSpaceOnUse">
<stop stop-color="#43DF9B"/>
<stop offset="1" stop-color="#3DBAB5"/>
</linearGradient>
</defs>
</svg>
