<svg width="178" height="178" viewBox="0 0 178 178" fill="none" xmlns="http://www.w3.org/2000/svg">
<g filter="url(#filter0_f_240_288)">
<circle cx="89" cy="89" r="28.5" stroke="url(#paint0_linear_240_288)" stroke-width="7"/>
</g>
<g filter="url(#filter1_f_240_288)">
<circle cx="89" cy="89" r="28.5" stroke="url(#paint1_linear_240_288)" stroke-width="7"/>
</g>
<path fill-rule="evenodd" clip-rule="evenodd" d="M90.4265 62.2036C90.2466 62.3087 89.9854 62.6698 89.8461 63.006C89.5244 63.7824 89.8501 64.6762 90.5749 65.0064C90.9085 65.1584 92.9319 65.2348 96.6265 65.2348H102.177V87.1579C102.177 101.837 102.246 109.264 102.387 109.634C102.772 110.647 103.027 110.711 106.692 110.718C108.564 110.722 110.065 110.802 110.028 110.897C109.931 111.144 98.7542 121.239 98.581 121.235C98.5015 121.234 96.3441 119.41 93.7865 117.182C91.229 114.955 88.6193 112.704 87.9871 112.181C87.3548 111.658 86.7891 111.117 86.7299 110.977C86.6462 110.782 87.2974 110.725 89.613 110.725H92.604L93.0747 110.224C93.7192 109.538 93.6775 108.546 92.9786 107.945L92.4497 107.49H86.9931H81.5364L81.0281 107.998C80.6322 108.394 80.5336 108.673 80.5823 109.261L80.645 110.016L84.7057 113.555C86.939 115.501 90.0701 118.231 91.6639 119.621C97.9552 125.108 97.9188 125.079 98.6131 125.079C99.1847 125.079 100.268 124.172 107.544 117.602C112.098 113.489 115.907 109.904 116.008 109.635C116.254 108.98 115.844 108.014 115.194 107.718C114.868 107.57 113.071 107.49 110.052 107.49H105.412V85.1845V62.8793L104.944 62.4395L104.476 62L97.615 62.0061C93.6804 62.0097 90.6144 62.0938 90.4265 62.2036ZM76.2324 68.8853C70.7425 69.5234 66.2881 71.284 64.7522 73.423C62.9753 75.8977 64.4815 78.7882 68.3983 80.4204C71.5502 81.7339 75.0406 82.3813 79.9374 82.5606C86.1106 82.7869 92.2912 81.7323 95.7149 79.869C97.5838 78.8517 98.9366 76.9921 98.9408 75.4339C98.9429 74.7002 97.9227 72.9449 97.1287 72.3161C95.2018 70.7899 91.474 69.5507 87.0742 68.9741C84.6238 68.6528 78.6533 68.6039 76.2324 68.8853ZM87.1147 72.2124C91.0363 72.8005 94.2329 73.9016 95.2923 75.0293L95.7636 75.5309L95.4359 76.0309C94.739 77.0945 91.5466 78.2827 87.4179 79.015C85.385 79.3757 77.5597 79.3713 75.3884 79.0084C71.6167 78.378 68.1599 77.0816 67.479 76.0424C67.0797 75.4331 67.2606 75.1541 68.6154 74.2902C69.9716 73.4256 74.1096 72.2924 76.8036 72.048C79.143 71.8357 85.253 71.9332 87.1147 72.2124ZM80.1395 72.4845C80.1395 72.7946 79.9279 72.882 78.9214 72.9873C77.1534 73.1721 76.5003 73.5623 76.5003 74.4339C76.5003 75.405 77.171 75.7032 80.2604 76.1051C81.6395 76.2846 82.7678 76.519 82.7678 76.6259C82.7678 76.7468 81.6286 76.7765 79.7522 76.7044L76.7365 76.5885L76.3918 76.9694C75.8255 77.5951 76.1451 77.8984 77.5227 78.0424C78.2162 78.1149 79.0886 78.1742 79.4616 78.1742C80.0047 78.1742 80.1395 78.2546 80.1395 78.5785C80.1395 78.934 80.2744 78.9829 81.2515 78.9829C82.1922 78.9829 82.3635 78.9263 82.3635 78.6147C82.3635 78.3125 82.6342 78.2045 83.8778 78.0112C85.5821 77.7462 86.1695 77.4631 86.3306 76.8283C86.6193 75.6916 85.888 75.3295 82.2624 74.8146C79.0336 74.3559 79.0924 74.3259 83.3505 74.2608C85.342 74.2303 85.8264 74.0059 85.5359 73.2483C85.4348 72.9849 85.1155 72.9176 83.9684 72.9176C82.6979 72.9176 82.5153 72.8699 82.4221 72.5132C82.3328 72.1719 82.1463 72.1089 81.2279 72.1089C80.3021 72.1089 80.1395 72.1651 80.1395 72.4845ZM64.698 80.8935C64.5195 81.166 64.265 81.795 64.1321 82.2913C63.7627 83.6722 64.1465 84.6918 65.5546 86.0712C66.8662 87.3561 68.7011 88.2226 71.7484 88.9955C79.2326 90.894 90.1431 90.215 95.4078 87.5231C97.362 86.5237 98.9297 84.5705 98.9356 83.1275C98.938 82.5483 98.0727 80.3981 97.8371 80.3981C97.7514 80.3981 95.6286 81.7685 95.1187 82.1526C95.0732 82.187 95.1987 82.3954 95.3981 82.6156L95.7606 83.0161L95.4519 83.4872C94.7616 84.5407 91.7368 85.7318 88.1255 86.3723C85.2562 86.8813 77.6412 86.883 74.7818 86.3755C72.1222 85.9034 69.9811 85.2146 68.6324 84.3974C67.2155 83.539 66.9927 83.1864 67.5077 82.6174C67.8554 82.2331 67.8637 82.1646 67.5817 82.0069C67.407 81.909 66.7857 81.5071 66.201 81.1136C65.6161 80.72 65.1119 80.3981 65.0803 80.3981C65.0486 80.3981 64.8767 80.6211 64.698 80.8935ZM64.588 88.56C64.3565 88.9349 64.1097 89.6599 64.0395 90.1716C63.7834 92.0397 65.3852 94.0617 68.0576 95.2436C76.4393 98.9503 92.5852 98.0545 97.3262 93.6197C98.6695 92.3632 99.0872 91.2637 98.7615 89.8422C98.6287 89.2626 98.3464 88.5792 98.1344 88.3235L97.7488 87.8583L96.7557 88.5257C96.2094 88.8926 95.591 89.2949 95.3811 89.4199L94.9996 89.6469L95.3534 90.0424C95.5479 90.2597 95.7072 90.5363 95.7072 90.6566C95.7072 91.4093 92.5662 92.9121 89.6728 93.5437C84.0163 94.7782 75.6783 94.5087 71.0593 92.942C69.1906 92.3082 67.8633 91.5903 67.4804 91.0058L67.1468 90.4967L67.5273 90.0717L67.9078 89.6469L67.5263 89.4199C67.3164 89.2949 66.7044 88.8973 66.1664 88.5358C65.6284 88.1743 65.1479 87.8787 65.0987 87.8787C65.0494 87.8787 64.8197 88.1854 64.588 88.56ZM64.5973 96.0256C63.636 97.581 63.8618 99.2651 65.2308 100.75C66.7778 102.429 69.7949 103.686 74.2044 104.489C77.6643 105.12 85.22 105.124 88.6534 104.498C94.2129 103.483 97.6435 101.716 98.6281 99.3587C99.0399 98.3727 99.0185 97.6608 98.5472 96.6734C97.861 95.2355 97.8871 95.2454 96.7715 95.9953C96.2165 96.3683 95.591 96.7755 95.3811 96.9004L94.9996 97.1275L95.3696 97.5407C95.8631 98.0921 95.5786 98.6175 94.4185 99.2975C89.9059 101.942 79.3765 102.613 72.0524 100.723C70.2632 100.262 67.8775 99.092 67.4763 98.4801L67.1468 97.9772L67.5273 97.5484C67.7794 97.2646 67.8285 97.0919 67.6731 97.0373C67.5441 96.992 66.9258 96.596 66.2995 96.157C65.6729 95.7183 65.1264 95.3592 65.0848 95.3592C65.0431 95.3592 64.8238 95.6591 64.5973 96.0256Z" fill="url(#paint2_linear_240_288)"/>
<defs>
<filter id="filter0_f_240_288" x="0" y="0" width="178" height="178" filterUnits="userSpaceOnUse" color-interpolation-filters="sRGB">
<feFlood flood-opacity="0" result="BackgroundImageFix"/>
<feBlend mode="normal" in="SourceGraphic" in2="BackgroundImageFix" result="shape"/>
<feGaussianBlur stdDeviation="28.5" result="effect1_foregroundBlur_240_288"/>
</filter>
<filter id="filter1_f_240_288" x="0" y="0" width="178" height="178" filterUnits="userSpaceOnUse" color-interpolation-filters="sRGB">
<feFlood flood-opacity="0" result="BackgroundImageFix"/>
<feBlend mode="normal" in="SourceGraphic" in2="BackgroundImageFix" result="shape"/>
<feGaussianBlur stdDeviation="28.5" result="effect1_foregroundBlur_240_288"/>
</filter>
<linearGradient id="paint0_linear_240_288" x1="89" y1="64" x2="89" y2="114" gradientUnits="userSpaceOnUse">
<stop stop-color="#43DF9B"/>
<stop offset="1" stop-color="#3DBAB5"/>
</linearGradient>
<linearGradient id="paint1_linear_240_288" x1="89" y1="64" x2="89" y2="114" gradientUnits="userSpaceOnUse">
<stop stop-color="#43DF9B"/>
<stop offset="1" stop-color="#3DBAB5"/>
</linearGradient>
<linearGradient id="paint2_linear_240_288" x1="90.04" y1="62" x2="90.04" y2="125.079" gradientUnits="userSpaceOnUse">
<stop stop-color="#43DF9B"/>
<stop offset="1" stop-color="#3DBAB5"/>
</linearGradient>
</defs>
</svg>
