<svg width="59" height="18" viewBox="0 0 59 18" fill="none" xmlns="http://www.w3.org/2000/svg">
<path fill-rule="evenodd" clip-rule="evenodd" d="M23.7506 0.26912C21.7497 0.899139 20.273 2.56178 19.9061 4.59751C19.2822 8.05921 22.5449 11.2542 26.1502 10.7119C28.0041 10.4329 29.6397 9.24444 30.4399 7.59472C30.7766 6.90064 30.8194 6.65092 30.8194 5.38408C30.8194 4.07916 30.7836 3.88547 30.4052 3.13984C29.8776 2.09987 28.7999 1.0576 27.7303 0.55271C27.026 0.220291 26.6916 0.151876 25.6187 0.120048C24.8164 0.0963819 24.124 0.151604 23.7506 0.26912ZM44.673 0.334C44.4375 0.518163 44.3476 0.729666 44.3476 1.09962C44.3476 1.72448 44.7807 2.11973 45.4651 2.11973C45.9947 2.11973 46.5155 1.6139 46.5155 1.09962C46.5155 0.932735 46.3842 0.635 46.2237 0.437915C45.8688 0.00185268 45.1583 -0.0457524 44.673 0.334ZM26.9067 2.41257C29.4575 3.57427 29.4566 7.13989 26.9052 8.39762C25.0197 9.327 22.6713 8.35137 22.0823 6.39399C21.4762 4.37921 22.6479 2.58681 24.9069 2.07349C25.3643 1.96957 26.2717 2.12341 26.9067 2.41257ZM2.1209 2.68718C1.38564 2.8859 0.412197 3.81257 0.216805 4.49999C0.128822 4.80955 0.0618134 6.20166 0.061391 7.73033C0.0605464 10.4166 0.0605471 10.4166 1.03765 10.4166C2.01461 10.4166 2.01461 10.4166 2.05825 7.77494C2.10077 5.1938 2.10963 5.12524 2.44298 4.78262C2.80942 4.40627 3.38982 4.32412 3.88253 4.57887C4.44153 4.86804 4.56527 5.49371 4.56527 8.03201C4.56527 10.4166 4.56527 10.4166 5.55068 10.4166C6.53609 10.4166 6.53609 10.4166 6.53609 7.9772C6.53609 4.9589 6.7053 4.44721 7.70676 4.43633C8.86011 4.42368 9.07 4.97726 9.07 8.03201C9.07 10.4166 9.07 10.4166 10.0554 10.4166C11.0408 10.4166 11.0408 10.4166 11.0408 7.71659C11.0408 4.86886 10.9666 4.41239 10.3797 3.64867C9.44037 2.42617 7.09468 2.19549 5.96568 3.21451C5.54421 3.59495 5.5314 3.59726 5.26942 3.34413C4.58203 2.67998 3.20837 2.39326 2.1209 2.68718ZM34.549 2.65481C33.5316 2.95377 32.8838 3.49144 32.4874 4.36588C32.2876 4.80629 32.2308 5.42516 32.1846 7.66232C32.1279 10.4166 32.1279 10.4166 33.198 10.4166C34.2683 10.4166 34.2683 10.4166 34.2683 7.89355C34.2683 4.76018 34.3901 4.43198 35.5531 4.43198C35.8085 4.43198 36.1046 4.5616 36.3159 4.76589C36.6592 5.0975 36.6614 5.11695 36.6614 7.75821C36.6614 10.4166 36.6614 10.4166 37.7172 10.4166C38.773 10.4166 38.773 10.4166 38.773 7.85709C38.773 4.89252 38.6313 4.20878 37.8573 3.4388C37.114 2.69929 35.6102 2.34293 34.549 2.65481ZM42.6815 2.65563C41.9427 2.88509 41.3017 3.37202 40.9286 3.98721C40.1033 5.3479 40.571 7.13214 41.959 7.91803C42.8888 8.44454 43.7646 8.49242 44.7221 8.06887C47.5613 6.81291 46.842 2.85897 43.7257 2.59238C43.3632 2.56137 42.8933 2.5898 42.6815 2.65563ZM48.064 5.59245C48.064 8.67345 48.1382 9.03471 48.9343 9.82944C49.1728 10.0676 49.5476 10.3343 49.7674 10.4222C50.1668 10.582 50.1668 10.582 50.2063 12.0975C50.246 13.613 50.246 13.613 51.2666 13.6529C52.2872 13.6929 52.2872 13.6929 52.2872 12.1319C52.2872 10.6314 52.2995 10.5673 52.604 10.478C53.2134 10.2991 53.8688 9.69451 54.2014 9.00438C54.5199 8.34362 54.5369 8.16897 54.5382 5.5541C54.5396 2.79981 54.5396 2.79981 53.5649 2.79981C52.5903 2.79981 52.5903 2.79981 52.5443 5.41808C52.4936 8.30921 52.4319 8.53635 51.6283 8.7926C51.2791 8.90386 51.0878 8.89094 50.7748 8.73439C50.1114 8.40306 50.0349 8.04833 50.0349 5.30968C50.0349 2.79981 50.0349 2.79981 49.0494 2.79981C48.064 2.79981 48.064 2.79981 48.064 5.59245ZM14.4451 3.86779C11.9606 4.71938 11.2403 7.73155 13.0931 9.52178C14.5572 10.9363 16.8391 10.863 18.2481 9.35611C20.6353 6.80298 17.8038 2.7167 14.4451 3.86779ZM44.1738 4.71394C44.92 5.28098 44.4389 6.4722 43.4636 6.4722C43.0159 6.4722 42.4331 5.89522 42.4331 5.45209C42.4331 5.00895 43.0159 4.43198 43.4636 4.43198C43.6503 4.43198 43.9698 4.55888 44.1738 4.71394ZM16.5775 5.93426C17.6163 6.72382 17.1273 8.3919 15.796 8.60055C14.2862 8.83735 13.4028 6.9579 14.5758 6.0043C15.1242 5.55845 16.0408 5.52635 16.5775 5.93426ZM56.2324 8.50901C55.6207 9.09999 55.7695 10.1145 56.5232 10.491C57.1111 10.7848 57.4709 10.7335 57.929 10.2911C58.7809 9.46791 58.2726 8.24038 57.0798 8.24038C56.7006 8.24038 56.4176 8.33002 56.2324 8.50901ZM42.2917 9.09605C41.372 9.34768 40.3807 10.0619 39.8309 10.869C38.5809 12.7042 38.8902 14.9554 40.596 16.4374C41.4476 17.1771 42.3123 17.4894 43.5088 17.4894C45.3722 17.4894 47.0115 16.4264 47.6434 14.8084C48.0419 13.7877 47.9865 12.2763 47.5181 11.3966C46.5139 9.50981 44.3158 8.54233 42.2917 9.09605ZM44.693 11.1685C46.2409 11.9419 46.3435 14.2155 44.8738 15.1771C44.1758 15.634 42.7976 15.6626 42.1971 15.2326C40.872 14.2839 40.697 12.6471 41.8063 11.5755C42.5843 10.8237 43.6908 10.6677 44.693 11.1685ZM3.3825 11.7408C3.33619 11.7855 3.29832 11.9388 3.29832 12.0814C3.29832 12.4011 3.76653 12.3562 3.83157 12.0303C3.87577 11.8086 3.53777 11.5907 3.3825 11.7408ZM8.08459 12.2255C8.08459 12.6622 8.07065 12.6727 7.56809 12.616C6.93265 12.5443 6.67686 12.8209 6.67686 13.5799C6.67686 14.4723 6.83833 14.6193 7.80375 14.6061C8.64768 14.5946 8.64768 14.5946 8.64768 13.1856C8.64768 11.8675 8.62952 11.7768 8.36614 11.7768C8.14146 11.7768 8.08459 11.8675 8.08459 12.2255ZM19.2056 13.2049C19.2056 14.5423 19.2235 14.6331 19.4872 14.6331C19.7375 14.6331 19.7687 14.5423 19.7687 13.817C19.7687 13.107 19.8034 13.0009 20.0352 13.0009C20.3643 13.0009 20.4726 13.2561 20.4726 14.0321C20.4726 14.5423 20.5151 14.6331 20.7541 14.6331C20.9977 14.6331 21.0357 14.5423 21.0357 13.9618C21.0357 13.5927 20.9713 13.1271 20.8927 12.9272C20.7682 12.6111 20.6856 12.5708 20.2592 12.619C19.7866 12.6723 19.7687 12.6579 19.7687 12.2255C19.7687 11.8675 19.7119 11.7768 19.4872 11.7768C19.2235 11.7768 19.2056 11.8675 19.2056 13.2049ZM0.0605469 13.2729C0.0605469 14.5423 0.0792696 14.6331 0.342092 14.6331C0.592949 14.6331 0.624341 14.5404 0.629831 13.783C0.636025 12.9329 0.636026 12.9329 0.910111 13.4341C1.06074 13.7098 1.23853 13.9678 1.30512 14.0077C1.3717 14.0474 1.59243 13.7913 1.79571 13.4383C2.16524 12.7969 2.16524 12.7969 2.16876 13.715C2.17186 14.5413 2.20029 14.6331 2.45368 14.6331C2.71651 14.6331 2.73523 14.5423 2.73523 13.2729C2.73523 11.9156 2.73452 11.9128 2.38597 11.9128C2.1109 11.9128 1.96464 12.0499 1.69717 12.5584C1.35763 13.204 1.35763 13.204 1.033 12.5584C0.785526 12.0662 0.63138 11.9128 0.384465 11.9128C0.0680082 11.9128 0.0605469 11.9442 0.0605469 13.2729ZM17.7979 12.3208C17.7979 12.4704 17.7346 12.5928 17.6571 12.5928C17.5797 12.5928 17.5164 12.6847 17.5164 12.7969C17.5164 12.9091 17.5766 13.0009 17.6501 13.0009C17.7237 13.0009 17.8028 13.3529 17.8261 13.783C17.8679 14.5562 17.8735 14.5656 18.3258 14.6076C18.6656 14.6393 18.7833 14.5957 18.7833 14.4376C18.7833 14.3208 18.6883 14.225 18.5722 14.225C18.4158 14.225 18.361 14.0663 18.361 13.613C18.361 13.1596 18.4158 13.0009 18.5722 13.0009C18.6883 13.0009 18.7833 12.9091 18.7833 12.7969C18.7833 12.6847 18.6883 12.5928 18.5722 12.5928C18.4549 12.5928 18.361 12.4719 18.361 12.3208C18.361 12.1395 18.2671 12.0488 18.0795 12.0488C17.8918 12.0488 17.7979 12.1395 17.7979 12.3208ZM3.29832 13.613C3.29832 14.5423 3.32338 14.6331 3.57986 14.6331C3.83635 14.6331 3.86141 14.5423 3.86141 13.613C3.86141 12.6836 3.83635 12.5928 3.57986 12.5928C3.32338 12.5928 3.29832 12.6836 3.29832 13.613ZM4.4245 13.627C4.4245 14.5423 4.44984 14.6331 4.70605 14.6331C4.95662 14.6331 4.98759 14.5423 4.98759 13.8075C4.98759 13.0292 5.00575 12.9844 5.30433 13.0254C5.58489 13.064 5.62586 13.1581 5.6633 13.851C5.69948 14.5218 5.74453 14.6331 5.98004 14.6331C6.21935 14.6331 6.25455 14.5359 6.25455 13.876C6.25455 12.7572 6.12405 12.6014 5.19664 12.612C4.4245 12.621 4.4245 12.621 4.4245 13.627ZM9.2454 12.7498C9.01946 12.9681 9.01974 13.4718 9.24597 13.6513C9.34282 13.728 9.57537 13.8121 9.76288 13.8379C10.2336 13.9029 10.3181 14.225 9.86424 14.225C9.66885 14.225 9.46782 14.1608 9.41771 14.0823C9.35605 13.9859 9.25807 13.9946 9.11519 14.1093C8.9288 14.2586 8.93345 14.2997 9.1546 14.4558C9.49865 14.699 10.2697 14.6786 10.5381 14.4194C10.9397 14.0312 10.756 13.5934 10.123 13.4297C9.52427 13.2751 9.48809 12.9687 10.0751 13.0241C10.4223 13.0571 10.5481 13.0146 10.5481 12.8649C10.5481 12.6018 9.49471 12.5089 9.2454 12.7498ZM12.2311 12.8717C12.0845 13.0281 11.9699 13.3533 11.9699 13.613C11.9699 14.8266 13.547 15.0343 13.9136 13.8689C14.0145 13.5481 13.7887 12.8582 13.5307 12.6998C13.2011 12.4972 12.4942 12.5908 12.2311 12.8717ZM14.2786 13.6323C14.2786 14.5423 14.3041 14.6331 14.5601 14.6331C14.7992 14.6331 14.8417 14.5423 14.8417 14.0321C14.8417 13.2561 14.9499 13.0009 15.2791 13.0009C15.5109 13.0009 15.5455 13.107 15.5455 13.817C15.5455 14.5967 15.5612 14.6331 15.8975 14.6331C16.2253 14.6331 16.2494 14.5871 16.2494 13.9618C16.2494 13.5927 16.189 13.137 16.1151 12.9493C15.9914 12.6349 15.9139 12.6089 15.1297 12.6196C14.2786 12.6313 14.2786 12.6313 14.2786 13.6323ZM21.7836 12.6998C21.458 12.8997 21.2988 13.5549 21.4605 14.0286C21.6289 14.5213 21.8226 14.6331 22.508 14.6331C23.0414 14.6331 23.3717 14.3602 23.1259 14.1227C23.0137 14.0143 22.9023 14.0135 22.7255 14.1202C22.4579 14.2817 22.0211 14.1807 22.0211 13.9572C22.0211 13.8801 22.3062 13.817 22.6546 13.817C23.2569 13.817 23.288 13.7979 23.288 13.43C23.288 13.2172 23.1722 12.9417 23.0306 12.8179C22.7642 12.5851 22.0763 12.5198 21.7836 12.6998ZM24.6958 13.626C24.6958 14.5338 24.7228 14.6331 24.9703 14.6331C25.2058 14.6331 25.2508 14.5218 25.287 13.851C25.3236 13.1732 25.3668 13.0689 25.6108 13.0689C25.8548 13.0689 25.898 13.1732 25.9346 13.851C25.9707 14.5218 26.0158 14.6331 26.2513 14.6331C26.493 14.6331 26.5258 14.5354 26.5258 13.817C26.5258 13.107 26.5604 13.0009 26.7923 13.0009C27.1214 13.0009 27.2297 13.2561 27.2297 14.0321C27.2297 14.5423 27.2722 14.6331 27.5112 14.6331C27.7548 14.6331 27.7928 14.5423 27.7928 13.9618C27.7928 12.9625 27.6058 12.5928 27.1007 12.5928C26.8711 12.5928 26.6421 12.657 26.592 12.7355C26.5312 12.8305 26.4444 12.8329 26.3324 12.743C26.2396 12.6687 25.8336 12.6104 25.4299 12.6135C24.6958 12.619 24.6958 12.619 24.6958 13.626ZM28.4671 12.7367C27.9707 13.0163 28.0269 14.1895 28.5529 14.529C28.8463 14.7183 29.578 14.6343 29.8122 14.3843C30.1337 14.041 30.1192 13.1078 29.7877 12.8179C29.5023 12.5684 28.8384 12.5276 28.4671 12.7367ZM30.5573 13.6044C30.8656 14.4901 30.9606 14.6331 31.2417 14.6331C31.5225 14.6331 31.6177 14.4907 31.9232 13.613C32.2619 12.6396 32.2658 12.5928 32.0102 12.5928C31.8054 12.5928 31.6871 12.7759 31.508 13.3713C31.2738 14.1497 31.2738 14.1497 31.0422 13.4053C30.8637 12.832 30.7403 12.6511 30.5049 12.6183C30.1993 12.5756 30.1993 12.5756 30.5573 13.6044ZM32.6773 12.8351C32.3783 13.1543 32.368 13.9315 32.6575 14.3307C33.036 14.853 34.3861 14.6801 34.1705 14.137C34.114 13.9946 34.047 13.9843 33.9076 14.0959C33.6734 14.2838 33.1131 14.2137 33.0358 13.987C32.9952 13.8674 33.1707 13.817 33.6275 13.817C34.377 13.817 34.5307 13.624 34.2438 13.0432C34.0895 12.7308 33.9509 12.6535 33.4858 12.6203C33.0699 12.5908 32.852 12.6486 32.6773 12.8351ZM8.06038 13.3177C8.08741 13.4545 8.06995 13.7186 8.02166 13.9046C7.89328 14.399 7.32723 14.2994 7.26459 13.7715C7.23953 13.5595 7.25502 13.2951 7.29922 13.1838C7.41001 12.905 7.99942 13.0085 8.06038 13.3177ZM13.2228 13.6149C13.2228 14.0663 13.1758 14.157 12.9412 14.157C12.7367 14.157 12.6472 14.0516 12.614 13.7715C12.5513 13.242 12.6825 12.9721 12.976 13.0267C13.162 13.0613 13.2228 13.2063 13.2228 13.6149ZM22.6905 13.2389C22.7268 13.3455 22.6128 13.4089 22.3847 13.4089C22.1482 13.4089 22.0211 13.3343 22.0211 13.1954C22.0211 12.9397 22.6014 12.9774 22.6905 13.2389ZM29.4117 13.613C29.4117 14.0663 29.3648 14.157 29.1301 14.157C28.8987 14.157 28.8408 14.0523 28.8048 13.5683C28.764 13.0214 28.7839 12.9829 29.0863 13.0243C29.3644 13.0624 29.4117 13.1481 29.4117 13.613ZM33.7562 13.2049C33.817 13.3581 33.733 13.4089 33.4193 13.4089C33.0195 13.4089 32.8939 13.286 33.0953 13.0916C33.2654 12.9272 33.6735 12.9971 33.7562 13.2049Z" fill="white"/>
</svg>
