<svg width="216" height="52" viewBox="0 0 216 52" fill="none" xmlns="http://www.w3.org/2000/svg">
<rect width="215" height="51" transform="translate(0.5 0.5)" fill="#041410"/>
<path d="M38.0895 8.84654C36.4945 8.93208 35.8058 9.08188 33.4409 9.85749C30.7949 10.7254 30.2084 10.8322 28.4737 10.7625C27.7064 10.7317 27.0067 10.679 26.9187 10.6454C26.7986 10.5996 26.7075 10.7018 26.5528 11.0555C26.4395 11.3145 26.1863 11.8636 25.9903 12.2755C25.7942 12.6875 25.6338 13.0503 25.6338 13.0819C25.6338 13.1135 25.5149 13.3946 25.3696 13.7064C24.6322 15.2895 24.164 16.3828 24.2229 16.3841C24.2589 16.385 24.2419 16.418 24.185 16.4577C24.1281 16.4973 23.707 17.3685 23.2492 18.3937C22.1905 20.765 22.0964 20.972 21.633 21.9518C21.422 22.398 21.2493 22.7849 21.2493 22.8117C21.2493 22.8384 20.9354 23.5432 20.5518 24.378C20.1681 25.2128 19.8543 25.9189 19.8543 25.9471C19.8543 25.9753 19.6076 26.5112 19.3062 27.1379C19.0048 27.7647 18.7582 28.3107 18.7582 28.3514C18.7582 28.392 18.6936 28.478 18.6146 28.5426C18.5356 28.607 18.4939 28.7184 18.5218 28.7899C18.5496 28.8614 18.5238 28.9495 18.4644 28.9857C18.4049 29.0219 18.3839 29.0953 18.4176 29.1489C18.4511 29.2026 18.4143 29.3209 18.3355 29.412C18.2566 29.503 17.999 30.0285 17.763 30.58C17.527 31.1313 17.2962 31.5594 17.25 31.5314C17.2039 31.5032 17.1928 31.5487 17.2254 31.6325C17.2943 31.8092 17.4225 31.8301 17.5168 31.68C17.5529 31.6223 17.6476 31.5997 17.7271 31.6298C17.8066 31.6599 17.8463 31.644 17.8153 31.5945C17.7517 31.4932 18.636 30.838 18.7799 30.8798C18.8309 30.8946 18.8509 30.8721 18.8243 30.8298C18.7978 30.7875 19.0523 30.5478 19.3899 30.2971C20.497 29.4752 22.3941 28.029 22.4451 27.9682C22.6433 27.7314 24.1118 26.754 24.4583 26.6284C24.6938 26.5429 25.3124 26.4489 25.8331 26.4191C27.0424 26.3503 27.8184 26.5358 28.7702 27.1212C29.7086 27.6985 30.1398 28.1212 30.0637 28.3895C30.0242 28.5293 30.0343 28.5551 30.0952 28.4692C30.2054 28.3134 30.2722 28.3855 30.6609 29.0806C30.9073 29.5212 31.2459 30.8351 31.1879 31.1257C31.1709 31.2112 31.3217 31.236 31.7166 31.2127C33.1056 31.131 34.6149 31.7094 35.6439 32.7178C36.3413 33.4012 36.9934 34.5734 36.9934 35.1437C36.9934 35.2995 37.0391 35.3268 37.2176 35.2776C37.9835 35.0667 38.9158 34.9928 39.4889 35.0978C39.821 35.1586 40.1689 35.1843 40.2619 35.1551C40.3853 35.1162 40.3964 35.1264 40.3028 35.1928C40.1525 35.2992 41.2671 35.8033 41.6768 35.8141C41.9052 35.8202 41.9093 35.8278 41.7266 35.9051C41.617 35.9515 41.5844 35.9925 41.6541 35.9963C42.0087 36.0156 43.2576 37.4544 43.1158 37.6804C43.0701 37.7532 43.0828 37.774 43.1485 37.734C43.2409 37.6778 43.389 37.9858 43.7208 38.9242C43.7514 39.0106 43.8501 39.0261 44.0412 38.9741C44.5529 38.8352 45.7892 38.9115 46.5097 39.1263C47.6749 39.4739 48.7561 40.3276 49.3876 41.3989C49.8892 42.2498 49.998 42.7002 49.9915 43.9005C49.9864 44.8569 49.9533 45.0566 49.7008 45.6566C49.5442 46.0289 49.2777 46.4666 49.1087 46.6292C48.9398 46.7919 48.8688 46.8916 48.951 46.8509C49.0332 46.8102 48.7866 47.0731 48.4029 47.4352C48.0193 47.7973 47.4552 48.3312 47.1494 48.6216C46.8437 48.9121 46.5562 49.1164 46.5107 49.0758C46.4651 49.0351 46.457 49.0519 46.4924 49.1131C46.528 49.1745 46.3565 49.4063 46.1098 49.6302C45.8639 49.8534 45.6627 50.0763 45.6627 50.1255C45.6627 50.284 46.4946 50.8754 47.0079 51.0818C47.9668 51.4673 49.1006 51.4403 50.0023 51.0106C50.9597 50.5543 51.7915 49.4398 51.9101 48.4546C51.942 48.189 51.9731 47.9722 51.9792 47.9728C51.9852 47.9734 52.2103 48.0396 52.4794 48.12C53.4807 48.419 54.6397 48.2531 55.5591 47.679C55.8229 47.5142 56.092 47.4094 56.1569 47.446C56.2219 47.4827 56.2423 47.4771 56.2024 47.4337C56.1625 47.3902 56.2793 47.1513 56.462 46.9029C56.6448 46.6544 56.876 46.2368 56.9757 45.9748C57.1655 45.4764 57.2288 44.3954 57.0957 43.9271C57.0196 43.6592 57.0196 43.6592 57.3946 43.9121C57.6009 44.0511 57.7573 44.2079 57.7423 44.2607C57.7273 44.3134 57.7593 44.3295 57.8136 44.2964C57.868 44.2635 58.1682 44.3097 58.4808 44.3991C58.8747 44.5119 59.266 44.5471 59.7548 44.5139C60.4559 44.4663 61.0447 44.2832 60.9551 44.1405C60.9294 44.0995 60.9872 44.0863 61.0835 44.1111C61.1887 44.1381 61.4275 44.0141 61.6803 43.801C61.922 43.5974 62.1514 43.4761 62.2181 43.5167C62.2928 43.5621 62.3076 43.5447 62.2595 43.4679C62.2182 43.4023 62.251 43.2741 62.3323 43.1831C62.5451 42.945 62.9659 42.0869 63.039 41.7422C63.0733 41.5803 63.1086 41.2369 63.1173 40.9791C63.1261 40.7213 63.1597 40.5247 63.1918 40.5423C64.1829 41.0859 64.4433 41.1536 65.5442 41.1536C66.5845 41.1536 66.6775 41.1366 67.3082 40.8309C68.1602 40.4179 68.9396 39.6551 69.3406 38.8413C69.8487 37.8103 69.8482 37.7415 69.3299 37.3233C69.0838 37.1247 68.9112 36.9162 68.9465 36.8599C68.9829 36.802 68.9628 36.7868 68.9003 36.8249C68.8396 36.8618 68.7094 36.8264 68.6109 36.746C66.5449 35.0611 65.9059 34.5464 64.2584 33.239C64.1003 33.1137 63.8629 32.9118 63.7306 32.7903C63.5985 32.6689 63.4587 32.5677 63.4202 32.5655C63.3815 32.5632 63.1705 32.4021 62.9513 32.2073C62.7321 32.0126 62.62 31.8891 62.7022 31.9328C62.7908 31.98 62.8179 31.9761 62.7687 31.9231C62.7229 31.874 62.6464 31.8338 62.5985 31.8338C62.4246 31.8338 61.7072 31.175 61.7709 31.0736C61.8087 31.0134 61.7889 30.9984 61.7238 31.038C61.5812 31.1248 59.7979 29.7291 59.8814 29.5961C59.9152 29.5422 59.8981 29.5254 59.8432 29.5587C59.713 29.638 58.5586 28.7093 58.5943 28.5539C58.6093 28.4884 58.5756 28.4626 58.5194 28.4968C58.4355 28.5479 57.362 27.7577 56.4743 26.9916C56.3647 26.897 56.0979 26.6896 55.8816 26.5308C55.6653 26.3719 55.3738 26.1373 55.2339 26.0093C55.094 25.8813 54.8791 25.711 54.7563 25.6307C54.6334 25.5504 54.5619 25.4386 54.5973 25.3822C54.6326 25.3258 54.618 25.3062 54.5646 25.3387C54.5112 25.3712 53.754 24.8225 52.8819 24.1193C52.0097 23.4161 51.2636 22.821 51.2237 22.7967C51.1489 22.7512 50.8507 22.9696 48.2612 24.9666C43.0117 29.0149 43.0149 29.013 41.2284 29.1082C39.8728 29.1804 38.8529 28.8943 37.5465 28.0749C36.8864 27.6609 36.7703 27.5449 36.9163 27.4445C37.0009 27.3864 36.9748 27.376 36.8381 27.4134C36.6778 27.4573 36.4545 27.2927 35.8153 26.6596C35.0328 25.8845 34.107 24.7641 34.1048 24.5897C34.1042 24.5442 34.0146 24.3956 33.9058 24.2593C33.7969 24.123 33.7323 23.9726 33.7622 23.925C33.7921 23.8774 33.7723 23.8384 33.7182 23.8384C33.5814 23.8384 33.1839 22.7584 33.2412 22.5428C33.2669 22.4459 33.2472 22.3913 33.1976 22.4216C33.0736 22.4971 33.0869 20.7578 33.2144 20.2127C33.4069 19.3907 34.3387 17.8179 34.5822 17.9041C34.6535 17.9293 34.6842 17.9059 34.6505 17.8521C34.6167 17.7982 34.7351 17.6331 34.9136 17.4853C35.0922 17.3374 35.308 17.1444 35.3934 17.0563C37.534 14.8458 40.9334 11.4986 40.9978 11.5378C41.0452 11.5666 41.0716 11.5477 41.0565 11.4958C41.0415 11.4439 41.5448 10.8785 42.175 10.2393C43.321 9.07718 43.321 9.07718 42.7231 9.00164C41.5668 8.85546 39.322 8.78032 38.0895 8.84654Z" fill="url(#paint0_linear_221_251)"/>
<path fill-rule="evenodd" clip-rule="evenodd" d="M77.2954 0.576459C77.2434 0.624137 76.3597 1.09866 75.3318 1.63107C74.2684 2.18191 73.4812 2.64721 73.5058 2.71069C73.5307 2.77534 73.4783 2.80408 73.3809 2.77897C73.2886 2.75523 72.9445 2.87521 72.6161 3.04571C70.85 3.96248 69.7343 4.54914 68.3322 5.29825C67.1409 5.93484 66.9923 5.99851 66.8661 5.92689C66.7956 5.88687 66.7709 5.89001 66.811 5.93376C66.8513 5.97752 66.8111 6.066 66.7216 6.13036C66.5742 6.2366 66.5845 6.2936 66.834 6.74478C66.9925 7.03134 67.0766 7.29376 67.0326 7.36391C66.9872 7.43621 66.9972 7.46064 67.0571 7.42414C67.1136 7.38981 67.4566 7.9126 67.8355 8.6107C68.8887 10.5514 69.1538 11.0385 69.515 11.6982C70.3628 13.2462 70.8099 14.074 71.4622 15.3035C71.8487 16.0319 72.2139 16.6157 72.2738 16.6009C72.3337 16.5861 72.3556 16.6172 72.3225 16.6699C72.2676 16.7575 72.469 17.1669 73.4845 19.0314C74.3569 20.633 74.8448 21.5387 76.18 24.0346C76.9603 25.4935 77.2786 26.0399 77.3935 26.1179C77.4519 26.1575 77.4687 26.1905 77.4308 26.1914C77.3659 26.1928 77.886 27.227 78.528 28.3729C78.9621 29.1477 79.9408 30.9789 80.2325 31.5622C80.486 32.0692 80.7478 32.2172 80.9923 31.9919C81.0443 31.9439 81.6699 31.6069 82.3824 31.243C83.0948 30.8791 83.7892 30.5133 83.9254 30.43C84.1971 30.2638 84.6264 30.0382 86.5675 29.0419C87.28 28.6762 88.0199 28.2905 88.2117 28.1849C88.4035 28.0792 89.2219 27.6507 90.0302 27.2327C90.8385 26.8148 91.5 26.4385 91.5 26.3965C91.5 26.3546 91.3829 26.1039 91.2399 25.8396C91.0968 25.5753 90.7321 24.8955 90.4293 24.3289C90.1266 23.7624 89.8457 23.2547 89.8052 23.2008C89.7648 23.1468 89.5155 22.6833 89.2513 22.1707C88.9871 21.6581 88.6427 21.023 88.4859 20.7593C88.329 20.4957 88.224 20.2203 88.2524 20.1473C88.2809 20.0744 88.2598 20.0253 88.2056 20.0381C88.1515 20.051 87.7769 19.4434 87.3733 18.688C85.8498 15.8362 85.6783 15.5176 85.0103 14.2995C84.6337 13.6124 84.3255 13.029 84.3255 13.0031C84.3255 12.9772 84.0796 12.5367 83.7791 12.0242C83.4265 11.4228 83.2558 11.0332 83.2978 10.9255C83.3377 10.8231 83.3232 10.7827 83.2604 10.8209C83.2041 10.8551 83.0516 10.6748 82.9214 10.42C82.7911 10.1652 82.545 9.71406 82.3743 9.4173C82.2037 9.12054 81.7361 8.25968 81.3351 7.50429C80.9341 6.7489 80.5299 5.99704 80.437 5.8334C80.3439 5.66986 79.9866 5.00767 79.6428 4.36186C78.9566 3.07279 78.6511 2.51958 78.2755 1.88672C78.139 1.65667 78.0538 1.40062 78.0862 1.31753C78.1186 1.23444 78.108 1.18901 78.0627 1.21658C78.0174 1.24424 77.8804 1.09199 77.7585 0.878321C77.5292 0.47659 77.4564 0.429206 77.2954 0.576459ZM51.3923 8.98947C50.0741 9.13604 48.7428 9.45056 47.8549 9.82521C47.0697 10.1565 45.9267 10.733 45.5141 11.0057C45.2944 11.1509 43.5228 12.8405 41.5772 14.7605C38.7622 17.5384 38.0702 18.2705 38.1892 18.3455C38.3071 18.4198 38.2856 18.4401 38.0873 18.4413C37.7516 18.4433 36.3793 19.8017 36.1036 20.4048C35.8094 21.0481 35.8304 21.8521 36.1601 22.5754C36.3046 22.8923 36.4615 23.1517 36.5089 23.1517C36.5561 23.1517 36.5949 23.2019 36.5949 23.2633C36.5949 23.5717 38.8938 25.8005 39.212 25.8005C39.2569 25.8005 39.3827 25.8821 39.4915 25.982C40.1735 26.6075 41.747 26.4833 42.6872 25.7297C42.9414 25.5258 43.2735 25.2707 43.425 25.1628C43.6901 24.9741 44.5293 24.3214 46.0148 23.1488C46.4003 22.8445 46.8487 22.5113 47.0113 22.4084C47.1738 22.3055 47.3965 22.1407 47.5061 22.0422C47.9627 21.6318 49.5445 20.5018 49.8101 20.3963C49.9678 20.3336 50.195 20.2377 50.3149 20.1831C50.4416 20.1254 50.8379 20.1096 51.2615 20.1454C52.3414 20.2365 52.4733 20.262 52.516 20.3881C52.5374 20.4512 52.6883 20.5029 52.8514 20.5029C53.0145 20.5029 53.1219 20.5443 53.0901 20.595C53.0583 20.6457 53.0957 20.7229 53.1731 20.7667C53.306 20.8418 53.8176 21.2528 54.6232 21.9315C54.8192 22.0967 55.5401 22.679 56.2252 23.2257C56.9103 23.7722 57.695 24.4211 57.969 24.6677C58.243 24.9142 58.5682 25.1423 58.6914 25.1746C58.8147 25.2068 58.9156 25.2665 58.9156 25.3074C58.9156 25.3482 59.2631 25.6618 59.6879 26.0042C60.1127 26.3466 61.0879 27.1381 61.8552 27.763C63.1026 28.7791 66.9043 31.8453 67.2859 32.143C67.3681 32.2072 68.0997 32.795 68.9118 33.4493C69.078 33.5832 69.2232 33.7051 69.3527 33.8139C69.7783 34.1714 70.0345 34.3865 70.3123 34.4184C70.7324 34.4667 71.2021 34.0962 72.3819 33.1655C72.6193 32.9782 72.8855 32.7683 73.1858 32.5345C74.9502 31.1607 74.9502 31.1607 74.2039 29.737C73.7933 28.9539 73.4808 28.2533 73.5094 28.1799C73.538 28.1066 73.5234 28.0698 73.477 28.0981C73.4305 28.1263 72.9714 27.3144 72.4567 26.2938C71.942 25.2732 71.4622 24.4357 71.3905 24.4326C71.3187 24.4295 71.2882 24.382 71.3228 24.3271C71.3771 24.2406 65.229 12.0039 64.9847 11.7122C64.9305 11.6476 64.47 11.597 63.8451 11.587C62.0431 11.5585 60.1484 11.1133 58.5669 10.3467C57.3489 9.75634 56.2691 9.39003 55.7124 9.37816C55.4577 9.37266 55.2698 9.33509 55.2948 9.29467C55.3197 9.25425 55.3039 9.21776 55.2595 9.21354C55.2152 9.20942 55.0892 9.18695 54.9796 9.16351C54.0923 8.97397 52.3096 8.88745 51.3923 8.98947ZM84.8678 22.7657C86.1293 23.2303 86.6496 24.7304 85.9375 25.8495C85.6411 26.3154 85.5016 26.4365 84.9732 26.6867C84.031 27.1326 82.791 26.7764 82.245 25.9029C82.0825 25.6428 81.9209 25.2375 81.8858 25.0021C81.7735 24.2468 82.2895 23.2327 82.9598 22.8914C83.6986 22.5153 84.114 22.4879 84.8678 22.7657ZM25.4345 28.7579C25.2974 28.82 25.1247 28.8831 25.0505 28.8981C24.9764 28.9131 24.5721 29.2487 24.1522 29.6439C23.3378 30.4101 20.3487 33.1473 19.022 34.3416C18.3395 34.956 18.1598 35.3487 18.1625 36.22C18.1673 37.8158 19.2853 38.9463 20.8585 38.9463C21.5246 38.9463 21.5246 38.9463 22.4581 38.1431C22.9716 37.7014 23.6169 37.1384 23.8921 36.8923C24.1674 36.6461 24.6809 36.2019 25.0335 35.9051C25.8331 35.232 26.6336 34.5332 27.7332 33.5484C28.4514 32.905 28.6137 32.7025 28.7546 32.2729C29.0464 31.3832 28.8879 30.117 28.4846 30.117C28.4028 30.117 28.3109 30.077 28.2802 30.028C28.2494 29.9792 28.3223 29.9644 28.4422 29.9952C28.536 30.0193 28.5894 30.0331 28.6022 30.0165C28.6191 29.9946 28.5648 29.9195 28.4386 29.745C28.1618 29.3623 27.7791 29.0627 27.3277 28.8752C26.8658 28.6833 25.7513 28.6144 25.4345 28.7579ZM31.2973 33.5827C31.0893 33.6482 30.6177 33.9887 30.2011 34.3739C29.7991 34.7458 29.2223 35.2756 28.9194 35.5511C28.6166 35.8267 27.7197 36.6513 26.9265 37.3835C26.1333 38.1156 25.2456 38.9303 24.954 39.1939C24.3606 39.7301 24.1996 40.034 24.1098 40.789C24.0645 41.1686 24.1013 41.4773 24.247 41.9418C24.4518 42.5946 24.5117 42.6605 24.717 42.4584C24.81 42.3668 24.8366 42.3675 24.8366 42.4614C24.8366 42.5279 24.7663 42.6088 24.6804 42.6412C24.5533 42.6893 24.5837 42.7606 24.843 43.024C25.3087 43.4972 26.0168 43.7656 26.7988 43.7656C27.4188 43.7656 27.4738 43.7458 27.9617 43.3461C28.2433 43.1154 28.7203 42.6991 29.0217 42.421C29.5185 41.9627 29.8768 41.6471 30.9072 40.7603C31.9386 39.8728 33.2333 38.7252 33.8069 38.19C34.5534 37.4937 34.8025 36.9684 34.8017 36.0925C34.8011 35.4123 34.3488 34.4546 33.852 34.0816C33.1102 33.5245 32.1046 33.3282 31.2973 33.5827ZM38.0564 37.4138C37.71 37.5094 37.4257 37.6914 37.0447 38.062C36.7031 38.3941 36.4703 38.5503 36.3899 38.5014C36.3185 38.458 36.2902 38.4655 36.3238 38.5188C36.4018 38.6432 36.3532 38.7012 35.596 39.3877C35.2389 39.7115 34.2526 40.6201 33.4042 41.4068C32.5558 42.1936 31.6746 43.0013 31.446 43.2017C30.199 44.2947 30.6393 46.616 32.2364 47.3699C32.7163 47.5964 33.5726 47.7315 33.9451 47.6394C34.1616 47.5859 35.1555 46.7695 36.663 45.4068C36.8923 45.1996 37.5018 44.6655 38.0176 44.22C39.5942 42.8579 40.719 41.8526 40.9532 41.5961C41.4294 41.0744 41.6192 39.8761 41.3603 39.0255C41.2066 38.5203 40.6167 37.8705 40.0658 37.5997C39.4967 37.3197 38.6734 37.2436 38.0564 37.4138ZM44.2486 41.2347C43.8889 41.3474 42.578 42.4957 42.3678 42.8826C42.3127 42.9838 42.219 43.0666 42.1595 43.0666C42.1 43.0666 41.7765 43.3235 41.4406 43.6376C41.1047 43.9515 40.4263 44.5805 39.933 45.0352C37.6784 47.1136 37.2141 47.6094 37.0901 48.0699C36.9497 48.5915 37.0208 49.4578 37.2505 50.0229C37.6256 50.9457 39.1074 51.6689 40.2063 51.4655C40.5275 51.406 40.6665 51.3012 42.0256 50.0934C44.1173 48.2347 44.9 47.5888 44.9926 47.6451C45.0493 47.6795 45.0678 47.6635 45.0339 47.6096C44.9513 47.4779 45.5179 46.9517 45.6534 47.0342C45.7189 47.0739 45.7372 47.0406 45.701 46.9476C45.6675 46.8614 45.7052 46.7723 45.7885 46.7408C46.0573 46.6393 47.3243 45.3769 47.5062 45.0294C47.605 44.841 47.7073 44.3883 47.7339 44.0234C47.7773 43.4259 47.751 43.2976 47.4688 42.7333C47.079 41.9539 46.5345 41.4574 45.8498 41.2572C45.2432 41.0799 44.7649 41.0732 44.2486 41.2347Z" fill="url(#paint1_linear_221_251)"/>
<path fill-rule="evenodd" clip-rule="evenodd" d="M12.4804 2.6478C12.4804 2.70147 12.3254 3.07602 12.1359 3.47991C11.9463 3.8839 11.5565 4.75594 11.2697 5.41784C10.9828 6.07984 10.6061 6.89733 10.4324 7.23451C10.2587 7.57179 10.1664 7.84834 10.2273 7.84912C10.3074 7.8502 10.3077 7.87051 10.2285 7.9227C10.1682 7.96233 9.9527 8.37005 9.74952 8.82868C9.54634 9.28731 9.20336 10.0258 8.98723 10.4697C8.7711 10.9138 8.59422 11.2998 8.59422 11.3278C8.59422 11.3557 8.4322 11.7209 8.2342 12.1393C8.0361 12.5577 7.75211 13.1869 7.60304 13.5376C7.05279 14.8319 6.768 15.3933 6.68679 15.344C6.64105 15.3161 6.6272 15.354 6.6562 15.4283C6.6851 15.5024 6.51151 15.9793 6.27047 16.488C5.6979 17.6961 5.65954 17.8278 5.82076 18.0305C5.93745 18.1772 5.93436 18.1827 5.79496 18.0758C5.65804 17.9707 5.59885 18.0294 5.36279 18.504C5.21233 18.8065 4.94169 19.391 4.76143 19.803C4.58117 20.2149 4.32099 20.7948 4.18337 21.0915C3.8382 21.8359 3.71843 22.1006 2.16484 25.5552C1.41261 27.2279 0.711098 28.764 0.605872 28.9687C0.531834 29.1128 0.486448 29.2011 0.503633 29.2754C0.530857 29.3931 0.715097 29.4756 1.1912 29.6887C1.61828 29.88 2.1471 30.1171 2.36632 30.2157C2.58555 30.3143 3.28058 30.6158 3.91084 30.8856C5.26075 31.4636 8.96849 33.0894 9.54086 33.3544C10.0365 33.5838 11.8056 34.3354 11.8499 34.3354C11.8679 34.3354 11.8826 34.2937 11.8826 34.2425C11.8826 34.1914 12.0359 33.8273 12.2233 33.4332C12.5216 32.8063 13.0166 31.716 13.6269 30.3424C13.7276 30.1155 13.8467 29.9523 13.8914 29.9796C13.9362 30.0068 13.9491 29.9683 13.9202 29.8939C13.8527 29.7208 14.4203 28.5303 14.5257 28.6241C14.5693 28.6628 14.5743 28.6419 14.5368 28.5776C14.4763 28.4737 14.7099 27.9072 15.6085 25.9784C15.7514 25.6717 15.8684 25.357 15.8684 25.2793C15.8684 25.2015 15.9343 25.084 16.0147 25.0183C16.0951 24.9525 16.1541 24.8699 16.1456 24.8346C16.1373 24.7992 16.2008 24.6159 16.2871 24.427C16.3733 24.2382 16.6003 23.7305 16.7915 23.2989C16.9829 22.8672 17.2513 22.2712 17.3881 21.9745C17.525 21.6777 17.8257 21.0155 18.0561 20.5029C18.2867 19.9903 18.5801 19.3502 18.7082 19.0804C18.8363 18.8107 19.1742 18.0602 19.4592 17.4127C19.7441 16.7652 20.0167 16.1935 20.0651 16.1423C20.1991 16.0004 20.1713 15.9102 19.9788 15.8629C19.883 15.8392 19.9254 15.8281 20.0732 15.8382C20.2211 15.8483 20.3176 15.8177 20.2877 15.7702C20.2424 15.698 21.038 13.8225 21.7577 12.3049C21.8617 12.0855 21.9468 11.8538 21.9468 11.7898C21.9468 11.726 21.9917 11.6737 22.0465 11.6737C22.1013 11.6737 22.1461 11.6252 22.1461 11.5659C22.1461 11.448 22.3273 11.0112 22.6914 10.2512C23.165 9.2623 23.3795 8.77737 23.3855 8.68153C23.3889 8.62757 23.4163 8.56135 23.4464 8.53437C23.4765 8.50739 23.5974 8.26459 23.715 7.99481C23.9288 7.50429 23.9288 7.50429 23.3613 7.23431C21.8732 6.5264 18.9047 5.2959 18.7898 5.33926C18.719 5.36604 18.6716 5.34063 18.6846 5.28265C18.7056 5.18946 17.1062 4.41935 15.8684 3.92677C15.6218 3.82867 15.151 3.62687 14.8221 3.47844C13.8121 3.02246 12.6669 2.55009 12.5712 2.55009C12.5213 2.55009 12.4804 2.59404 12.4804 2.6478ZM9.37994 25.3269C9.49124 25.2511 9.4751 25.2104 9.29663 25.1163C9.01065 24.9656 8.11901 24.8996 7.79127 25.0049C6.81803 25.3174 6.20271 26.1251 6.20271 27.09C6.20271 28.9909 8.56343 29.9412 9.9238 28.588C10.3808 28.1335 10.524 27.773 10.5248 27.0758C10.5255 26.5422 10.4791 26.3662 10.2411 25.9967C9.89082 25.4531 9.6991 25.3028 9.44122 25.3694C9.29264 25.4079 9.277 25.397 9.37994 25.3269Z" fill="url(#paint2_linear_221_251)"/>
<path d="M108.388 31C108.644 31.192 109.036 31.384 109.564 31.576C110.092 31.752 110.716 31.84 111.436 31.84C112.14 31.84 112.708 31.728 113.14 31.504C113.588 31.264 113.924 30.912 114.148 30.448C114.388 29.968 114.548 29.36 114.628 28.624C114.724 27.888 114.772 27.016 114.772 26.008V16.96H117.484V25.624C117.484 26.888 117.412 28.048 117.268 29.104C117.14 30.16 116.876 31.08 116.476 31.864C116.076 32.632 115.476 33.224 114.676 33.64C113.892 34.056 112.836 34.264 111.508 34.264C110.724 34.264 110.028 34.176 109.42 34C108.812 33.824 108.252 33.56 107.74 33.208L108.388 31ZM128.219 34.12C126.987 34.12 125.875 33.88 124.883 33.4C123.891 32.92 123.035 32.272 122.315 31.456C121.595 30.624 121.035 29.696 120.635 28.672C120.251 27.632 120.059 26.568 120.059 25.48C120.059 24.344 120.267 23.264 120.683 22.24C121.099 21.2 121.675 20.28 122.411 19.48C123.147 18.664 124.011 18.024 125.003 17.56C126.011 17.08 127.099 16.84 128.267 16.84C129.483 16.84 130.587 17.088 131.579 17.584C132.587 18.08 133.443 18.744 134.147 19.576C134.867 20.408 135.419 21.336 135.803 22.36C136.203 23.384 136.403 24.432 136.403 25.504C136.403 26.64 136.195 27.728 135.779 28.768C135.379 29.792 134.811 30.712 134.075 31.528C133.339 32.328 132.467 32.96 131.459 33.424C130.467 33.888 129.387 34.12 128.219 34.12ZM122.795 25.48C122.795 26.28 122.923 27.056 123.179 27.808C123.435 28.56 123.795 29.232 124.259 29.824C124.739 30.4 125.315 30.856 125.987 31.192C126.659 31.528 127.411 31.696 128.243 31.696C129.107 31.696 129.875 31.52 130.547 31.168C131.219 30.816 131.779 30.344 132.227 29.752C132.691 29.144 133.043 28.472 133.283 27.736C133.523 26.984 133.643 26.232 133.643 25.48C133.643 24.68 133.515 23.912 133.259 23.176C133.019 22.424 132.659 21.76 132.179 21.184C131.699 20.592 131.123 20.128 130.451 19.792C129.795 19.456 129.059 19.288 128.243 19.288C127.379 19.288 126.611 19.464 125.939 19.816C125.267 20.168 124.699 20.64 124.235 21.232C123.771 21.824 123.411 22.488 123.155 23.224C122.915 23.96 122.795 24.712 122.795 25.48ZM152.578 29.608C152.578 30.52 152.338 31.304 151.858 31.96C151.394 32.616 150.762 33.12 149.962 33.472C149.162 33.824 148.282 34 147.322 34H139.186V16.96H147.97C148.77 16.96 149.458 17.176 150.034 17.608C150.626 18.024 151.074 18.568 151.378 19.24C151.698 19.896 151.858 20.584 151.858 21.304C151.858 22.136 151.642 22.92 151.21 23.656C150.794 24.376 150.194 24.912 149.41 25.264C150.386 25.552 151.154 26.08 151.714 26.848C152.29 27.6 152.578 28.52 152.578 29.608ZM149.818 29.104C149.818 28.624 149.714 28.192 149.506 27.808C149.314 27.408 149.042 27.088 148.69 26.848C148.354 26.592 147.954 26.464 147.49 26.464H141.874V31.672H147.322C147.802 31.672 148.226 31.56 148.594 31.336C148.978 31.096 149.274 30.784 149.482 30.4C149.706 30 149.818 29.568 149.818 29.104ZM141.874 19.288V24.304H146.818C147.266 24.304 147.666 24.2 148.018 23.992C148.37 23.768 148.65 23.472 148.858 23.104C149.066 22.72 149.17 22.288 149.17 21.808C149.17 21.312 149.074 20.88 148.882 20.512C148.69 20.128 148.426 19.832 148.09 19.624C147.77 19.4 147.394 19.288 146.962 19.288H141.874ZM155.381 34V16.96H161.429C163.269 16.96 164.805 17.344 166.037 18.112C167.269 18.864 168.189 19.888 168.797 21.184C169.421 22.464 169.733 23.888 169.733 25.456C169.733 27.184 169.389 28.688 168.701 29.968C168.029 31.248 167.069 32.24 165.821 32.944C164.573 33.648 163.109 34 161.429 34H155.381ZM166.997 25.456C166.997 24.256 166.773 23.2 166.325 22.288C165.893 21.36 165.261 20.64 164.429 20.128C163.613 19.6 162.613 19.336 161.429 19.336H158.069V31.624H161.429C162.629 31.624 163.637 31.352 164.453 30.808C165.285 30.264 165.917 29.528 166.349 28.6C166.781 27.672 166.997 26.624 166.997 25.456ZM184.249 31.624V34H172.561V16.96H184.033V19.336H175.249V24.184H182.857V26.416H175.249V31.624H184.249ZM191.942 16.96H194.486L201.11 34H198.278L196.478 29.368H189.902L188.126 34H185.27L191.942 16.96ZM195.95 27.376L193.214 19.912L190.382 27.376H195.95ZM203.217 34V16.96H205.905V31.624H215.049V34H203.217Z" fill="#CCCCCC"/>
<defs>
<linearGradient id="paint0_linear_221_251" x1="46" y1="0.5" x2="46" y2="51.5" gradientUnits="userSpaceOnUse">
<stop stop-color="#7BDCB5"/>
<stop offset="1" stop-color="#00D084"/>
</linearGradient>
<linearGradient id="paint1_linear_221_251" x1="46" y1="0.5" x2="46" y2="51.5" gradientUnits="userSpaceOnUse">
<stop stop-color="#7BDCB5"/>
<stop offset="1" stop-color="#00D084"/>
</linearGradient>
<linearGradient id="paint2_linear_221_251" x1="46" y1="0.5" x2="46" y2="51.5" gradientUnits="userSpaceOnUse">
<stop stop-color="#7BDCB5"/>
<stop offset="1" stop-color="#00D084"/>
</linearGradient>
</defs>
</svg>
