<svg width="178" height="178" viewBox="0 0 178 178" fill="none" xmlns="http://www.w3.org/2000/svg">
<g filter="url(#filter0_f_240_283)">
<circle cx="89" cy="89" r="28.5" stroke="url(#paint0_linear_240_283)" stroke-width="7"/>
</g>
<g filter="url(#filter1_f_240_283)">
<circle cx="89" cy="89" r="28.5" stroke="url(#paint1_linear_240_283)" stroke-width="7"/>
</g>
<path fill-rule="evenodd" clip-rule="evenodd" d="M72.5381 68.8424C66.0651 72.6057 60.6639 75.7789 60.5353 75.8941C59.9811 76.3908 60.0001 75.8712 60.0001 90.5323C60.0001 105.297 59.9759 104.67 60.5672 105.195C60.7122 105.324 66.088 108.483 72.5136 112.215L84.1965 119H84.8056H85.4146L97.0975 112.215C103.523 108.483 108.899 105.324 109.044 105.195C109.635 104.67 109.611 105.297 109.611 90.5323C109.611 75.7677 109.635 76.3947 109.044 75.8695C108.899 75.7408 103.523 72.5821 97.0975 68.8501L85.4146 62.0646L84.8609 62.0323L84.3072 62L72.5381 68.8424ZM95.5062 71.8544L106.123 78.023V90.5323V103.042L95.5062 109.21C89.6671 112.603 84.8518 115.379 84.8056 115.379C84.7593 115.379 79.944 112.603 74.1049 109.21L63.4884 103.042V90.5323V78.0229L74.0639 71.8646C79.8805 68.4775 84.6957 65.7017 84.7646 65.696C84.8334 65.6903 89.6671 68.4617 95.5062 71.8544ZM67.9579 83.7856C67.196 84.3065 67.1978 84.2907 67.2006 90.5624L67.203 96.159L67.409 96.6153C67.9495 97.8129 69.7583 97.8846 70.3845 96.7331C70.5516 96.4261 70.58 95.9466 70.61 92.9278L70.6442 89.4738L72.1405 93.095C73.3177 95.9435 73.7182 96.7993 74.018 97.1061L74.3992 97.496L75.9203 97.5317L77.4414 97.5673L77.8177 97.3088C78.0248 97.1667 78.2864 96.8756 78.3991 96.6622L78.6042 96.2739V90.5323V84.7908L78.3991 84.4025C78.2864 84.189 78.0248 83.8971 77.8177 83.7537C77.5029 83.5357 77.3366 83.5005 76.7991 83.5384C76.2346 83.5782 76.107 83.6337 75.747 83.9957L75.3374 84.4076L75.282 88.0549L75.2267 91.7022L73.7978 88.2482C72.0536 84.0317 72.0559 84.0364 71.5904 83.747C71.2588 83.5408 71.0435 83.5129 69.7854 83.5129H68.3569L67.9579 83.7856ZM82.2853 83.7329C82.0867 83.8559 81.8254 84.1199 81.7043 84.3197L81.4842 84.6828V90.5323V96.3818L81.7043 96.745C82.012 97.2528 82.5447 97.551 83.1445 97.551C83.7442 97.551 84.277 97.2528 84.5846 96.745C84.778 96.4261 84.8048 96.1817 84.8051 94.7384L84.8056 93.095L86.8265 93.0945L88.8475 93.0942L89.2084 92.8727C90.278 92.2165 90.278 90.6308 89.2084 89.9747L88.8475 89.7532L86.8265 89.7528L84.8056 89.7524V88.3039V86.8555L87.6571 86.8552C90.8528 86.8551 91.0441 86.8167 91.5406 86.0755C91.759 85.7493 91.7944 85.5799 91.7567 85.0392C91.7172 84.4713 91.6621 84.343 91.3022 83.9807L90.8927 83.5686L86.7694 83.539L82.6462 83.5093L82.2853 83.7329ZM93.6559 83.7663C93.1717 84.0945 92.8306 84.8888 92.9344 85.4458C93.0271 85.9434 93.4837 86.503 93.9604 86.7035C94.18 86.7957 94.7365 86.8555 95.3775 86.8555H96.4331L96.4355 91.5072L96.438 96.159L96.6439 96.6153C97.2131 97.8763 99.0859 97.8763 99.6551 96.6153L99.8611 96.159L99.8636 91.5072L99.866 86.8555H100.922C101.563 86.8555 102.119 86.7957 102.339 86.7035C102.815 86.503 103.272 85.9434 103.365 85.4458C103.469 84.8888 103.127 84.0945 102.643 83.7663L102.269 83.5129H98.1495H94.0296L93.6559 83.7663Z" fill="url(#paint2_linear_240_283)"/>
<defs>
<filter id="filter0_f_240_283" x="0" y="0" width="178" height="178" filterUnits="userSpaceOnUse" color-interpolation-filters="sRGB">
<feFlood flood-opacity="0" result="BackgroundImageFix"/>
<feBlend mode="normal" in="SourceGraphic" in2="BackgroundImageFix" result="shape"/>
<feGaussianBlur stdDeviation="28.5" result="effect1_foregroundBlur_240_283"/>
</filter>
<filter id="filter1_f_240_283" x="0" y="0" width="178" height="178" filterUnits="userSpaceOnUse" color-interpolation-filters="sRGB">
<feFlood flood-opacity="0" result="BackgroundImageFix"/>
<feBlend mode="normal" in="SourceGraphic" in2="BackgroundImageFix" result="shape"/>
<feGaussianBlur stdDeviation="28.5" result="effect1_foregroundBlur_240_283"/>
</filter>
<linearGradient id="paint0_linear_240_283" x1="89" y1="64" x2="89" y2="114" gradientUnits="userSpaceOnUse">
<stop stop-color="#43DF9B"/>
<stop offset="1" stop-color="#3DBAB5"/>
</linearGradient>
<linearGradient id="paint1_linear_240_283" x1="89" y1="64" x2="89" y2="114" gradientUnits="userSpaceOnUse">
<stop stop-color="#43DF9B"/>
<stop offset="1" stop-color="#3DBAB5"/>
</linearGradient>
<linearGradient id="paint2_linear_240_283" x1="84.8056" y1="62" x2="84.8056" y2="119" gradientUnits="userSpaceOnUse">
<stop stop-color="#43DF9B"/>
<stop offset="1" stop-color="#3DBAB5"/>
</linearGradient>
</defs>
</svg>
