<?xml version="1.0" standalone="no"?>
<!DOCTYPE svg PUBLIC "-//W3C//DTD SVG 20010904//EN"
 "http://www.w3.org/TR/2001/REC-SVG-20010904/DTD/svg10.dtd">
<svg version="1.0" xmlns="http://www.w3.org/2000/svg"
 width="1600.000000pt" height="1326.000000pt" viewBox="0 0 1600.000000 1326.000000"
 preserveAspectRatio="xMidYMid meet">

<g transform="translate(0.000000,1326.000000) scale(0.100000,-0.100000)"
fill="#000000" stroke="none">
<path d="M3584 10759 c-6 -10 1 -29 27 -81 5 -10 9 -25 9 -33 0 -8 5 -15 10
-15 6 0 15 -10 20 -22 5 -13 21 -41 34 -63 14 -22 37 -65 52 -95 15 -30 37
-68 49 -85 12 -16 29 -46 38 -66 24 -53 40 -62 89 -55 24 4 63 9 88 12 25 3
49 10 55 15 5 5 39 9 75 9 38 0 71 5 78 12 15 15 16 58 1 58 -11 0 -132 82
-157 107 -7 7 -17 13 -21 13 -4 0 -16 8 -27 19 -11 10 -40 31 -65 46 -24 16
-46 31 -49 34 -3 3 -12 11 -21 16 -9 6 -42 27 -73 48 -31 20 -60 37 -65 37 -5
0 -18 11 -29 25 -11 14 -26 25 -33 25 -8 0 -27 11 -43 25 -34 29 -33 28 -42
14z m140 -109 c4 0 18 -10 31 -22 38 -36 50 -45 109 -83 31 -20 56 -40 56 -45
0 -6 5 -10 11 -10 7 0 34 -16 60 -35 27 -19 52 -35 55 -35 3 0 11 -6 18 -12 8
-7 25 -23 40 -35 14 -13 26 -27 26 -31 0 -15 -44 -30 -104 -36 -32 -3 -64 -10
-69 -15 -6 -6 -30 -11 -54 -11 -37 0 -43 3 -49 25 -3 14 -10 25 -15 25 -5 0
-9 9 -9 20 0 11 -3 20 -7 20 -5 0 -13 10 -19 23 -12 26 -80 151 -119 221 -21
38 -24 50 -14 57 8 5 20 2 30 -7 8 -7 19 -14 23 -14z"/>
<path d="M4320 10149 c-13 -18 -19 -19 -45 -9 -30 12 -101 5 -111 -11 -3 -5
-23 -9 -45 -9 -21 0 -39 -4 -39 -9 0 -5 -15 -11 -32 -13 -45 -7 -129 -29 -150
-39 -10 -5 -29 -9 -42 -9 -14 0 -27 -4 -30 -9 -3 -5 -23 -12 -43 -16 -59 -11
-77 -23 -62 -42 7 -8 22 -19 34 -24 11 -5 34 -18 50 -28 17 -11 38 -20 48 -20
9 -1 17 -5 17 -11 0 -5 11 -10 25 -10 14 0 25 -4 25 -10 0 -5 9 -10 20 -10 11
0 23 -7 26 -15 4 -8 14 -15 24 -15 11 0 22 -4 25 -10 3 -5 15 -10 25 -10 10 0
20 -3 22 -7 4 -11 67 -43 84 -43 8 0 14 -4 14 -10 0 -5 7 -10 15 -10 8 0 29
-12 45 -27 23 -20 30 -35 30 -61 0 -38 19 -102 31 -102 8 0 23 -51 19 -65 -4
-12 -17 -90 -29 -165 -5 -30 -14 -68 -20 -83 -6 -16 -11 -39 -11 -52 0 -28
-38 -61 -80 -70 -17 -4 -30 -10 -30 -15 0 -17 -63 -20 -88 -4 -19 13 -38 15
-86 9 -53 -5 -65 -3 -88 14 -23 19 -40 21 -157 21 -122 0 -131 -1 -131 -19 0
-19 57 -133 92 -183 21 -31 23 -52 6 -66 -26 -21 -86 -50 -116 -57 -18 -3 -32
-10 -32 -13 0 -4 -10 -13 -21 -20 -18 -12 -26 -11 -55 4 -27 15 -35 16 -48 5
-20 -17 -20 -45 -1 -65 8 -8 15 -25 15 -38 0 -14 9 -34 20 -46 23 -25 26 -52
5 -52 -15 0 -67 21 -75 31 -3 3 -13 8 -22 12 -9 3 -29 24 -43 47 -14 22 -29
40 -35 40 -25 0 -60 -26 -76 -56 -23 -42 -10 -74 41 -98 20 -10 39 -25 41 -34
3 -9 10 -25 15 -34 5 -10 9 -25 9 -33 0 -8 4 -23 9 -33 18 -34 39 -88 61 -157
13 -38 26 -79 31 -90 4 -11 15 -47 24 -80 17 -60 29 -95 46 -127 5 -10 9 -26
9 -37 0 -10 11 -26 25 -35 17 -11 25 -26 25 -46 0 -23 7 -33 30 -45 21 -11 33
-26 37 -47 4 -21 19 -40 50 -61 23 -17 43 -34 43 -39 0 -4 6 -8 13 -8 8 0 20
-11 27 -25 7 -14 17 -25 22 -25 4 0 8 -4 8 -10 0 -13 71 -124 82 -128 4 -2 8
-10 8 -19 0 -8 20 -42 43 -76 24 -34 47 -69 51 -77 13 -29 31 -56 66 -100 39
-49 41 -72 22 -200 -6 -36 -13 -92 -17 -126 -7 -53 -11 -62 -37 -77 -16 -9
-38 -17 -48 -17 -10 0 -22 -4 -25 -10 -3 -5 -17 -10 -31 -10 -13 0 -24 -4 -24
-10 0 -5 -8 -10 -18 -10 -10 0 -27 -7 -38 -15 -10 -8 -29 -15 -41 -15 -13 0
-23 -4 -23 -10 0 -5 -5 -10 -12 -10 -7 0 -32 -7 -55 -16 -43 -17 -43 -17 -24
-35 11 -11 27 -19 36 -19 8 0 24 -4 35 -10 49 -24 58 -28 90 -35 32 -7 41 -11
90 -35 11 -6 26 -10 35 -10 14 0 68 -21 110 -43 13 -7 20 -6 23 2 2 6 15 11
29 11 20 0 23 -3 14 -13 -14 -17 -4 -27 26 -27 12 0 23 -3 23 -8 0 -7 61 -31
92 -36 9 -1 22 -7 30 -12 7 -6 24 -11 37 -12 13 0 27 -6 31 -11 4 -8 15 -7 33
2 20 9 25 17 21 31 -5 16 -3 18 17 11 53 -17 117 -17 143 0 27 18 29 16 26
-22 -1 -13 2 -23 7 -23 15 0 67 -50 69 -67 5 -29 25 -60 48 -71 11 -5 53 -22
91 -37 128 -50 164 -64 197 -81 14 -8 38 -14 52 -14 14 0 26 -4 26 -10 0 -5 9
-10 21 -10 11 0 28 -4 37 -9 30 -15 74 -23 67 -11 -3 5 1 13 10 17 18 6 38
-14 31 -33 -5 -14 42 -38 129 -65 22 -7 47 -19 56 -26 8 -7 25 -13 37 -13 11
0 24 -4 27 -10 3 -5 15 -10 26 -10 10 0 27 -4 37 -9 9 -5 31 -14 47 -21 17 -6
43 -18 58 -26 16 -8 37 -14 47 -14 10 0 28 -12 39 -26 15 -19 21 -22 21 -11 0
9 9 21 19 26 15 8 22 6 33 -10 7 -12 38 -32 68 -45 l55 -23 -37 -1 c-20 0 -40
5 -43 10 -9 14 -72 13 -81 -2 -4 -6 3 -19 16 -30 20 -16 22 -22 12 -39 -8 -13
-9 -19 -1 -19 5 0 8 -4 5 -9 -8 -13 42 -20 195 -27 130 -7 137 -6 147 13 14
25 74 36 109 20 23 -10 28 -9 40 10 8 12 24 32 35 45 l20 23 -4 -30 c-3 -28
-1 -30 30 -29 39 2 42 -14 7 -48 -24 -24 -24 -26 -7 -46 45 -53 52 -63 52 -68
0 -11 74 -80 92 -87 12 -4 15 -12 11 -23 -5 -14 -3 -16 13 -9 22 10 284 26
296 19 21 -13 8 -28 -117 -139 -49 -44 -93 -84 -96 -89 -4 -4 -10 -3 -13 3 -4
6 -12 11 -19 11 -8 0 -8 -3 1 -12 7 -7 12 -22 12 -35 0 -21 -4 -23 -52 -23
-47 0 -54 3 -65 25 -6 14 -7 27 -2 30 16 11 -50 154 -80 173 -12 7 -21 20 -21
30 0 11 -24 30 -69 53 -59 31 -70 34 -86 22 -28 -20 -35 -16 -35 20 0 30 -5
36 -46 56 -38 19 -73 25 -200 34 -143 9 -156 9 -174 -8 -19 -17 -29 -75 -12
-75 9 0 102 -86 102 -94 0 -16 -29 -3 -61 28 -46 41 -77 51 -101 29 -10 -9
-18 -20 -18 -25 0 -13 -30 -42 -46 -44 -7 -1 -15 4 -18 12 -8 21 -26 17 -26
-6 0 -11 -4 -20 -9 -20 -19 0 -40 -205 -22 -223 6 -6 11 -21 11 -34 0 -13 5
-23 10 -23 6 0 10 -8 11 -17 0 -10 9 -31 19 -48 39 -63 99 -192 106 -228 11
-62 30 -72 135 -75 51 -1 97 -6 103 -12 5 -5 27 -10 48 -10 20 0 49 -5 63 -12
23 -10 33 -9 73 12 26 14 49 27 52 30 12 12 131 80 140 80 5 0 22 12 38 28 16
15 50 44 76 65 25 21 46 45 46 53 0 8 5 14 10 14 6 0 10 7 10 15 0 8 5 15 10
15 6 0 10 9 10 20 0 11 5 20 10 20 6 0 10 11 10 25 0 14 4 25 8 25 5 0 18 10
31 21 17 16 26 18 34 10 6 -6 19 -11 29 -11 10 0 18 -4 18 -10 0 -5 6 -10 14
-10 8 0 16 -3 18 -7 5 -11 75 -43 81 -37 13 13 -61 64 -93 64 -11 0 -20 5 -20
10 0 6 -6 10 -14 10 -8 0 -17 4 -20 9 -9 14 4 41 19 41 7 0 15 3 17 8 5 11 95
82 105 82 6 0 16 11 23 25 7 14 16 25 20 25 3 0 15 8 26 19 27 24 64 44 71 37
3 -3 1 -25 -5 -48 -6 -24 -14 -67 -17 -95 -5 -44 -3 -53 10 -53 8 0 15 8 15
18 0 9 11 33 24 53 14 20 26 51 28 70 4 40 28 46 39 9 4 -14 14 -51 24 -82 9
-32 13 -62 10 -69 -6 -8 -2 -8 13 0 11 6 22 17 25 24 7 18 3 85 -8 121 -7 27
-7 28 14 16 37 -19 78 -3 104 41 l24 40 6 -36 c8 -47 42 -75 82 -68 17 4 64
22 105 41 163 75 165 76 163 100 -3 27 23 30 31 4 6 -18 114 -52 164 -52 13 0
31 -4 41 -9 9 -5 46 -12 82 -14 69 -5 71 -7 100 -85 6 -18 27 -58 45 -89 19
-30 34 -59 34 -63 0 -20 65 -80 87 -80 22 0 23 -3 17 -42 -9 -65 -12 -70 -34
-63 -11 4 -20 2 -20 -4 0 -6 -4 -11 -10 -11 -5 0 -10 11 -10 24 0 14 -7 32
-17 41 -13 13 -14 18 -3 25 21 13 3 71 -35 114 -19 22 -35 49 -37 60 -4 25
-28 34 -28 9 0 -10 -3 -14 -8 -8 -4 6 -18 16 -32 23 -14 6 -33 17 -42 24 -15
11 -33 -3 -138 -110 -113 -116 -137 -151 -107 -153 6 -1 19 -2 27 -3 8 -2 26
-4 40 -6 14 -2 1 -6 -29 -9 -62 -7 -72 -20 -39 -51 25 -24 22 -24 -34 5 -36
18 -38 18 -58 0 -11 -10 -20 -26 -20 -37 0 -10 -4 -18 -10 -18 -5 0 -10 -9
-10 -20 0 -11 -4 -20 -10 -20 -14 0 -12 16 5 50 14 28 14 30 -2 30 -10 0 -35
-12 -56 -26 -40 -27 -184 -104 -195 -104 -15 0 186 144 223 159 6 2 15 11 21
19 9 13 -2 22 -67 55 -44 22 -79 44 -79 48 0 5 -18 9 -40 9 -22 0 -40 -4 -40
-10 0 -5 -6 -10 -14 -10 -25 0 -147 -68 -173 -97 -15 -17 -27 -23 -30 -16 -2
7 -12 9 -21 6 -45 -14 -109 -47 -129 -65 -12 -11 -27 -17 -33 -13 -12 7 -181
-76 -219 -109 -69 -59 -130 -128 -149 -170 -26 -53 -28 -76 -8 -76 8 0 27 -5
41 -10 l27 -10 -28 -22 c-16 -12 -33 -28 -37 -36 -5 -7 -21 -12 -35 -10 -25 3
-27 0 -30 -41 -3 -41 1 -58 36 -141 8 -19 18 -45 23 -57 25 -63 32 -79 40 -93
5 -8 12 -23 15 -32 4 -10 10 -18 15 -18 5 0 9 -9 9 -20 0 -11 4 -20 9 -20 4 0
31 -18 59 -40 27 -22 55 -40 61 -40 6 0 11 -4 11 -8 0 -4 16 -14 35 -21 19 -7
35 -17 35 -22 0 -5 6 -9 14 -9 8 0 16 -7 20 -15 3 -8 12 -15 21 -15 8 0 15 -3
15 -7 0 -8 48 -33 63 -33 4 0 6 4 3 9 -6 8 26 51 38 51 13 0 5 -23 -11 -36
-17 -12 -17 -13 1 -20 10 -4 33 -2 50 4 18 7 60 12 94 12 33 0 64 4 67 10 3 5
26 10 50 10 24 0 55 5 69 11 33 15 56 -2 56 -42 0 -15 5 -31 10 -34 6 -3 10
-21 10 -40 0 -19 5 -37 10 -40 6 -3 10 -19 10 -34 0 -15 7 -36 15 -47 8 -10
15 -25 15 -32 0 -14 68 -81 82 -82 4 0 13 -6 20 -12 19 -18 69 -48 91 -55 9
-3 17 -10 17 -15 0 -5 10 -7 23 -4 12 3 16 3 9 0 -9 -4 -5 -13 15 -30 15 -13
31 -24 36 -24 4 0 7 -7 7 -16 0 -8 5 -12 11 -8 8 4 8 9 0 17 -19 19 -12 28 18
24 16 -3 38 1 49 8 10 8 38 14 61 13 27 0 47 5 52 13 6 10 10 6 15 -16 10 -52
118 -110 139 -75 3 6 25 10 49 10 23 0 46 4 51 9 6 5 36 12 68 16 l57 6 0
-100 c0 -98 1 -100 31 -130 17 -17 35 -31 40 -31 5 0 9 -3 9 -7 0 -5 23 -32
50 -62 39 -43 50 -62 52 -95 3 -40 4 -41 38 -40 19 1 60 11 90 23 46 18 76 21
185 21 l130 0 39 34 c21 19 50 40 65 47 50 26 171 145 171 168 0 5 16 22 36
39 24 21 34 37 30 47 -5 14 -10 12 -31 -11 l-25 -27 6 32 c6 27 3 33 -15 38
-27 7 -27 14 4 37 14 11 24 25 21 33 -4 9 5 13 29 13 22 0 35 5 35 13 0 7 9
18 20 25 18 11 20 10 20 -8 0 -11 -4 -20 -10 -20 -19 0 -10 -19 23 -50 29 -28
30 -32 15 -41 -10 -5 -18 -16 -18 -24 0 -19 36 -28 103 -26 34 1 57 -2 57 -8
0 -6 7 -11 15 -11 8 0 23 -4 33 -9 9 -5 33 -16 52 -24 19 -8 48 -21 64 -28 23
-11 30 -11 33 -1 3 6 11 12 19 12 8 0 22 9 31 19 9 11 22 17 28 14 7 -2 16 0
20 6 3 6 15 11 26 11 10 0 19 3 19 8 0 4 29 21 65 37 36 17 65 33 65 38 0 4 7
7 15 7 28 0 65 71 65 125 0 45 -3 52 -29 68 -40 23 -38 66 2 86 27 13 30 13
53 -12 14 -15 20 -27 14 -27 -5 0 -10 -7 -10 -15 0 -12 13 -14 73 -11 79 4
104 11 128 35 9 9 33 30 55 46 45 35 84 75 84 86 0 4 8 10 18 13 17 6 30 35
62 144 11 34 18 42 38 42 13 0 38 -10 55 -22 29 -21 45 -23 173 -25 162 -3
173 1 180 67 3 25 10 47 15 48 5 2 9 9 9 15 0 7 11 24 25 39 34 37 65 94 65
121 0 12 7 42 16 66 15 45 11 156 -7 167 -5 3 -9 20 -9 38 0 17 -5 37 -11 43
-5 5 -9 32 -7 59 3 49 3 49 40 52 32 3 39 -1 52 -25 8 -16 17 -45 21 -65 4
-20 15 -45 26 -57 10 -11 19 -24 19 -28 1 -13 104 -119 124 -126 15 -6 18 -14
13 -47 -5 -38 -4 -40 40 -65 86 -47 195 -28 228 42 21 44 19 82 -10 139 -27
54 -29 66 -16 92 36 71 61 163 61 227 0 28 4 55 9 60 5 6 11 48 14 95 7 123
20 168 53 193 32 25 71 64 237 237 95 99 116 126 112 144 -5 17 -4 18 4 6 10
-13 14 -11 31 10 11 14 20 31 20 38 0 6 3 12 8 12 4 0 21 20 37 45 17 24 33
45 38 45 4 0 7 6 7 13 0 7 11 24 25 39 14 15 25 32 25 38 0 5 5 10 10 10 6 0
10 5 10 11 0 6 9 23 20 39 11 15 18 29 16 31 -2 2 -7 22 -10 44 -4 22 -14 45
-22 52 -14 10 -14 14 5 35 12 12 30 23 39 23 12 0 19 13 25 47 9 47 9 48 27
26 16 -20 20 -21 59 -10 23 7 45 11 50 8 12 -8 71 14 71 26 0 5 5 6 10 3 6 -3
13 1 16 9 3 9 10 16 16 16 5 0 21 11 36 25 15 15 35 24 45 21 10 -2 17 2 17
11 0 10 6 13 16 9 22 -8 49 22 46 51 -2 16 2 23 12 23 9 0 16 5 16 10 0 6 5
10 10 10 6 0 10 -9 10 -20 0 -11 1 -20 3 -20 3 0 180 90 277 141 25 13 46 27
48 32 2 4 12 7 23 7 10 0 19 3 19 8 0 10 58 42 76 42 8 0 14 3 14 8 0 4 9 12
19 17 11 6 36 19 58 30 21 10 68 38 106 62 37 24 69 43 72 43 3 0 28 15 57 33
88 53 112 67 141 80 15 6 27 15 27 19 0 4 6 8 14 8 8 0 16 3 18 8 2 4 28 19
58 35 30 15 73 43 95 62 22 19 45 35 52 35 7 0 13 5 13 10 0 6 7 10 15 10 8 0
15 3 15 8 0 4 16 16 35 26 19 11 35 23 35 28 0 4 5 8 11 8 6 0 33 16 59 35 26
19 53 35 59 35 6 0 11 4 11 8 0 5 16 17 35 28 19 10 35 26 35 36 0 10 5 15 13
12 7 -2 32 16 55 41 23 25 62 55 87 67 25 12 45 26 45 30 0 4 7 8 15 8 8 0 15
5 15 10 0 6 6 10 14 10 7 0 19 6 25 14 7 8 36 26 66 41 30 14 55 30 55 35 0 4
16 15 36 25 37 17 40 29 20 76 -5 11 3 27 23 47 18 17 31 41 31 55 0 24 16 37
47 37 8 0 23 10 33 23 15 18 22 20 37 11 21 -13 43 3 43 31 0 35 44 96 145
199 121 123 122 132 23 147 -137 22 -164 43 -159 127 2 26 4 111 4 190 2 130
0 145 -17 157 -10 8 -23 16 -29 18 -16 5 44 67 65 67 10 0 18 5 18 10 0 6 7
10 15 10 9 0 41 16 71 35 30 19 59 35 64 35 6 0 10 4 10 9 0 5 9 13 20 16 36
11 22 39 -35 70 -30 16 -55 33 -55 37 0 4 -9 8 -20 8 -11 0 -20 3 -20 8 0 4
-14 13 -30 20 -17 8 -36 19 -43 25 -6 7 -33 23 -59 36 -42 21 -48 22 -62 8 -9
-9 -16 -23 -16 -31 0 -24 -24 -19 -48 9 -23 26 -30 79 -12 90 5 3 10 19 10 36
0 36 -29 40 -63 8 -12 -12 -38 -33 -57 -47 -19 -14 -58 -48 -87 -74 -57 -52
-73 -56 -132 -31 -39 17 -77 65 -66 83 3 5 -1 26 -10 46 -8 20 -15 38 -15 39
0 2 16 9 35 15 40 13 47 43 18 78 -36 42 -49 58 -78 97 -17 22 -38 49 -47 59
-10 11 -18 23 -18 28 0 4 -5 8 -10 8 -6 0 -26 16 -44 35 -19 19 -41 35 -50 35
-9 0 -16 3 -16 8 0 11 -51 32 -80 32 -15 0 -35 9 -45 20 -10 11 -32 24 -49 28
-37 10 -42 28 -28 96 6 28 16 80 22 116 6 36 16 92 21 125 6 33 13 90 15 128
5 58 3 67 -11 67 -15 0 -374 -354 -410 -404 -20 -27 -3 -53 37 -59 18 -3 62
-12 98 -20 113 -25 144 -44 116 -72 -24 -24 -69 -28 -110 -11 -21 9 -54 16
-72 16 l-34 0 0 -52 c-1 -59 -17 -88 -48 -88 -27 0 -34 34 -26 115 7 72 -3 95
-42 95 -12 0 -29 -7 -38 -15 -8 -8 -22 -15 -30 -15 -9 0 -16 -4 -16 -10 0 -5
-6 -10 -14 -10 -8 0 -16 -3 -18 -7 -5 -12 -86 -63 -100 -63 -17 -1 -58 -35
-58 -49 0 -6 -9 -11 -20 -11 -14 0 -18 -5 -13 -17 4 -11 3 -14 -6 -9 -17 11
-121 -34 -121 -52 0 -13 3 -12 18 1 10 10 22 17 27 17 5 0 -1 -9 -13 -20 -12
-11 -25 -20 -31 -20 -5 0 -11 -3 -13 -7 -1 -5 -21 -16 -43 -26 -24 -10 -33
-12 -22 -4 25 20 21 27 -8 14 -14 -7 -23 -18 -20 -25 2 -7 -3 -16 -12 -19 -9
-4 -19 -1 -21 5 -2 7 -8 10 -12 7 -5 -3 -7 -12 -4 -19 3 -7 -2 -16 -10 -19 -9
-4 -16 -11 -16 -17 0 -6 4 -8 10 -5 5 3 17 2 25 -2 11 -7 -1 -17 -50 -43 -36
-19 -65 -40 -65 -47 0 -7 -20 -21 -45 -32 -26 -11 -45 -27 -45 -36 0 -8 -12
-20 -27 -26 -15 -5 -41 -24 -58 -42 -18 -18 -66 -63 -109 -101 -59 -54 -76
-75 -76 -96 0 -24 -4 -28 -40 -33 -84 -11 -94 -53 -22 -89 69 -35 163 -88 194
-109 14 -11 31 -19 37 -19 6 0 11 -4 11 -10 0 -13 -15 -13 -38 -1 -26 15 -123
57 -162 72 -19 7 -46 21 -59 31 -28 21 -81 24 -81 5 0 -7 -22 -23 -50 -34 -35
-15 -50 -27 -50 -40 0 -11 -7 -28 -15 -39 -14 -18 -14 -18 -15 6 -1 54 -10 55
-115 21 -54 -17 -104 -31 -111 -31 -8 0 -14 -4 -14 -10 0 -5 -11 -10 -25 -10
-14 0 -33 -4 -43 -9 -9 -5 -35 -14 -57 -20 -22 -7 -53 -19 -70 -26 -116 -52
-194 -82 -238 -91 -11 -2 -24 -8 -27 -14 -4 -6 -17 -12 -28 -13 -23 -1 -31
-17 -10 -17 9 0 9 -3 1 -11 -6 -6 -21 -8 -33 -4 -15 5 -19 10 -11 14 11 7 -87
81 -108 81 -5 0 -14 7 -21 15 -7 9 -18 14 -23 12 -6 -2 -22 7 -35 20 -26 24
-32 28 -118 74 -27 15 -67 41 -88 58 -25 20 -46 29 -58 25 -10 -3 -18 0 -18 6
0 6 5 8 12 4 7 -4 8 -3 4 4 -4 7 -13 12 -20 12 -8 0 -19 7 -26 15 -11 14 -15
14 -37 -1 -18 -11 -28 -13 -36 -5 -6 6 -29 11 -51 12 -37 0 -39 1 -18 11 13 7
22 20 22 35 0 22 -8 27 -41 24 -9 -1 -20 8 -23 21 -5 14 -9 18 -13 11 -8 -21
-33 -15 -33 7 0 11 -5 20 -11 20 -5 0 -7 -4 -4 -10 3 -5 1 -10 -5 -10 -7 0
-14 9 -17 20 -4 15 -11 18 -29 14 -18 -5 -24 -2 -24 10 0 12 -6 15 -25 10 -21
-5 -25 -3 -26 17 0 13 -3 19 -5 13 -3 -7 -14 -10 -24 -7 -11 3 -17 9 -14 14 3
5 -6 9 -19 9 -14 0 -28 7 -31 15 -10 26 -41 1 -56 -44 -7 -23 -17 -41 -22 -41
-11 0 -10 37 2 60 7 14 6 20 -7 25 -10 3 -19 1 -21 -4 -2 -6 -19 -11 -38 -11
-26 0 -32 3 -27 16 3 8 19 18 34 21 41 8 44 19 9 35 -16 7 -30 16 -30 20 0 5
-4 8 -10 8 -5 0 -10 -13 -10 -30 0 -38 -21 -39 -49 -4 -22 28 -20 44 5 44 22
0 17 16 -6 17 -11 1 -27 9 -36 17 -8 9 -21 16 -27 16 -7 0 -28 14 -47 30 -19
16 -39 30 -43 30 -4 0 -25 18 -47 40 -43 44 -67 49 -111 23 -23 -14 -29 -25
-29 -50 0 -18 5 -33 10 -33 6 0 10 -11 10 -23 0 -22 -7 -28 -62 -55 -12 -6 -9
63 2 74 6 6 11 34 13 63 3 78 -11 83 -115 42 -123 -49 -166 -69 -173 -80 -3
-6 12 -45 35 -86 22 -42 39 -86 39 -98 -1 -21 -2 -21 -6 -2 -3 11 -8 22 -12
25 -11 9 -41 71 -41 86 0 8 -4 14 -10 14 -5 0 -10 7 -10 15 0 8 -8 18 -17 23
-21 11 -83 4 -83 -9 0 -5 -10 -9 -23 -9 -13 0 -27 -4 -32 -9 -6 -4 -35 -16
-65 -27 -30 -10 -59 -22 -65 -26 -5 -4 -16 -8 -25 -8 -8 0 -26 -7 -38 -16 -18
-13 -21 -19 -11 -30 15 -18 3 -32 -13 -16 -28 28 -139 -2 -217 -57 -16 -12
-32 -16 -37 -11 -5 5 -26 5 -49 0 -22 -6 -52 -12 -67 -15 -14 -3 -40 -17 -57
-31 -24 -20 -31 -22 -31 -10 0 20 -6 20 -100 1 -41 -8 -100 -20 -130 -26 -211
-42 -255 -52 -261 -62 -8 -11 0 -47 10 -47 4 0 24 -23 46 -51 21 -28 53 -67
71 -87 19 -20 34 -40 34 -43 0 -15 36 -45 49 -41 17 6 51 39 51 50 0 5 15 24
33 43 19 19 42 47 52 63 11 16 21 24 22 19 4 -10 -16 -36 -59 -83 -9 -10 -14
-21 -11 -24 4 -3 1 -6 -5 -6 -7 0 -12 -6 -12 -14 0 -7 -7 -19 -15 -26 -21 -18
-19 -40 5 -40 11 0 20 -4 20 -10 0 -5 -8 -10 -18 -10 -21 0 -24 -41 -4 -48 7
-2 12 -9 12 -16 0 -7 9 -21 20 -31 11 -10 20 -23 20 -28 0 -5 12 -20 26 -34
14 -13 24 -28 22 -34 -4 -12 -32 13 -73 66 -35 44 -66 75 -76 75 -7 0 -12 -29
-29 -155 -9 -75 -19 -133 -45 -285 -31 -178 -35 -205 -43 -275 -5 -39 -14 -80
-20 -92 -7 -12 -12 -51 -12 -87 0 -36 -5 -68 -10 -71 -6 -4 -8 -11 -5 -16 8
-12 45 -12 45 1 0 6 7 10 15 10 18 0 19 -12 3 -28 -9 -9 -6 -14 13 -21 l24
-10 -25 0 c-14 -1 -35 -8 -46 -16 -23 -15 -22 -40 5 -124 6 -19 8 -38 5 -43
-3 -4 2 -15 10 -24 18 -17 21 -50 6 -59 -5 -3 -12 7 -15 22 -4 15 -10 36 -16
45 -5 10 -9 25 -9 33 0 9 -8 27 -17 42 l-17 26 -12 -34 c-7 -19 -13 -45 -13
-60 -1 -14 -19 -80 -41 -148 -22 -67 -40 -128 -40 -136 0 -11 -20 -25 -36 -25
-7 0 -4 36 4 46 12 13 43 131 56 209 2 17 10 49 17 72 13 43 5 71 -12 41 -5
-9 -16 -24 -25 -32 -9 -10 -13 -25 -8 -43 4 -22 3 -25 -5 -13 -11 15 -12 13
-14 -30 -1 -14 -7 -24 -14 -23 -7 2 -13 -5 -13 -15 0 -11 -9 -29 -20 -42 -11
-13 -20 -28 -20 -35 0 -18 -104 -117 -147 -141 -69 -37 -123 -74 -123 -84 0
-6 13 -10 29 -10 16 0 31 -6 35 -15 3 -9 18 -15 36 -15 32 0 37 -9 18 -28 -18
-18 -42 -14 -56 9 -11 17 -22 20 -70 19 -84 -2 -82 -3 -82 35 0 19 -6 49 -14
67 -49 114 -47 110 -71 104 -13 -3 -34 -2 -47 3 l-23 9 28 12 c36 17 34 42 -3
58 -16 8 -30 21 -30 30 1 15 2 15 13 2 16 -20 53 -40 72 -40 8 0 17 12 20 28
8 35 24 95 41 150 21 65 18 98 -11 120 -14 11 -25 26 -25 34 0 29 -24 38 -104
38 -90 0 -96 10 -9 16 51 3 61 8 86 36 30 36 33 49 15 78 -17 26 -6 33 26 18
21 -9 32 -9 47 0 10 7 24 12 30 12 23 0 39 31 54 101 8 41 20 94 25 119 6 25
11 70 11 100 1 30 6 61 12 68 6 7 7 41 4 85 -4 39 -7 143 -8 230 -1 153 -5
197 -18 197 -3 0 -19 -21 -36 -45 -16 -25 -33 -45 -37 -45 -5 0 -8 -4 -8 -10
0 -6 -8 -18 -17 -28 -25 -27 -49 -57 -69 -87 -9 -14 -18 -24 -20 -22 -6 5 25
65 37 72 5 4 28 34 50 67 41 60 62 88 87 113 6 8 12 21 12 30 0 8 -6 17 -12
19 -66 19 -140 37 -228 54 l-105 21 -80 -33 c-44 -19 -108 -46 -143 -62 l-63
-29 6 -55 c16 -133 17 -162 6 -156 -6 4 -11 19 -11 34 0 15 -7 36 -15 46 -8
11 -15 34 -15 52 0 18 -4 36 -10 39 -5 3 -10 14 -10 24 0 12 -16 26 -45 40
-25 12 -48 21 -52 21 -9 0 -63 -86 -63 -100 0 -6 -4 -10 -10 -10 -5 0 -10 -7
-10 -15 0 -8 -3 -15 -8 -15 -7 0 -25 -30 -38 -62 -3 -10 -10 -18 -15 -18 -12
0 -12 -63 0 -75 4 -6 11 -27 14 -47 4 -28 2 -38 -8 -38 -7 0 -15 -7 -19 -15
-3 -9 -18 -15 -36 -15 -16 0 -30 -4 -30 -10 0 -5 -4 -10 -10 -10 -5 0 -10 8
-10 18 0 21 -29 52 -48 52 -15 0 -15 5 3 40 18 34 12 53 -21 70 -13 7 -24 17
-24 22 0 4 -6 8 -13 8 -7 0 -24 11 -39 25 -15 14 -32 25 -38 25 -5 0 -10 5
-10 10 0 6 -6 10 -13 10 -7 0 -32 16 -54 35 -23 19 -46 35 -52 35 -6 0 -11 5
-11 10 0 6 -6 10 -13 10 -7 0 -24 11 -39 25 -15 14 -31 25 -36 25 -4 0 -26 16
-48 36 -35 33 -45 37 -92 36 -46 0 -52 2 -47 18 8 26 -4 50 -26 50 -10 0 -19
3 -19 8 0 4 -29 21 -65 37 -35 17 -64 34 -65 38 0 11 44 -3 48 -14 2 -5 9 -9
16 -9 7 0 36 -12 65 -26 53 -27 65 -25 74 11 4 19 5 19 6 -1 0 -12 8 -25 17
-28 21 -8 65 4 58 15 -3 5 2 9 10 9 9 0 16 3 16 8 0 4 10 12 23 18 51 25 92
50 116 72 14 12 29 22 32 22 20 0 17 37 -7 73 l-26 40 22 21 c20 20 22 20 34
4 8 -11 20 -15 34 -11 22 5 31 33 11 33 -5 0 -7 5 -4 10 4 6 3 10 -2 9 -20 -3
-34 3 -57 26 -14 14 -32 25 -41 25 -8 0 -15 4 -15 9 0 8 -23 18 -64 27 -10 2
-24 0 -31 -6 -8 -7 -35 13 -94 70 -45 44 -87 80 -93 80 -7 0 -8 -13 -4 -37 23
-124 33 -283 18 -283 -7 0 -27 104 -41 215 -4 28 -12 59 -18 69 -10 18 -13 16
-33 -25 -12 -24 -42 -72 -66 -107 -24 -35 -44 -67 -44 -72 0 -6 -4 -10 -10
-10 -5 0 -10 -7 -10 -15 0 -8 -4 -15 -10 -15 -5 0 -10 11 -10 25 0 14 5 25 10
25 6 0 10 9 10 20 0 11 3 20 8 20 4 0 20 27 37 60 16 33 32 60 35 60 4 0 12
16 20 35 8 19 17 35 22 35 13 0 28 38 22 54 -3 8 -13 18 -22 21 -10 3 -33 18
-52 35 -19 16 -38 30 -41 30 -3 0 -21 14 -39 30 -18 17 -38 30 -43 30 -10 0
-90 61 -95 72 -2 5 -12 8 -23 8 -10 0 -19 4 -19 8 0 4 -14 16 -32 26 -31 19
-58 39 -84 64 -8 7 -16 25 -19 40 -17 86 -35 115 -80 132 -37 14 -68 12 -101
-5 -41 -21 -53 -19 -118 20 -32 19 -61 35 -63 35 -3 0 -19 10 -36 23 -18 12
-47 30 -65 40 -19 10 -43 26 -53 36 -11 10 -32 24 -47 32 -15 8 -29 16 -32 19
-10 10 -45 31 -62 36 -10 4 -18 10 -18 15 0 5 -9 9 -20 9 -11 0 -20 5 -20 10
0 6 -6 10 -13 10 -7 0 -24 11 -39 25 -15 14 -34 25 -43 25 -8 0 -15 5 -15 10
0 6 -5 10 -10 10 -6 0 -16 5 -23 10 -57 48 -74 60 -89 60 -9 0 -18 3 -20 8 -4
9 -77 56 -100 65 -10 3 -18 10 -18 15 0 4 -16 14 -35 22 -19 8 -35 17 -35 20
0 4 -11 12 -25 18 -19 9 -30 9 -45 0 -14 -9 -25 -9 -47 2 -15 8 -30 15 -33 17
-3 1 -12 -7 -20 -18z m9642 -302 c-11 -22 -18 -66 -28 -182 -3 -33 -10 -64
-15 -69 -5 -6 -9 -20 -9 -33 0 -32 -40 -51 -75 -35 -14 7 -46 12 -70 12 -48 0
-105 27 -105 50 0 8 34 47 76 85 41 39 109 103 151 144 72 69 100 80 75 28z
m-8453 -345 c60 -31 141 -99 141 -117 0 -4 -11 -5 -25 -3 -29 6 -40 -16 -30
-62 4 -19 3 -30 -4 -30 -6 0 -11 6 -11 13 0 7 -9 18 -19 24 -17 11 -23 8 -45
-19 l-24 -32 -7 38 c-7 36 -8 36 -31 21 -34 -22 -41 -19 -36 15 4 28 2 30 -28
30 -32 0 -32 0 -16 23 29 39 30 50 9 67 -17 14 -18 18 -6 26 8 5 15 18 16 30
1 27 31 21 116 -24z m-1077 -36 c7 -8 22 -26 33 -42 11 -15 32 -43 48 -62 28
-36 34 -52 17 -52 -11 0 -50 40 -50 51 0 4 -18 27 -40 50 -38 41 -51 69 -31
69 5 0 16 -6 23 -14z m9064 -48 c4 -6 9 -38 11 -70 4 -51 2 -58 -14 -58 -11 0
-23 -4 -28 -8 -6 -5 -44 -15 -85 -22 -41 -7 -92 -19 -114 -27 -45 -15 -86 -17
-86 -4 0 12 28 41 39 41 5 0 23 14 41 32 19 18 57 43 84 57 28 13 53 27 56 30
10 11 65 40 77 41 6 0 15 -5 19 -12z m-9064 -92 c28 -38 27 -61 -3 -64 -23 -3
-27 1 -33 32 -4 20 -14 40 -24 45 -14 9 -12 10 13 10 20 0 36 -7 47 -23z
m9678 0 c0 -30 -20 -47 -48 -39 -26 6 -28 20 -5 45 24 26 53 23 53 -6z m-9727
-82 c9 -9 -4 -35 -14 -28 -5 3 -9 12 -9 20 0 14 12 19 23 8z m153 -76 c-10
-37 -16 -43 -46 -49 -31 -7 -54 -25 -63 -52 -5 -16 -67 15 -67 33 1 20 24 50
39 50 6 0 11 4 11 8 0 15 116 63 132 55 4 -2 1 -22 -6 -45z m82 -20 c7 -7 12
-29 12 -49 0 -29 -7 -43 -31 -63 -17 -14 -39 -26 -50 -26 -10 0 -28 -9 -39
-20 -28 -28 -54 -27 -46 3 3 12 6 25 6 29 0 4 10 8 22 10 13 2 29 16 38 33 8
16 25 40 38 54 12 14 22 29 22 33 0 12 14 10 28 -4z m-348 -44 c0 -17 -44 -64
-59 -64 -12 0 -21 27 -15 43 5 13 40 34 62 36 6 0 12 -6 12 -15z m1507 -256
c-3 -7 -5 -2 -5 12 0 14 2 19 5 13 2 -7 2 -19 0 -25z m-650 2 c-3 -11 -2 -20
2 -20 7 0 31 -58 31 -74 0 -4 -8 -5 -19 -1 -12 3 -21 0 -25 -10 -8 -23 -31
-18 -44 10 -7 16 -17 23 -27 19 -12 -5 -15 3 -15 41 0 45 1 47 25 43 14 -3 28
-1 31 3 3 5 14 9 26 9 15 0 19 -5 15 -20z m4683 -30 c0 -16 -4 -30 -10 -30
-11 0 -14 43 -3 53 11 12 13 8 13 -23z m-4013 -12 c-3 -8 -6 -5 -6 6 -1 11 2
17 5 13 3 -3 4 -12 1 -19z m641 0 c12 -12 17 -48 7 -48 -14 0 -46 40 -40 49 8
14 18 14 33 -1z m-1615 -54 c29 -9 20 -49 -19 -86 -20 -18 -55 -50 -78 -71
-22 -21 -60 -56 -83 -78 -23 -21 -45 -39 -50 -39 -4 0 -26 -16 -48 -35 -22
-19 -46 -35 -53 -35 -14 0 -42 24 -42 36 0 12 -54 119 -62 122 -4 2 -8 12 -8
23 0 10 -4 19 -10 19 -5 0 -10 7 -10 15 0 9 -12 34 -27 56 -26 40 -27 42 -8
55 13 10 54 14 139 15 67 1 155 5 196 9 72 7 124 5 163 -6z m4960 -19 c-7 -21
-13 -19 -13 6 0 11 4 18 10 14 5 -3 7 -12 3 -20z m-3843 -6 c0 -11 -4 -18 -10
-14 -5 3 -7 12 -3 20 7 21 13 19 13 -6z m3710 0 c0 -5 -4 -9 -10 -9 -5 0 -10
7 -10 16 0 8 5 12 10 9 6 -3 10 -10 10 -16z m3270 -5 c0 -17 -36 -32 -52 -23
-29 16 -21 29 17 29 19 0 35 -3 35 -6z m2175 -6 c29 -13 31 -21 9 -43 -34 -34
-84 4 -54 40 15 18 13 18 45 3z m-9183 -30 c-7 -7 -12 -8 -12 -2 0 14 12 26
19 19 2 -3 -1 -11 -7 -17z m6818 13 c0 -4 -19 -8 -42 -9 -27 -2 -38 1 -30 6
16 11 72 13 72 3z m-100 -11 c8 -5 12 -11 9 -14 -8 -9 -169 -13 -169 -5 0 7
84 26 125 28 11 0 27 -3 35 -9z m-9350 -36 c0 -8 5 -14 10 -14 6 0 10 -4 10
-10 0 -16 -47 -12 -65 6 -11 12 -13 20 -5 29 13 16 50 8 50 -11z m2939 -42
c-1 -47 -3 -52 -9 -27 -12 45 -12 97 0 90 6 -3 9 -32 9 -63z m3538 46 c-3 -8
-6 -5 -6 6 -1 11 2 17 5 13 3 -3 4 -12 1 -19z m-3862 -15 c4 -19 2 -29 -9 -35
-10 -6 -16 -24 -17 -51 l-2 -42 -6 45 c-4 25 -9 50 -13 55 -9 15 9 55 26 55 7
0 17 -12 21 -27z m3052 5 c-3 -8 -6 -5 -6 6 -1 11 2 17 5 13 3 -3 4 -12 1 -19z
m6039 -6 c-18 -18 -31 -10 -23 12 4 10 13 13 22 9 15 -5 15 -7 1 -21z m-6289
-14 c-3 -8 -6 -5 -6 6 -1 11 2 17 5 13 3 -3 4 -12 1 -19z m3873 2 c0 -5 -4
-10 -10 -10 -5 0 -10 5 -10 10 0 6 5 10 10 10 6 0 10 -4 10 -10z m-3893 -32
c-3 -8 -6 -5 -6 6 -1 11 2 17 5 13 3 -3 4 -12 1 -19z m4971 -32 c-4 -50 -23
-57 -62 -21 -31 29 -30 48 2 53 12 2 22 7 22 12 0 4 9 6 21 3 17 -5 20 -12 17
-47z m-3897 22 c25 -30 24 -32 -14 -50 -31 -15 -34 -15 -44 1 -11 18 -1 48 21
63 15 11 16 11 37 -14z m-3771 -12 c0 -2 -9 -2 -20 1 -11 3 -20 9 -20 15 0 5
9 4 20 -2 11 -6 20 -12 20 -14z m2680 -6 c0 -11 -7 -20 -15 -20 -13 0 -13 3
-3 20 7 11 14 20 15 20 2 0 3 -9 3 -20z m-2640 -10 c0 -5 -7 -10 -16 -10 -8 0
-12 5 -9 10 3 6 10 10 16 10 5 0 9 -4 9 -10z m2960 -15 c0 -14 -4 -25 -10 -25
-5 0 -10 11 -10 25 0 14 5 25 10 25 6 0 10 -11 10 -25z m-366 -40 c-4 -8 -7
-15 -9 -15 -2 0 -5 7 -9 15 -3 9 0 15 9 15 9 0 12 -6 9 -15z m-3211 -32 c7 -9
5 -13 -7 -13 -11 0 -16 8 -15 28 0 15 3 21 6 12 3 -8 10 -21 16 -27z m-1434
-108 c13 -13 14 -17 2 -24 -16 -10 -71 6 -71 20 0 5 -7 9 -15 9 -8 0 -12 6 -9
14 7 17 69 5 93 -19z m2291 -89 c-7 -7 -10 12 -9 50 l1 59 9 -50 c5 -30 4 -54
-1 -59z m5842 92 c-9 -9 -15 -9 -24 0 -9 9 -7 12 12 12 19 0 21 -3 12 -12z
m234 -25 c-11 -11 -19 6 -11 24 8 17 8 17 12 0 3 -10 2 -21 -1 -24z m-4786
-28 c0 -8 -4 -15 -10 -15 -5 0 -7 7 -4 15 4 8 8 15 10 15 2 0 4 -7 4 -15z
m2672 -28 c-3 -12 -15 -35 -26 -50 -19 -26 -22 -27 -33 -11 -14 20 -3 50 30
76 26 20 37 15 29 -15z m4578 -12 c0 -18 -5 -25 -19 -25 -11 0 -23 5 -26 10
-11 18 3 40 25 40 15 0 20 -7 20 -25z m-7520 -5 c0 -11 -7 -20 -15 -20 -15 0
-21 21 -8 33 12 13 23 7 23 -13z m1770 -20 c0 -11 -4 -20 -10 -20 -5 0 -10 2
-10 4 0 2 -3 11 -6 20 -4 11 -1 16 10 16 9 0 16 -8 16 -20z m-1980 -25 c0 -31
-35 -35 -43 -6 -6 24 0 31 25 31 13 0 18 -7 18 -25z m5387 -11 c-3 -3 -12 -4
-19 -1 -8 3 -5 6 6 6 11 1 17 -2 13 -5z m-8293 -75 c14 -44 17 -67 10 -86 -9
-27 -68 -68 -134 -92 -19 -7 -44 -17 -55 -22 -36 -16 -159 -61 -182 -66 -14
-3 -23 -1 -23 6 0 15 57 72 91 91 51 29 144 93 151 104 4 6 8 25 8 41 0 30 10
43 58 77 37 25 55 13 76 -53z m7416 51 c0 -5 -2 -10 -4 -10 -3 0 -8 5 -11 10
-3 6 -1 10 4 10 6 0 11 -4 11 -10z m598 -65 c3 -22 0 -27 -13 -21 -9 3 -21 6
-26 6 -14 0 -11 38 4 43 22 9 32 1 35 -28z m-1411 -37 c-3 -8 -6 -5 -6 6 -1
11 2 17 5 13 3 -3 4 -12 1 -19z m-2160 -40 c-3 -8 -6 -5 -6 6 -1 11 2 17 5 13
3 -3 4 -12 1 -19z m-1377 -26 c0 -21 -2 -24 -10 -12 -13 20 -13 53 0 45 6 -3
10 -18 10 -33z m-2890 -37 c7 -8 17 -15 23 -15 14 0 74 -66 92 -100 14 -27 13
-29 -5 -35 -10 -3 -34 -3 -53 0 -30 6 -37 3 -54 -22 -20 -28 -41 -90 -50 -151
-3 -18 -13 -36 -22 -41 -15 -8 -122 18 -163 40 -10 5 -31 9 -47 9 -17 0 -33 5
-36 10 -3 6 -15 10 -25 10 -20 0 -61 16 -147 58 -49 24 -51 27 -32 40 22 15
41 17 87 7 27 -6 32 -5 32 11 0 21 35 48 51 39 5 -4 23 7 40 24 31 32 54 37
142 32 46 -3 82 19 92 56 10 43 50 58 75 28z m6460 -69 c8 -6 30 -10 48 -9 32
0 32 0 17 -23 -21 -33 -19 -40 21 -65 l36 -22 -28 -12 c-38 -17 -58 -51 -56
-100 0 -22 -1 -34 -4 -27 -3 6 -12 12 -20 12 -8 0 -14 4 -14 9 0 5 -13 11 -30
13 -22 3 -36 -2 -52 -19 l-22 -24 -18 36 c-15 29 -24 35 -49 35 -26 0 -30 3
-24 18 21 49 32 138 21 165 -6 13 -4 17 10 17 11 0 25 -4 33 -9 22 -14 61 8
61 34 0 34 11 37 33 7 12 -15 28 -31 37 -36z m-4990 40 c0 -8 -4 -18 -10 -21
-5 -3 -10 3 -10 14 0 12 5 21 10 21 6 0 10 -6 10 -14z m1765 4 c3 -5 1 -10 -4
-10 -6 0 -11 5 -11 10 0 6 2 10 4 10 3 0 8 -4 11 -10z m1898 -90 c-5 -38 7
-54 22 -30 6 10 55 14 55 4 0 -3 -7 -13 -16 -21 -8 -9 -13 -24 -11 -34 3 -11
1 -21 -4 -25 -9 -5 -2 -15 39 -59 25 -27 27 -35 11 -35 -6 0 -29 -16 -52 -35
-25 -22 -51 -35 -69 -35 -27 0 -28 -2 -28 -47 0 -27 -5 -66 -10 -88 -26 -102
-22 -156 10 -148 11 3 20 8 20 12 0 4 17 15 38 26 20 11 44 28 53 37 9 10 20
18 24 18 5 0 31 17 59 38 28 21 62 44 75 51 29 16 81 62 81 72 0 4 -8 10 -17
12 -10 3 2 3 26 0 38 -5 81 -31 81 -49 0 -3 -7 -13 -16 -21 -11 -11 -14 -27
-11 -50 6 -34 -7 -54 -17 -27 -3 9 -6 36 -6 60 0 47 -15 57 -44 29 -8 -8 -19
-15 -25 -15 -6 0 -11 -4 -11 -10 0 -5 -6 -10 -14 -10 -8 0 -16 -3 -18 -7 -5
-12 -156 -113 -168 -113 -5 0 -10 -4 -10 -10 0 -5 -7 -10 -15 -10 -8 0 -15 -4
-15 -8 0 -5 -16 -17 -35 -28 -46 -24 -47 -54 -2 -73 37 -16 140 -80 147 -92 3
-4 18 -11 33 -14 15 -4 27 -11 27 -16 0 -5 7 -9 15 -9 8 0 15 -4 15 -10 0 -5
4 -10 10 -10 8 0 58 -30 96 -57 51 -38 79 -42 87 -11 6 21 7 21 26 4 11 -10
18 -23 15 -28 -3 -5 -1 -15 5 -22 9 -10 7 -15 -9 -19 -15 -4 -20 -13 -20 -36
0 -29 -2 -30 -21 -19 -16 10 -19 20 -14 46 5 25 2 32 -10 32 -8 0 -15 4 -15 8
0 5 -17 16 -37 25 -36 15 -72 36 -83 47 -8 8 -42 28 -80 47 -19 9 -39 21 -45
26 -39 33 -186 108 -197 101 -4 -3 -8 -14 -8 -26 0 -18 -2 -19 -16 -7 -13 11
-17 10 -26 -5 -6 -10 -18 -26 -27 -35 -9 -9 -22 -29 -30 -44 -8 -15 -18 -27
-23 -27 -13 0 -10 8 17 48 14 20 25 42 25 48 0 7 4 14 9 16 4 2 12 13 15 26 7
20 4 22 -36 22 -40 1 -42 2 -24 15 11 8 30 15 43 15 13 0 23 4 23 8 0 10 -53
62 -64 62 -4 0 -18 10 -31 23 -21 20 -41 37 -125 107 -15 13 -32 19 -46 16
-14 -4 -22 -1 -21 7 2 56 -18 64 -80 34 -53 -25 -83 -69 -76 -109 3 -17 -4
-41 -21 -70 l-26 -43 0 35 c0 19 10 60 23 90 27 68 25 120 -5 120 -12 0 -29
-7 -39 -16 -21 -19 -49 -12 -49 11 0 9 9 15 23 15 13 0 31 8 39 18 26 29 51
91 44 108 -5 14 -1 16 24 11 17 -4 30 -2 30 3 0 19 21 10 32 -15 8 -17 19 -25
37 -25 24 0 125 27 196 52 17 5 40 12 53 15 12 3 22 9 22 14 0 5 6 9 13 9 7 0
22 7 34 15 21 15 21 15 3 66 l-19 51 24 -16 c32 -21 48 -20 62 3 7 11 27 21
45 24 18 2 34 5 35 5 0 1 -1 -16 -4 -38z m-3984 -110 c6 0 7 -8 4 -17 -6 -16
-5 -16 17 0 27 19 70 23 70 7 0 -5 -4 -10 -10 -10 -5 0 -10 -7 -10 -15 0 -8
-8 -23 -18 -33 -10 -10 -22 -27 -25 -37 -8 -18 12 -75 25 -75 5 0 8 -4 8 -10
0 -15 -50 -12 -50 3 -1 6 -12 -1 -25 -18 -13 -16 -25 -27 -27 -25 -2 3 -10 19
-18 35 -13 24 -23 31 -53 33 -45 4 -46 13 -8 44 l30 23 -24 55 c-13 30 -22 57
-19 59 2 2 14 -3 28 -12 29 -19 36 -14 36 27 l0 30 29 -32 c17 -17 34 -32 40
-32z m-1769 1 c0 -37 -11 -45 -44 -30 -41 19 -27 59 21 59 19 0 23 -5 23 -29z
m2622 14 c0 -5 -5 -11 -11 -13 -6 -2 -11 4 -11 13 0 9 5 15 11 13 6 -2 11 -8
11 -13z m5346 -15 c12 -11 27 -20 34 -20 19 0 16 -61 -3 -83 -11 -12 -19 -15
-23 -8 -5 7 -15 7 -32 1 -35 -14 -37 -13 -30 14 4 18 1 25 -15 29 -26 7 -21
28 9 42 12 5 22 18 22 27 0 23 11 23 38 -2z m-4338 -115 c0 -18 -5 -25 -20
-25 -11 0 -20 4 -20 9 0 5 -3 16 -6 25 -5 12 0 16 20 16 21 0 26 -5 26 -25z
m2280 9 c0 -2 -9 -4 -21 -4 -11 0 -18 4 -14 10 5 8 35 3 35 -6z m37 -20 c-3
-3 -12 -4 -19 -1 -8 3 -5 6 6 6 11 1 17 -2 13 -5z m-37 -69 c0 -8 -4 -15 -10
-15 -5 0 -10 7 -10 15 0 8 5 15 10 15 6 0 10 -7 10 -15z m568 -213 c0 -21 4
-47 10 -59 17 -32 15 -42 -10 -41 -81 5 -110 -10 -160 -82 -14 -20 -17 -22
-17 -7 -1 9 4 17 9 17 6 0 10 5 10 12 0 6 7 20 16 29 17 18 21 110 8 151 -5
16 2 18 65 18 l71 0 -2 -38z m-339 -52 c0 -19 -3 -41 -8 -49 -10 -15 -19 66
-12 109 l4 25 8 -25 c4 -14 7 -41 8 -60z m3491 5 c0 -12 7 -14 28 -9 15 4 31
11 37 15 16 15 28 10 15 -6 -14 -17 -15 -17 20 -32 l25 -10 -32 -7 c-40 -9
-40 -16 -8 -54 14 -17 25 -32 25 -35 0 -2 -18 0 -39 6 -49 13 -71 -1 -72 -47
0 -26 -2 -28 -9 -11 -5 11 -9 32 -9 46 -1 15 -8 33 -17 40 -13 11 -17 10 -25
-4 -6 -9 -14 -17 -19 -17 -18 0 -10 30 10 42 24 15 27 58 5 58 -8 0 -15 5 -15
10 0 6 14 10 30 10 17 0 30 5 30 10 0 6 5 10 10 10 6 0 10 -7 10 -15z m-4930
-15 c0 -5 -8 -10 -17 -10 -15 0 -16 2 -3 10 19 12 20 12 20 0z m423 -10 c-3
-11 -7 -20 -9 -20 -2 0 -4 9 -4 20 0 11 4 20 9 20 5 0 7 -9 4 -20z m-2188 -10
c3 -5 1 -10 -4 -10 -6 0 -11 5 -11 10 0 6 2 10 4 10 3 0 8 -4 11 -10z m1724
-11 c-16 -10 -23 -4 -14 10 3 6 11 8 17 5 6 -4 5 -9 -3 -15z m-2492 -9 c20 0
11 -24 -10 -28 -13 -3 -17 4 -16 25 0 15 3 22 6 16 2 -7 11 -13 20 -13z m3348
-10 c-3 -5 -35 -10 -71 -10 -41 0 -63 4 -59 10 3 6 35 10 71 10 41 0 63 -4 59
-10z m1025 -10 c11 -6 17 -16 13 -25 -4 -13 -9 -12 -24 6 -27 32 -24 38 11 19z
m-1431 -16 c19 -16 18 -17 -6 -40 -31 -29 -39 -30 -45 -6 -4 14 -16 19 -43 20
-61 2 -54 12 8 12 44 0 57 3 57 15 0 19 5 19 29 -1z m236 6 c-3 -5 -30 -10
-58 -9 -38 0 -47 3 -32 9 29 12 98 12 90 0z m3255 -15 c0 -8 -4 -15 -10 -15
-5 0 -7 7 -4 15 4 8 8 15 10 15 2 0 4 -7 4 -15z m-5151 -14 c11 -20 5 -31 -16
-31 -7 0 -13 11 -13 25 0 29 15 33 29 6z m2711 -53 c0 -27 -4 -48 -10 -48 -6
0 -10 27 -10 63 0 44 3 58 10 47 5 -8 10 -36 10 -62z m-1410 47 c0 -8 -4 -15
-10 -15 -5 0 -10 7 -10 15 0 8 5 15 10 15 6 0 10 -7 10 -15z m949 -120 c0 -22
-3 -46 -8 -54 -6 -10 -10 12 -13 63 -1 43 -1 80 2 83 7 7 17 -44 19 -92z
m1741 85 c0 -5 -7 -10 -15 -10 -8 0 -15 5 -15 10 0 6 7 10 15 10 8 0 15 -4 15
-10z m-1166 -57 c-45 -60 -63 -77 -71 -69 -5 4 0 13 10 20 9 7 17 18 17 25 0
6 5 11 10 11 6 0 10 5 10 11 0 18 35 58 44 49 4 -5 -4 -25 -20 -47z m-1264 -7
c0 -3 -4 -8 -10 -11 -5 -3 -10 -1 -10 4 0 6 5 11 10 11 6 0 10 -2 10 -4z m524
-21 c-4 -8 -8 -15 -10 -15 -2 0 -4 7 -4 15 0 8 4 15 10 15 5 0 7 -7 4 -15z
m894 -122 c-15 -2 -42 -2 -60 0 -18 2 -6 4 27 4 33 0 48 -2 33 -4z m-2643 -23
c3 -5 1 -10 -4 -10 -6 0 -11 5 -11 10 0 6 2 10 4 10 3 0 8 -4 11 -10z m3025 6
c0 -18 -15 -36 -31 -36 -18 0 -26 20 -12 33 7 8 43 10 43 3z m-3000 -26 c0 -5
-5 -10 -11 -10 -5 0 -7 5 -4 10 3 6 8 10 11 10 2 0 4 -4 4 -10z m832 -37 c0
-10 2 -23 2 -30 1 -6 5 -15 9 -19 4 -4 7 -20 7 -35 0 -32 26 -51 59 -42 17 4
20 2 14 -12 -4 -13 2 -25 23 -42 23 -18 26 -25 15 -32 -7 -5 -13 -21 -13 -36
0 -25 -3 -26 -31 -21 -21 4 -33 1 -42 -10 -10 -15 -14 -13 -34 15 -14 19 -29
30 -37 27 -21 -8 -17 10 11 53 33 50 31 115 -4 148 -20 19 -21 25 -11 38 17
20 30 19 32 -2z m1468 -13 c0 -5 -5 -10 -11 -10 -5 0 -7 5 -4 10 3 6 8 10 11
10 2 0 4 -4 4 -10z m3053 -42 c-3 -16 0 -35 7 -43 10 -13 9 -15 -12 -15 -13 0
-29 -5 -34 -10 -7 -7 -19 -6 -36 2 -22 11 -26 18 -21 43 8 51 10 52 56 51 44
-1 45 -2 40 -28z m-7388 4 c12 -8 55 -69 55 -77 0 -3 -6 -5 -13 -5 -7 0 -28
-11 -47 -25 -42 -31 -50 -31 -50 -3 0 12 -7 29 -16 39 -15 17 -15 19 0 34 9 9
16 20 16 25 0 7 13 13 40 19 3 0 10 -3 15 -7z m4422 -59 c-2 -16 -4 -5 -4 22
0 28 2 40 4 28 2 -13 2 -35 0 -50z m1868 47 c-3 -5 -13 -10 -21 -10 -8 0 -14
5 -14 10 0 6 9 10 21 10 11 0 17 -4 14 -10z m-5161 -54 c-5 -14 -3 -14 30 -1
51 21 57 20 45 -12 -9 -25 0 -42 24 -43 4 0 7 -5 7 -11 0 -17 -43 -48 -67 -49
-22 0 -32 -15 -15 -22 5 -1 11 -19 15 -39 5 -33 3 -36 -14 -32 -10 3 -19 9
-19 14 0 17 -28 9 -42 -13 -14 -21 -15 -21 -34 18 -15 31 -27 41 -56 48 -21 5
-38 13 -38 17 0 13 31 39 46 39 19 0 18 7 -6 37 -11 14 -20 32 -20 39 0 16 33
18 61 4 14 -8 19 -7 19 2 0 6 10 22 22 35 21 22 22 22 35 4 7 -11 10 -26 7
-35z m4060 -51 c17 -22 32 -42 35 -45 4 -3 24 -27 46 -55 22 -27 43 -51 47
-53 5 -2 8 -8 8 -13 0 -16 73 -90 98 -100 12 -5 22 -17 22 -27 0 -10 17 -35
38 -55 20 -20 57 -58 82 -84 25 -27 74 -80 109 -117 l64 -68 61 14 c53 11 106
42 106 62 0 3 9 15 20 26 22 22 25 19 11 -8 -21 -42 -40 -124 -25 -109 9 9 52
-33 58 -57 3 -12 17 -28 31 -36 31 -17 32 -26 1 -34 -15 -4 -34 -23 -49 -49
-13 -23 -29 -41 -35 -40 -14 3 -17 -98 -3 -112 4 -6 21 -44 36 -85 15 -41 31
-83 36 -92 5 -10 9 -26 9 -37 0 -11 5 -21 11 -23 6 -2 9 -13 7 -23 -5 -20 -5
-20 -13 0 -5 11 -11 22 -15 25 -12 11 -40 60 -40 72 0 7 -9 19 -20 26 -11 7
-20 17 -20 22 0 15 -32 50 -41 44 -10 -6 -49 45 -49 65 0 26 -29 61 -51 61
-12 0 -19 7 -19 19 0 18 -57 108 -98 156 -15 17 -33 25 -54 25 -30 1 -31 2
-15 14 9 7 17 19 17 25 0 14 -60 104 -72 109 -4 2 -8 8 -8 13 0 18 -102 149
-116 149 -8 0 -15 5 -15 10 -1 6 -3 15 -4 20 -1 6 -3 16 -4 23 0 7 -11 24 -23
37 -13 14 -22 28 -20 33 3 11 -42 87 -120 199 -37 54 -68 102 -68 108 0 5 -4
10 -10 10 -5 0 -10 8 -10 17 0 15 2 14 18 -3 9 -10 30 -37 46 -59z m-3121 27
c-10 -10 -20 -17 -22 -16 -6 5 20 34 30 34 5 0 1 -8 -8 -18z m-33 -32 c0 -5
-5 -10 -11 -10 -5 0 -7 5 -4 10 3 6 8 10 11 10 2 0 4 -4 4 -10z m602 -67 c-6
-21 -14 -48 -17 -60 -6 -18 -3 -23 12 -23 10 0 24 5 30 11 6 6 17 9 25 6 9 -4
5 -8 -9 -12 -13 -4 -23 -11 -23 -15 0 -5 -9 -11 -19 -15 -11 -3 -23 -15 -26
-26 -8 -24 -50 -26 -59 -2 -6 15 4 27 28 36 5 1 10 20 12 42 1 21 7 48 12 59
6 12 13 30 16 40 5 14 10 16 18 8 8 -8 8 -21 0 -49z m870 32 c3 -14 2 -28 -2
-30 -10 -6 -41 41 -33 49 14 14 31 4 35 -19z m-4745 -61 c-3 -3 -12 -4 -19 -1
-8 3 -5 6 6 6 11 1 17 -2 13 -5z m3997 -4 c-12 -5 -25 -13 -29 -19 -8 -14 -25
-14 -25 -1 0 6 7 10 15 10 8 0 15 5 15 10 0 6 10 10 23 9 l22 0 -21 -9z m-611
-17 c-7 -2 -21 -2 -30 0 -10 3 -4 5 12 5 17 0 24 -2 18 -5z m-276 -53 c1 -14
-4 -20 -18 -20 -24 0 -25 27 -1 33 9 3 17 5 17 6 1 0 1 -8 2 -19z m641 11 c11
-7 11 -9 0 -14 -18 -6 -67 3 -74 14 -7 11 57 11 74 0z m-1981 -27 c-3 -3 -12
-4 -19 -1 -8 3 -5 6 6 6 11 1 17 -2 13 -5z m3941 -13 c-6 -10 -17 -17 -24 -14
-19 7 -5 33 17 33 16 0 17 -3 7 -19z m-5318 -55 c0 -12 -10 -14 -38 -7 -2 1 0
6 3 11 9 15 35 12 35 -4z m4845 -56 l7 -21 34 21 34 22 0 -36 c0 -31 3 -36 23
-36 33 0 39 -9 22 -34 -20 -27 -19 -96 1 -124 14 -21 14 -22 -11 -22 -42 0
-112 -37 -119 -62 -6 -22 -8 -21 -30 16 -30 49 -42 56 -88 56 -27 0 -38 4 -38
15 0 8 5 15 11 15 13 0 8 134 -6 165 -8 18 -7 18 7 7 9 -7 33 -12 54 -10 34 3
40 7 48 35 7 27 12 31 27 23 10 -6 21 -19 24 -30z m955 4 c0 -2 -7 -4 -15 -4
-8 0 -15 4 -15 10 0 5 7 7 15 4 8 -4 15 -8 15 -10z m-5430 -19 c0 -8 -7 -15
-15 -15 -8 0 -15 7 -15 15 0 8 7 15 15 15 8 0 15 -7 15 -15z m5817 -187 c-3
-8 -6 -5 -6 6 -1 11 2 17 5 13 3 -3 4 -12 1 -19z m-3133 -109 c8 -16 10 -31 5
-35 -5 -3 -9 -15 -9 -28 0 -28 -18 -46 -46 -46 -13 0 -24 8 -27 20 -3 12 -14
20 -26 20 -26 0 -27 20 -3 51 10 13 21 31 24 40 10 27 65 12 82 -22z m3096 6
c0 -8 12 -17 28 -21 43 -9 49 -12 24 -13 -15 -1 -26 -9 -29 -21 -5 -20 -43
-29 -43 -11 0 5 -9 13 -20 16 -17 5 -18 10 -8 28 18 36 48 49 48 22z m-2490
-55 c0 -5 -7 -10 -15 -10 -8 0 -15 5 -15 10 0 6 7 10 15 10 8 0 15 -4 15 -10z
m2735 0 c15 -6 6 -9 -32 -9 -28 -1 -55 4 -58 9 -8 12 61 12 90 0z m-4065 -10
c0 -6 -9 -20 -20 -32 -17 -19 -20 -19 -20 -4 0 17 19 45 33 46 4 0 7 -5 7 -10z
m2040 -28 c0 -6 -7 -12 -15 -16 -11 -4 -15 2 -15 25 0 27 2 29 15 15 8 -8 15
-19 15 -24z m1210 -2 c0 -16 7 -20 30 -20 35 0 37 -4 10 -33 -12 -13 -18 -27
-14 -37 4 -8 9 -33 12 -55 2 -22 9 -43 14 -46 6 -4 8 -15 6 -25 -2 -14 -10 -5
-28 31 -15 30 -33 51 -45 54 -27 5 -63 45 -65 73 -3 41 11 69 31 63 11 -4 19
-2 19 4 0 6 7 11 15 11 8 0 15 -9 15 -20z m1720 -4 c0 -17 -50 -67 -61 -61
-13 8 11 63 29 68 29 8 32 7 32 -7z m355 -25 c7 -12 -12 -24 -25 -16 -11 7 -4
25 10 25 5 0 11 -4 15 -9z m-4951 -88 c-17 -18 -29 -11 -21 11 4 9 13 13 21
10 14 -5 14 -8 0 -21z m3553 5 c-3 -8 -6 -5 -6 6 -1 11 2 17 5 13 3 -3 4 -12
1 -19z m-4930 -35 l27 -26 -22 -8 c-25 -9 -47 -3 -79 21 l-22 17 22 11 c34 16
46 14 74 -15z m4967 -5 c9 -17 16 -34 16 -37 -1 -11 -40 44 -40 57 0 20 8 14
24 -20z m33 -60 c-3 -8 -6 -5 -6 6 -1 11 2 17 5 13 3 -3 4 -12 1 -19z m-5004
-5 c-7 -2 -19 -2 -25 0 -7 3 -2 5 12 5 14 0 19 -2 13 -5z m4334 -45 c-3 -7 -5
-2 -5 12 0 14 2 19 5 13 2 -7 2 -19 0 -25z m690 10 c-3 -8 -6 -5 -6 6 -1 11 2
17 5 13 3 -3 4 -12 1 -19z m-1527 -3 c0 -8 -4 -15 -10 -15 -5 0 -10 7 -10 15
0 8 5 15 10 15 6 0 10 -7 10 -15z m892 -59 c10 -11 18 -25 18 -30 0 -6 9 -17
19 -23 16 -10 51 -65 51 -81 0 -3 -9 3 -19 12 -18 17 -20 17 -40 -3 -12 -12
-25 -21 -31 -21 -16 0 -12 42 7 62 14 16 15 21 2 46 -8 15 -22 34 -31 43 -10
9 -18 25 -18 35 1 18 1 18 12 -1 6 -11 20 -29 30 -39z m-3557 -22 c23 -23 32
-25 68 -20 64 10 102 -33 81 -88 -5 -12 -20 -16 -63 -16 -31 0 -61 -4 -66 -9
-6 -5 -58 -11 -117 -14 -82 -4 -108 -3 -108 6 0 19 30 59 64 87 17 14 40 35
53 46 20 21 39 31 55 33 4 1 19 -11 33 -25z m3025 -108 c0 -3 -4 -8 -10 -11
-5 -3 -10 -1 -10 4 0 6 5 11 10 11 6 0 10 -2 10 -4z m1310 -16 c0 -11 -4 -20
-10 -20 -5 0 -10 9 -10 20 0 11 5 20 10 20 6 0 10 -9 10 -20z m-647 -40 c-3
-3 -8 1 -10 8 -3 6 -11 12 -19 12 -8 0 -11 6 -8 15 5 12 10 10 24 -8 10 -12
16 -24 13 -27z m-3507 17 c3 -19 2 -19 -20 -11 -8 3 -12 12 -9 20 7 19 26 13
29 -9z m3540 -52 c13 -13 13 -15 1 -15 -8 0 -17 7 -21 15 -3 8 -3 15 0 15 3 0
12 -7 20 -15z m1001 -37 c-3 -7 -5 -2 -5 12 0 14 2 19 5 13 2 -7 2 -19 0 -25z
m-5632 12 c3 -5 -1 -10 -10 -10 -9 0 -13 5 -10 10 3 6 8 10 10 10 2 0 7 -4 10
-10z m5665 -51 c0 -5 -4 -9 -10 -9 -5 0 -10 7 -10 16 0 8 5 12 10 9 6 -3 10
-10 10 -16z m-1330 1 c0 -5 -7 -10 -16 -10 -8 0 -12 5 -9 10 3 6 10 10 16 10
5 0 9 -4 9 -10z m-1627 -14 c3 -8 -1 -20 -9 -27 -13 -10 -17 -10 -24 1 -5 9
-5 20 2 27 14 17 25 16 31 -1z m1912 -84 c-6 -7 -35 18 -35 31 0 5 9 2 20 -8
11 -10 18 -20 15 -23z m1368 18 c-3 -11 -11 -20 -18 -20 -7 0 -25 -16 -39 -35
-17 -21 -32 -32 -41 -28 -11 4 -13 1 -9 -11 4 -11 1 -16 -10 -16 -9 0 -16 -4
-16 -10 0 -5 -10 -20 -21 -31 l-22 -22 -13 39 c-16 45 -12 64 13 64 10 0 29 9
43 20 14 11 38 20 54 20 18 0 35 9 48 25 23 30 38 32 31 5z m-5765 -18 c3 -17
-1 -22 -20 -22 -40 0 -64 34 -30 43 31 9 47 2 50 -21z m3058 -9 c21 -21 32
-39 26 -41 -7 -2 -12 -10 -12 -18 0 -18 -31 -54 -46 -54 -27 0 -74 35 -68 50
3 8 8 20 10 26 3 6 -5 15 -18 21 -21 9 -21 10 14 17 20 3 39 13 42 21 8 21 11
20 52 -22z m1555 -43 c22 -22 54 -47 72 -56 42 -22 40 -19 26 -42 -10 -16 -10
-26 -1 -47 15 -33 17 -68 2 -45 -8 13 -12 11 -30 -7 -11 -12 -20 -27 -20 -33
0 -5 -4 -10 -9 -10 -6 0 -11 17 -13 37 -2 30 -8 38 -28 43 -17 4 -24 12 -22
25 6 33 -7 65 -28 65 -11 0 -20 5 -20 10 0 6 -6 10 -12 10 -7 0 -24 12 -37 25
-29 31 -11 33 47 5 50 -24 52 -24 52 -2 -1 21 -19 47 -40 55 -12 4 -11 6 3 6
10 1 36 -17 58 -39z m189 -21 c0 -10 -4 -19 -9 -19 -12 0 -23 29 -15 41 8 14
24 0 24 -22z m-4397 -69 c-3 -11 -9 -20 -14 -20 -5 0 -9 9 -9 20 0 11 6 20 14
20 9 0 12 -7 9 -20z m-759 -5 c3 -9 0 -15 -9 -15 -8 0 -15 7 -15 15 0 8 4 15
9 15 5 0 11 -7 15 -15z m3936 -85 c7 -17 10 -33 6 -37 -3 -3 -6 1 -6 10 0 10
-3 17 -8 17 -4 0 -13 9 -20 20 -10 16 -10 20 2 20 7 0 19 -14 26 -30z m-3345
10 c3 -5 1 -10 -4 -10 -6 0 -11 5 -11 10 0 6 2 10 4 10 3 0 8 -4 11 -10z
m3394 -79 c8 -14 5 -23 -14 -39 -30 -26 -38 -16 -22 27 13 36 22 39 36 12z
m-2665 -19 c-6 -4 -14 -14 -17 -22 -4 -10 -6 -8 -6 7 -1 12 5 23 12 26 16 6
24 -2 11 -11z m3925 -21 c12 -16 21 -45 21 -65 0 -20 5 -36 10 -36 6 0 10 -13
10 -29 0 -17 -4 -33 -10 -36 -5 -3 -10 -17 -10 -31 0 -13 5 -24 10 -24 6 0 10
7 10 15 0 19 9 19 32 -2 25 -22 24 -80 -1 -88 -30 -9 -50 5 -53 38 -2 24 -8
32 -23 32 -16 0 -21 8 -23 40 -2 22 -8 46 -14 53 -8 9 -6 17 6 31 14 16 15 21
3 32 -16 16 -27 66 -20 86 8 22 30 15 52 -16z m-2279 5 c0 -22 31 -28 56 -11
25 16 54 20 54 8 0 -5 -9 -19 -20 -33 -21 -27 -26 -50 -10 -50 6 0 10 -7 10
-17 0 -9 12 -32 27 -52 33 -44 132 -141 144 -141 5 0 9 -7 9 -15 0 -18 -16
-20 -27 -2 -4 6 -30 24 -58 39 -40 21 -66 27 -128 29 -59 3 -80 0 -87 -11 -7
-12 -12 -10 -28 8 -26 29 -65 28 -171 -5 -84 -26 -117 -45 -107 -61 3 -5 -8
-6 -24 -4 -27 4 -88 -29 -132 -70 -7 -7 -30 -22 -51 -33 -21 -11 -45 -28 -54
-37 -9 -10 -22 -18 -29 -18 -7 0 -14 -10 -16 -21 -2 -17 -16 -26 -57 -39 -44
-13 -56 -22 -67 -49 -12 -28 -18 -32 -39 -27 -18 5 -27 2 -31 -9 -4 -8 -15
-15 -25 -15 -10 0 -19 -4 -19 -10 0 -5 -7 -10 -15 -10 -8 0 -15 -4 -15 -10 0
-5 -7 -10 -15 -10 -9 0 -18 -7 -21 -15 -4 -8 -13 -15 -21 -15 -8 0 -12 -4 -9
-9 7 -10 -17 -21 -45 -21 -11 0 -18 -3 -16 -7 2 -5 -4 -16 -15 -25 -10 -10
-18 -15 -18 -10 0 4 -4 2 -8 -3 -4 -6 -25 -23 -47 -40 -22 -16 -42 -32 -45
-35 -3 -3 -30 -23 -60 -45 -30 -22 -58 -44 -62 -49 -4 -6 -9 -8 -12 -5 -5 5
54 65 302 310 56 56 102 105 102 110 0 4 3 14 6 23 4 11 0 16 -11 16 -10 0 7
14 38 30 31 17 68 30 82 30 15 0 41 11 59 25 18 14 38 25 44 25 7 0 12 4 12 8
0 5 16 17 35 28 19 10 35 22 35 26 0 5 5 8 11 8 14 0 141 89 152 107 4 7 18
13 29 13 20 0 68 13 113 31 11 4 31 10 45 13 79 16 208 67 221 88 4 6 4 19 2
29 -6 23 3 49 17 49 5 0 10 -6 10 -14z m2199 -136 c-13 -10 -27 -17 -30 -14
-10 6 1 44 12 44 5 0 9 15 10 33 l0 32 16 -39 c16 -38 16 -39 -8 -56z m-99 63
c8 -10 20 -30 27 -44 10 -24 8 -30 -31 -73 -49 -53 -72 -60 -62 -18 4 15 9 50
12 77 3 28 7 56 9 63 6 17 28 15 45 -5z m-5005 -33 c11 -18 -19 -51 -45 -48
-19 2 -26 10 -28 31 -3 25 -1 27 32 27 19 0 37 -4 41 -10z m1432 -16 c-3 -3
-12 -4 -19 -1 -8 3 -5 6 6 6 11 1 17 -2 13 -5z m2360 -111 c-3 -10 -5 -2 -5
17 0 19 2 27 5 18 2 -10 2 -26 0 -35z m408 7 c7 0 15 -7 18 -14 4 -11 1 -13
-11 -9 -19 7 -32 23 -31 38 0 6 3 4 6 -2 2 -7 11 -13 18 -13z m869 14 c14 -5
32 -38 56 -99 4 -11 15 -37 24 -58 9 -21 16 -46 16 -57 0 -10 5 -22 10 -25 15
-9 12 -45 -4 -51 -15 -6 -65 22 -78 42 -10 15 -84 54 -103 54 -8 0 -15 5 -15
10 0 6 -5 10 -11 10 -13 0 -39 25 -39 39 0 5 18 25 40 42 22 18 40 36 40 41 0
7 39 55 47 57 1 1 9 -2 17 -5z m-3897 -35 c16 -16 5 -45 -22 -57 -37 -17 -49
15 -18 50 19 21 25 22 40 7z m3083 -40 c0 -5 6 -9 13 -9 7 0 18 -9 24 -19 10
-16 9 -20 -4 -26 -10 -3 -20 0 -25 10 -5 8 -20 15 -33 15 -14 0 -25 5 -25 10
0 6 5 10 10 10 6 0 10 7 10 15 0 9 6 12 15 9 8 -4 15 -10 15 -15z m-90 1 c0
-5 -9 -10 -19 -10 -11 0 -23 5 -26 10 -4 6 5 10 19 10 14 0 26 -4 26 -10z
m-460 -16 c0 -7 -27 -34 -34 -34 -3 0 -6 9 -6 20 0 13 7 20 20 20 11 0 20 -3
20 -6z m547 -84 c-11 -18 -27 -27 -27 -15 0 13 25 43 32 39 4 -3 2 -14 -5 -24z
m-2668 -50 c5 0 11 -7 14 -15 4 -9 -7 -22 -33 -36 -22 -13 -40 -29 -40 -36 0
-10 -8 -11 -27 -7 -37 9 -36 8 -39 59 -3 40 -1 45 19 45 12 0 30 7 40 15 16
12 21 11 38 -6 10 -10 23 -19 28 -19z m2891 -52 c0 -4 9 -8 20 -8 15 0 20 7
20 26 0 16 5 24 13 21 6 -2 12 -15 12 -28 1 -22 4 -24 43 -21 32 2 42 -1 42
-13 0 -8 -6 -15 -14 -15 -28 0 -29 -38 -1 -65 14 -15 23 -31 19 -37 -4 -6 -10
-6 -17 1 -6 6 -19 11 -28 11 -14 0 -16 -8 -11 -47 5 -43 3 -46 -14 -38 -10 4
-40 13 -66 18 -31 7 -48 16 -48 26 0 8 -17 30 -37 48 -37 34 -37 34 -25 79 7
24 12 56 12 70 l0 25 40 -22 c22 -13 40 -26 40 -31z m-958 -7 c13 -11 34 -30
48 -42 14 -12 44 -34 68 -50 l44 -27 21 21 c20 20 21 20 29 1 10 -21 61 -54
85 -54 19 0 11 -11 -10 -14 -33 -4 -89 -98 -84 -140 4 -35 -21 -27 -27 9 -5
23 -12 35 -23 35 -21 0 -53 29 -53 47 0 11 -8 13 -32 7 -18 -4 -50 -6 -70 -5
-20 1 -39 -3 -43 -9 -3 -5 -26 -10 -50 -10 -33 0 -51 -6 -70 -24 l-26 -24 22
-7 c17 -6 19 -9 8 -16 -8 -5 -24 -9 -36 -9 -24 0 -31 -16 -11 -22 7 -3 9 -12
4 -23 -7 -18 -8 -18 -28 2 -16 16 -26 19 -47 13 -14 -5 -38 -11 -53 -14 -19
-4 -28 -13 -28 -26 0 -13 -10 -24 -26 -31 -38 -14 -39 -6 -3 32 28 31 31 38
27 86 -4 51 -3 54 21 60 34 8 48 23 59 64 7 24 10 28 11 12 2 -44 24 -34 93
40 38 42 69 79 68 84 0 4 -12 7 -25 5 -12 -2 -26 2 -30 7 -4 7 10 11 38 11 27
0 49 6 57 15 17 21 45 19 72 -4z m2129 -49 c6 9 10 3 15 -19 4 -18 10 -33 15
-33 17 0 9 -33 -13 -51 -28 -25 -30 -24 -61 11 -15 17 -36 30 -46 30 -10 0
-24 7 -31 15 -10 13 -9 15 11 17 13 0 31 1 39 2 9 1 16 13 18 30 l4 28 20 -22
c16 -17 22 -19 29 -8z m-2861 7 c0 -5 8 -9 19 -9 14 0 21 -10 26 -36 8 -43 7
-44 -42 -55 -21 -4 -50 -11 -65 -15 -25 -6 -28 -3 -28 18 0 13 -6 30 -12 36
-9 9 -10 15 -2 20 6 4 14 16 18 27 5 16 15 21 46 22 22 1 40 -2 40 -8z m545 1
c-3 -5 -19 -10 -36 -10 -16 0 -29 -5 -29 -12 0 -9 -4 -8 -10 2 -17 26 -11 30
36 30 27 0 43 -4 39 -10z m1785 1 c0 -5 8 -12 18 -15 40 -13 72 -53 72 -89 0
-20 -4 -38 -9 -41 -9 -6 -81 67 -81 82 0 5 -9 17 -20 27 -11 10 -20 24 -20 32
0 7 9 13 20 13 11 0 20 -4 20 -9z m-1887 -89 c-13 -14 -23 -30 -23 -36 0 -31
-70 -60 -85 -36 -3 6 -22 10 -41 10 -19 0 -34 5 -34 10 0 6 -7 10 -16 10 -18
0 -74 31 -74 41 0 25 222 60 259 40 18 -10 21 -9 22 6 0 16 1 16 8 -1 5 -13 0
-27 -16 -44z m-2328 -72 c3 -5 1 -10 -4 -10 -6 0 -11 5 -11 10 0 6 2 10 4 10
3 0 8 -4 11 -10z m2140 -31 c5 -5 19 -9 32 -9 16 0 23 -6 23 -20 0 -13 -7 -20
-19 -20 -10 0 -53 -11 -95 -25 -80 -26 -111 -31 -120 -17 -7 11 4 24 37 45 18
12 27 26 27 43 0 25 1 26 53 19 28 -4 56 -11 62 -16z m421 -94 c63 -8 124 -34
124 -53 0 -9 -6 -12 -16 -8 -9 3 -28 9 -42 12 -15 3 -36 9 -47 14 -11 4 -35
14 -53 20 -18 7 -35 17 -39 23 -4 6 0 8 9 5 9 -4 37 -9 64 -13z m-346 -26 c0
-19 -19 -43 -102 -132 -41 -44 -45 -52 -25 -61 6 -3 2 -3 -10 0 -13 3 -23 1
-23 -5 0 -6 5 -11 11 -11 5 0 7 -5 3 -12 -6 -9 -9 -9 -12 0 -5 17 -15 15 -29
-7 -10 -17 -10 -20 5 -21 61 -3 122 -13 122 -21 0 -17 -39 -30 -60 -19 -24 13
-26 3 -5 -27 21 -30 0 -42 -24 -14 -33 37 -45 28 -41 -31 1 -16 -3 -28 -8 -28
-13 0 -23 27 -16 44 3 9 -3 17 -15 21 -21 6 -21 7 -2 34 l19 27 -30 17 c-16 9
-47 17 -69 17 -21 0 -39 5 -39 10 0 6 -20 10 -44 10 -25 0 -47 4 -50 9 -3 4
-19 11 -36 14 -17 4 -30 13 -30 21 0 18 127 96 156 96 22 0 90 23 100 33 16
16 57 6 76 -18 16 -20 23 -23 39 -15 10 6 19 21 19 33 0 23 41 51 85 60 27 5
35 -1 35 -24z m730 17 c0 -19 -26 -38 -45 -34 -14 3 -14 5 0 26 18 24 45 30
45 8z m777 -18 c-3 -7 -5 -2 -5 12 0 14 2 19 5 13 2 -7 2 -19 0 -25z m-867
-68 c0 -13 -7 -20 -20 -20 -19 0 -27 20 -13 33 13 14 33 6 33 -13z m920 -16
c0 -8 -4 -14 -10 -14 -5 0 -10 9 -10 21 0 11 5 17 10 14 6 -3 10 -13 10 -21z
m403 -30 c-4 -44 -11 -54 -40 -54 -38 0 -50 10 -48 41 2 38 9 44 52 43 35 -1
38 -4 36 -30z m-2022 -7 c-10 -9 -11 -8 -5 6 3 10 9 15 12 12 3 -3 0 -11 -7
-18z m-1506 -43 c-9 -9 -18 -14 -21 -11 -9 9 6 27 22 27 13 0 13 -2 -1 -16z
m822 10 c-3 -3 -12 -4 -19 -1 -8 3 -5 6 6 6 11 1 17 -2 13 -5z m366 -103 c60
-11 111 -21 114 -24 3 -3 -4 -16 -16 -28 -12 -13 -21 -26 -21 -31 0 -4 -7 -8
-15 -8 -8 0 -15 -4 -15 -8 0 -11 -66 -42 -89 -42 -10 0 -24 -12 -32 -27 -14
-29 -68 -85 -131 -134 -33 -27 -38 -28 -52 -13 -9 8 -16 22 -16 30 0 8 -4 14
-10 14 -5 0 -10 17 -10 38 0 20 -4 53 -10 72 -11 40 6 75 45 90 13 5 42 27 63
50 46 46 47 46 195 21z m1764 13 c-3 -3 -12 -4 -19 -1 -8 3 -5 6 6 6 11 1 17
-2 13 -5z m-1647 -94 c0 -5 -2 -10 -4 -10 -3 0 -8 5 -11 10 -3 6 -1 10 4 10 6
0 11 -4 11 -10z m-180 -160 c0 -5 -4 -10 -10 -10 -5 0 -10 5 -10 10 0 6 5 10
10 10 6 0 10 -4 10 -10z m1080 0 c0 -5 -4 -10 -10 -10 -5 0 -10 5 -10 10 0 6
5 10 10 10 6 0 10 -4 10 -10z m127 -136 c-3 -3 -12 -4 -19 -1 -8 3 -5 6 6 6
11 1 17 -2 13 -5z m-1327 -124 c12 -16 30 -30 41 -30 10 0 19 -4 19 -10 0 -5
-6 -10 -14 -10 -8 0 -16 -4 -18 -9 -1 -5 -14 -10 -28 -11 -56 -5 -58 -3 -58
50 -1 42 2 50 18 50 10 0 28 -13 40 -30z m400 10 c0 -5 7 -10 15 -10 24 0 29
-27 8 -52 -23 -29 -62 -26 -93 7 -23 24 -20 45 6 45 8 0 14 5 14 10 0 6 11 10
25 10 14 0 25 -4 25 -10z m-281 -147 c7 -14 4 -24 -16 -45 -24 -25 -28 -26
-53 -13 -36 18 -54 41 -46 60 8 23 102 21 115 -2z m71 -189 c0 -18 -38 -53
-58 -54 -37 -1 -18 66 20 72 29 5 38 1 38 -18z"/>
<path d="M9175 7680 c-3 -5 -24 -10 -46 -10 -21 0 -39 -4 -39 -9 0 -5 -12 -11
-27 -13 -22 -2 -29 -9 -31 -31 -3 -22 6 -36 44 -70 26 -23 56 -49 68 -57 12
-8 30 -23 41 -33 11 -11 36 -31 55 -45 19 -15 49 -41 67 -59 17 -18 41 -33 52
-33 20 0 21 6 21 84 0 47 4 87 9 90 10 7 5 55 -9 92 -5 13 -20 26 -33 30 -14
3 -37 21 -52 40 -23 29 -33 34 -71 34 -23 0 -46 -4 -49 -10z"/>
<path d="M9232 4337 c-12 -7 -36 -30 -53 -50 -17 -20 -37 -37 -46 -37 -8 0
-13 -5 -11 -12 7 -19 87 -17 158 3 104 30 108 40 33 73 -23 10 -40 23 -37 27
8 13 -17 10 -44 -4z"/>
<path d="M2856 9923 c-4 -5 -41 -10 -82 -13 l-75 -5 40 -42 c22 -24 43 -43 48
-43 5 0 23 -12 41 -27 31 -28 94 -82 161 -138 20 -16 38 -32 41 -35 3 -3 21
-17 40 -31 19 -15 50 -41 67 -58 18 -17 42 -31 53 -31 19 0 20 6 20 199 0 110
-3 206 -6 215 -5 14 -30 16 -173 16 -92 0 -171 -3 -175 -7z m282 -44 c18 -18
19 -32 16 -136 -5 -132 -13 -153 -52 -127 -26 17 -53 40 -100 84 -15 15 -45
39 -67 55 -22 16 -45 34 -51 40 -6 5 -23 19 -37 30 -15 11 -27 28 -27 38 0 15
8 18 53 17 28 0 86 4 127 8 116 13 118 13 138 -9z"/>
<path d="M14395 9810 c-11 -4 -60 -20 -110 -35 -49 -15 -97 -30 -105 -34 -17
-9 -27 -61 -11 -61 6 0 11 -6 11 -13 0 -7 9 -32 20 -55 11 -23 25 -53 30 -67
5 -14 17 -25 25 -25 21 0 45 24 45 44 0 9 3 16 8 16 4 0 15 18 25 40 9 22 21
40 27 40 5 0 10 9 10 19 0 11 5 23 10 26 6 3 10 15 10 26 0 10 5 19 10 19 6 0
10 9 10 19 0 11 5 23 10 26 12 7 14 25 3 24 -5 0 -17 -4 -28 -9z m-39 -63 c-1
-8 -9 -26 -19 -40 -9 -15 -17 -32 -17 -38 0 -17 -30 -49 -45 -49 -19 0 -47 48
-43 73 2 16 18 27 63 43 33 12 61 23 62 23 1 1 0 -5 -1 -12z"/>
<path d="M3455 9680 c4 -13 37 -54 74 -90 36 -37 96 -100 134 -140 l67 -74
131 133 131 133 -24 16 c-17 13 -55 19 -143 23 -66 4 -178 10 -249 14 l-128 8
7 -23z m375 -80 c0 -5 -6 -10 -14 -10 -8 0 -17 -11 -20 -25 -6 -24 -29 -34
-40 -17 -6 11 4 24 34 44 29 20 40 22 40 8z"/>
<path d="M3331 9584 c0 -11 3 -14 6 -6 3 7 2 16 -1 19 -3 4 -6 -2 -5 -13z"/>
<path d="M4037 9483 c-4 -3 -7 -15 -7 -25 0 -10 -9 -38 -20 -60 -11 -23 -20
-57 -20 -75 0 -28 3 -33 24 -33 14 0 28 5 31 10 3 6 17 10 30 10 13 0 26 4 29
9 3 4 19 11 36 14 42 9 51 48 17 79 -86 79 -103 89 -120 71z"/>
<path d="M14694 9364 c-16 -19 -38 -45 -49 -57 -34 -37 -55 -71 -55 -90 0 -26
58 -47 131 -47 l61 0 -6 33 c-3 17 -9 63 -13 102 -5 60 -19 95 -36 95 -3 0
-18 -16 -33 -36z m36 -75 c17 -31 4 -71 -22 -67 -32 5 -45 32 -28 62 16 31 35
33 50 5z"/>
<path d="M3480 9355 c0 -20 5 -25 25 -25 20 0 25 5 25 25 0 20 -5 25 -25 25
-20 0 -25 -5 -25 -25z"/>
<path d="M3328 9268 c-16 -5 -28 -14 -28 -19 0 -5 -11 -9 -25 -9 -14 0 -33 -4
-43 -9 -9 -5 -44 -21 -77 -36 -33 -15 -68 -31 -77 -36 -10 -5 -25 -9 -33 -9
-21 0 -19 -39 3 -47 9 -4 19 -10 22 -13 8 -11 120 -80 129 -80 5 0 11 -3 13
-7 4 -11 86 -63 98 -63 5 0 10 -4 10 -10 0 -5 11 -10 25 -10 23 0 25 4 25 44
0 25 5 48 10 51 6 4 10 60 10 136 0 142 1 140 -62 117z m14 -186 c-2 -39 -10
-79 -17 -88 -10 -15 -16 -14 -59 10 -62 34 -98 58 -115 74 -8 8 -25 18 -38 23
-29 11 -32 49 -4 49 21 0 143 49 151 61 3 4 21 9 40 11 33 3 35 1 41 -32 4
-19 4 -68 1 -108z"/>
<path d="M8830 9039 c-38 -12 -90 -45 -103 -66 -5 -8 -21 -27 -37 -43 -28 -28
-50 -62 -50 -74 0 -3 14 -6 30 -6 17 0 30 5 30 10 0 6 6 10 14 10 15 0 66 38
65 48 -3 19 2 23 16 12 9 -8 15 -8 15 -2 0 6 -6 12 -12 15 -10 3 -10 11 -3 33
8 23 17 30 42 32 18 2 41 -1 50 -7 17 -10 17 -10 1 -11 -10 0 -18 -5 -18 -11
0 -7 11 -8 32 -4 26 6 30 5 25 -10 -5 -13 -3 -15 13 -11 11 3 29 9 40 12 17 4
18 8 7 25 -6 10 -18 19 -26 19 -7 0 -19 7 -25 15 -15 20 -63 26 -106 14z"/>
<path d="M6605 8740 c3 -5 10 -10 16 -10 5 0 9 5 9 10 0 6 -7 10 -16 10 -8 0
-12 -4 -9 -10z"/>
<path d="M7950 8615 c-25 -13 -51 -24 -58 -25 -13 0 -54 -18 -182 -78 -41 -20
-95 -43 -119 -53 l-45 -17 32 -16 c17 -9 41 -16 54 -16 13 -1 34 -7 48 -15 14
-8 40 -14 58 -15 17 0 32 -4 32 -8 0 -4 18 -9 40 -10 36 -3 42 1 71 40 17 24
34 50 37 58 3 8 10 20 14 25 15 18 98 145 98 150 0 12 -39 2 -80 -20z"/>
<path d="M6520 8595 c-6 -8 -21 -17 -33 -21 -11 -3 -30 -15 -41 -25 -11 -11
-28 -19 -37 -19 -10 0 -19 -3 -21 -7 -4 -11 -86 -63 -98 -63 -12 0 -13 -20 -2
-36 4 -6 41 -35 82 -64 41 -29 77 -56 80 -59 3 -3 17 -12 31 -19 15 -8 38 -25
52 -38 14 -13 31 -24 37 -24 5 0 10 -4 10 -10 0 -5 6 -10 13 -10 7 0 24 -11
39 -25 15 -14 32 -25 38 -25 6 0 8 -4 5 -10 -3 -5 1 -10 10 -10 9 0 28 -11 43
-25 29 -27 60 -41 70 -31 10 10 7 73 -5 98 -22 48 -43 153 -59 290 -5 43 -11
51 -50 78 -25 16 -47 30 -50 30 -3 0 -17 9 -31 20 -30 24 -66 26 -83 5z m198
-393 c6 -18 -15 -14 -22 4 -4 10 -1 14 6 12 6 -2 14 -10 16 -16z"/>
<path d="M2906 8525 c-20 -14 -41 -25 -46 -25 -6 0 -10 -4 -10 -10 0 -5 -5
-10 -10 -10 -6 0 -16 -4 -23 -10 -57 -47 -76 -60 -86 -60 -6 0 -11 -4 -11 -10
0 -5 -5 -10 -11 -10 -6 0 -25 -11 -43 -25 -18 -14 -38 -25 -44 -25 -7 0 -12
-4 -12 -8 0 -5 -16 -17 -35 -28 -19 -10 -35 -22 -35 -25 0 -4 -16 -14 -35 -23
-30 -15 -34 -20 -25 -37 6 -11 21 -19 35 -19 14 0 25 -4 25 -10 0 -5 8 -10 19
-10 10 0 54 -10 97 -21 44 -12 98 -24 122 -26 23 -3 42 -9 42 -14 0 -5 18 -9
39 -9 22 0 42 -4 45 -9 3 -5 26 -12 51 -15 24 -4 47 -11 50 -17 4 -5 21 -9 40
-9 19 0 37 -4 40 -10 3 -5 22 -10 41 -10 30 0 34 3 34 25 0 13 -9 40 -20 60
-11 20 -20 43 -20 51 0 8 -7 22 -15 30 -8 9 -15 24 -15 34 0 10 -4 22 -10 25
-5 3 -10 15 -10 26 0 10 -4 19 -10 19 -5 0 -10 11 -10 25 0 14 -4 25 -10 25
-5 0 -10 7 -10 16 0 9 -7 30 -16 47 -30 56 -34 67 -34 77 0 6 -8 20 -18 31
-19 19 -19 19 -56 -6z m24 -58 c0 -7 11 -28 25 -47 14 -19 25 -41 25 -50 0 -9
11 -40 25 -68 14 -29 25 -57 25 -62 0 -6 9 -28 20 -50 11 -22 20 -44 20 -49 0
-17 -36 -22 -81 -11 -24 6 -82 20 -129 31 -47 11 -86 24 -88 30 -2 5 -15 9
-30 9 -30 0 -62 26 -62 51 0 10 -9 21 -20 24 -24 8 -14 21 40 51 19 10 41 27
48 36 7 10 28 25 47 34 19 9 44 26 57 38 41 41 78 56 78 33z m-290 -206 c0 -6
-4 -12 -9 -15 -13 -8 -42 4 -35 15 7 12 44 12 44 0z"/>
<path d="M8123 8527 c-15 -13 -59 -45 -98 -72 -91 -64 -105 -77 -105 -93 0
-11 7 -12 28 -6 49 16 207 9 236 -9 14 -9 42 -19 63 -22 21 -3 50 -11 65 -16
14 -6 34 -9 43 -7 16 3 -5 39 -72 123 -4 6 -21 28 -38 50 -16 22 -33 42 -37
43 -4 2 -8 10 -8 18 0 22 -45 17 -77 -9z"/>
<path d="M6780 8456 c0 -14 5 -28 10 -31 6 -3 10 -39 10 -79 0 -39 5 -77 11
-83 6 -6 9 -36 7 -70 -2 -50 1 -63 18 -82 l21 -22 66 134 c37 74 67 138 67
143 0 8 -191 114 -205 114 -3 0 -5 -11 -5 -24z"/>
<path d="M8235 8250 c3 -5 1 -10 -6 -10 -8 0 -8 -4 1 -15 7 -8 16 -12 21 -9 5
3 9 -2 9 -10 0 -9 -6 -16 -12 -16 -7 0 -5 -5 5 -11 14 -8 23 -7 38 7 10 9 29
22 41 28 13 6 24 19 26 29 3 15 -5 17 -63 17 -42 0 -64 -4 -60 -10z"/>
<path d="M8358 8175 c-10 -13 -18 -27 -18 -32 0 -4 -11 -17 -24 -28 -22 -19
-23 -21 -8 -62 14 -36 14 -50 3 -92 -7 -27 -14 -69 -16 -92 -1 -23 -7 -44 -12
-48 -6 -3 -18 -28 -28 -54 -10 -26 -22 -50 -26 -53 -5 -3 -9 -12 -9 -21 0 -28
-33 -94 -45 -89 -7 2 -15 -18 -21 -50 -5 -30 -7 -54 -4 -54 4 0 4 -21 0 -47
-5 -27 -4 -49 1 -51 5 -2 9 -9 9 -16 0 -7 9 -21 20 -31 11 -10 20 -24 20 -32
0 -8 8 -23 19 -34 32 -35 36 -22 72 231 5 36 14 101 19 145 32 278 54 427 73
488 17 53 5 64 -25 22z m-37 -108 c-10 -9 -11 -8 -5 6 3 10 9 15 12 12 3 -3 0
-11 -7 -18z"/>
<path d="M3140 7781 c0 -17 5 -33 10 -36 6 -3 10 -16 10 -27 0 -12 16 -55 36
-97 19 -42 40 -87 46 -101 6 -14 15 -33 20 -43 5 -10 27 -54 50 -98 l40 -79
69 0 c38 0 88 4 111 10 24 5 73 12 110 16 36 3 74 11 84 19 16 11 17 15 4 30
-8 10 -31 28 -50 40 -19 13 -53 39 -75 59 -22 20 -44 36 -48 36 -4 0 -31 18
-60 41 -29 22 -67 53 -86 67 -19 15 -40 33 -47 40 -7 6 -16 12 -21 12 -4 0
-26 16 -48 35 -22 19 -46 35 -52 35 -7 0 -13 5 -13 10 0 6 -6 10 -13 10 -7 0
-24 11 -39 25 -34 32 -38 31 -38 -4z m155 -181 c10 -11 24 -20 32 -20 8 0 29
-11 46 -24 18 -13 55 -35 83 -49 28 -15 54 -33 58 -42 3 -9 19 -21 36 -26 32
-12 40 -38 16 -58 -21 -18 -101 -10 -101 9 0 15 -56 80 -69 80 -15 0 -5 -51
12 -57 24 -9 33 -26 19 -35 -30 -19 -77 2 -77 36 0 8 -16 45 -35 83 -19 37
-35 76 -35 86 0 9 -4 17 -10 17 -5 0 -10 5 -10 10 0 16 15 12 35 -10z"/>
<path d="M3440 7765 c0 -21 5 -25 30 -25 19 0 33 6 37 16 7 19 -13 34 -44 34
-18 0 -23 -6 -23 -25z"/>
<path d="M2881 7553 c-13 -3 -39 -13 -58 -24 -18 -10 -52 -19 -74 -19 -22 0
-49 -5 -59 -10 -20 -11 -112 -28 -195 -37 -27 -3 -54 -9 -59 -14 -6 -5 -25 -9
-44 -9 -19 0 -51 -4 -71 -10 -20 -5 -48 -12 -63 -15 -33 -6 -40 -45 -9 -45 11
0 21 -4 23 -8 2 -4 30 -20 63 -36 33 -16 92 -44 130 -62 39 -19 76 -34 83 -34
6 0 12 -4 12 -10 0 -5 11 -10 25 -10 14 0 25 -4 25 -8 0 -14 101 -53 119 -47
10 3 24 17 31 30 7 14 17 25 22 25 4 0 8 9 8 19 0 10 7 21 15 25 8 3 15 11 15
18 0 27 57 123 98 165 29 30 42 52 42 71 0 46 -18 56 -79 45z m49 -40 c0 -9
-7 -24 -16 -34 -15 -16 -17 -16 -36 3 -26 26 -16 48 22 48 21 0 30 -5 30 -17z
m-92 -75 c2 -16 -7 -43 -22 -67 -14 -22 -26 -45 -26 -51 0 -5 -4 -10 -10 -10
-5 0 -10 -5 -10 -12 0 -24 -36 -87 -55 -96 -19 -9 -26 -8 -72 16 -13 7 -30 12
-38 12 -8 0 -15 4 -15 9 0 5 -11 12 -25 15 -14 4 -25 11 -25 16 0 6 -9 10 -20
10 -11 0 -20 5 -20 10 0 6 -8 10 -18 10 -19 0 -110 44 -150 72 -22 15 -22 15
20 27 24 6 75 16 113 22 39 5 97 14 130 20 107 18 179 27 210 25 25 -1 31 -6
33 -28z"/>
<path d="M3098 7344 c-16 -25 -28 -49 -28 -55 0 -5 -4 -9 -10 -9 -5 0 -10 -6
-10 -14 0 -7 -6 -19 -13 -25 -8 -6 -24 -31 -37 -56 -13 -25 -27 -45 -32 -45
-4 0 -8 -11 -8 -25 0 -16 6 -25 15 -25 8 0 23 -4 33 -9 9 -5 35 -14 57 -19 22
-6 62 -17 89 -26 27 -8 55 -12 62 -9 16 6 19 79 4 88 -5 3 -10 22 -10 42 0 31
-18 100 -41 158 -5 11 -9 31 -11 45 -5 40 -31 34 -60 -16z m46 -111 c3 -27 8
-69 12 -95 6 -48 6 -48 -22 -48 -29 0 -98 21 -110 33 -4 3 1 18 10 31 9 14 16
30 16 36 0 6 5 16 10 23 6 7 19 24 31 40 30 40 46 34 53 -20z"/>
<path d="M3850 7276 c0 -27 15 -42 25 -26 8 13 -3 50 -16 50 -5 0 -9 -11 -9
-24z"/>
<path d="M3522 7180 c-232 -9 -259 -21 -154 -71 26 -13 52 -28 59 -34 6 -7 26
-18 45 -25 18 -8 35 -17 38 -20 3 -3 31 -19 63 -35 32 -17 67 -34 78 -40 10
-5 19 -13 19 -17 0 -5 6 -8 14 -8 17 0 120 -52 124 -62 2 -5 12 -8 22 -8 10 0
22 -4 25 -10 9 -14 34 -12 50 3 7 8 16 47 19 88 17 207 18 232 5 240 -15 9
-132 9 -407 -1z m356 -87 c2 -18 -4 -43 -12 -55 -9 -12 -13 -31 -10 -45 4 -13
3 -34 0 -48 -6 -22 -10 -24 -33 -19 -15 4 -36 16 -48 26 -11 11 -35 29 -53 40
-26 16 -33 26 -29 44 3 16 0 24 -9 24 -8 0 -14 -4 -14 -10 0 -18 -45 -21 -82
-6 -33 14 -66 51 -56 62 3 2 31 -1 62 -7 48 -9 61 -8 75 5 11 10 43 16 91 19
117 5 115 6 118 -30z"/>
<path d="M3380 6911 c0 -29 23 -43 44 -28 23 17 11 47 -20 47 -17 0 -24 -6
-24 -19z"/>
<path d="M3707 6865 c-22 -16 -19 -48 6 -53 21 -4 33 22 21 48 -8 16 -11 17
-27 5z"/>
<path d="M13911 6724 c0 -11 3 -14 6 -6 3 7 2 16 -1 19 -3 4 -6 -2 -5 -13z"/>
<path d="M4598 6273 c7 -3 16 -2 19 1 4 3 -2 6 -13 5 -11 0 -14 -3 -6 -6z"/>
<path d="M5541 5603 c0 -18 4 -33 9 -33 6 0 10 -8 10 -17 0 -13 3 -14 12 -5 9
9 8 16 -4 29 -9 10 -18 27 -21 38 -3 13 -5 9 -6 -12z"/>
<path d="M6570 5294 c0 -8 5 -12 10 -9 6 4 8 11 5 16 -9 14 -15 11 -15 -7z"/>
<path d="M7715 5301 c-6 -5 -28 -11 -50 -13 -45 -3 -42 4 -51 -130 l-6 -77
106 105 c59 57 111 104 117 104 5 0 7 5 4 10 -8 13 -108 13 -120 1z"/>
<path d="M7536 5245 c-3 -9 -6 -38 -6 -63 0 -26 -4 -42 -8 -35 -5 8 -21 10
-44 7 -35 -6 -35 -7 -17 -25 11 -11 21 -19 23 -19 3 0 17 -12 33 -26 l28 -25
6 24 c7 24 3 166 -4 174 -3 2 -7 -3 -11 -12z"/>
<path d="M6872 5089 c-19 -23 -20 -29 -8 -29 9 0 16 5 16 10 0 6 7 10 15 10 8
0 15 6 15 14 0 26 -15 24 -38 -5z"/>
<path d="M7740 3360 c0 -5 3 -10 8 -10 4 0 15 -14 24 -30 20 -36 45 -42 27 -7
-12 23 -44 57 -54 57 -3 0 -5 -4 -5 -10z"/>
</g>
</svg>
