<svg width="178" height="178" viewBox="0 0 178 178" fill="none" xmlns="http://www.w3.org/2000/svg">
<g filter="url(#filter0_f_240_286)">
<circle cx="89" cy="89" r="28.5" stroke="url(#paint0_linear_240_286)" stroke-width="7"/>
</g>
<g filter="url(#filter1_f_240_286)">
<circle cx="89" cy="89" r="28.5" stroke="url(#paint1_linear_240_286)" stroke-width="7"/>
</g>
<path fill-rule="evenodd" clip-rule="evenodd" d="M105.89 60.0325C101.896 60.3596 98.37 63.0891 97.0515 66.8752C96.9591 67.1407 96.8725 67.3688 96.8593 67.382C96.8461 67.3953 96.7484 67.3624 96.6424 67.3089C96.3093 67.1412 94.9722 66.6174 94.3188 66.3987C92.9301 65.934 91.4003 65.5595 90.0073 65.3433C87.7566 64.994 85.1193 64.9491 82.8631 65.2219C77.8867 65.8235 73.2033 67.8488 69.3354 71.0718C62.1821 77.0325 58.7599 86.4339 60.4075 95.5977C61.5412 101.902 64.8807 107.456 69.9536 111.472C70.6618 112.032 71.7984 112.81 72.6942 113.348C77.6241 116.304 83.4453 117.517 89.2552 116.798C93.673 116.252 97.9793 114.508 101.563 111.814C107.268 107.526 110.915 101.222 111.786 94.1439C112.059 91.9243 112.016 89.2729 111.67 87.0172C111.461 85.6547 111.066 84.0417 110.607 82.674C110.391 82.032 109.866 80.6945 109.7 80.3656C109.646 80.2595 109.614 80.1611 109.629 80.1468C109.643 80.1325 109.875 80.0439 110.145 79.95C113.333 78.8396 115.834 76.1243 116.672 72.8634C117.098 71.2051 117.109 69.4143 116.704 67.8002C116.126 65.4967 114.789 63.4797 112.894 62.0496C110.939 60.5754 108.354 59.8308 105.89 60.0325ZM108.426 61.8327C110.18 62.2116 111.59 62.9713 112.82 64.1998C114.026 65.4051 114.806 66.8569 115.182 68.6023C115.28 69.057 115.296 69.2788 115.298 70.2315C115.3 71.4507 115.226 71.9824 114.922 72.9263C114.719 73.5553 114.142 74.6977 113.756 75.2327C111.284 78.6609 106.819 79.8232 103.042 78.0216C101.96 77.5052 100.787 76.5804 100.055 75.6651C98.2173 73.3671 97.6641 70.3282 98.5833 67.578C99.3273 65.3521 100.825 63.6271 102.917 62.5875C103.72 62.1881 104.327 61.9785 105.09 61.8368C105.883 61.6895 105.848 61.6919 106.928 61.7093C107.718 61.7221 108.035 61.7482 108.426 61.8327ZM106.525 64.8942C106.441 64.9195 106.306 65.0095 106.224 65.0945C106.088 65.237 106.074 65.2845 106.051 65.7099L106.025 66.1709L105.598 66.2002C105.052 66.2376 104.672 66.3584 104.281 66.6193C103.106 67.4038 102.898 69.0967 103.844 70.1702C104.296 70.6819 104.782 70.9085 105.524 70.9532L106.025 70.9835V71.936V72.8884L104.835 72.9135L103.645 72.9386L103.464 73.1203C103.239 73.345 103.183 73.6509 103.316 73.9312C103.48 74.2763 103.531 74.2892 104.847 74.3172L106.025 74.3422L106.05 74.7934C106.079 75.3031 106.153 75.4627 106.424 75.5912C106.66 75.7029 106.908 75.6904 107.108 75.5569C107.363 75.3868 107.454 75.1628 107.454 74.7057L107.454 74.3172H107.85C108.35 74.3172 108.796 74.1834 109.204 73.9115C109.578 73.6615 109.808 73.3886 110.014 72.9483C110.457 72.0012 110.252 70.9321 109.491 70.2205C109.01 69.7706 108.46 69.5548 107.793 69.5548H107.452L107.465 68.5897L107.479 67.6247L108.667 67.5997L109.854 67.5746L110.006 67.4285C110.289 67.1577 110.326 66.7988 110.104 66.4869C109.915 66.2221 109.777 66.196 108.559 66.196H107.454V65.8184C107.454 65.6099 107.423 65.3663 107.384 65.2744C107.256 64.9673 106.862 64.7928 106.525 64.8942ZM88.4531 66.8224C90.1954 67.007 91.9191 67.3737 93.5583 67.9085C94.4357 68.1948 95.7486 68.7114 96.2626 68.9726L96.4972 69.0918L96.5032 70.2131C96.5131 72.0623 96.7998 73.3159 97.5623 74.8435C98.1082 75.9374 98.7319 76.7763 99.6708 77.6799C101.691 79.6243 104.368 80.6364 107.169 80.5156L107.912 80.4837L108.128 80.9472C108.681 82.1304 109.26 83.8004 109.609 85.2111C110.582 89.1495 110.528 93.4938 109.457 97.3982C108.381 101.323 106.415 104.812 103.622 107.754C100.388 111.161 96.2867 113.54 91.7452 114.643C89.7937 115.118 88.0487 115.324 85.9965 115.323C82.0964 115.322 78.5211 114.48 75.0923 112.757C69.389 109.89 65.0688 104.948 62.9827 98.9063C61.6309 94.991 61.322 90.7615 62.0802 86.5491C62.7151 83.0213 64.3304 79.3466 66.52 76.4489C70.7831 70.807 77.0458 67.3577 84.0914 66.7712C85.1477 66.6833 87.3879 66.7096 88.4531 66.8224ZM106.025 68.5772V69.5297L105.79 69.5449C105.438 69.5675 105.168 69.4751 104.951 69.2579C104.294 68.6007 104.845 67.564 105.825 67.6144L106.025 67.6247V68.5772ZM108.081 71.0138C108.786 71.2065 109.051 72.0622 108.566 72.5814C108.368 72.7936 108.075 72.9112 107.742 72.9124L107.454 72.9135V71.9694C107.454 71.4501 107.469 71.0102 107.487 70.9919C107.538 70.9408 107.856 70.9525 108.081 71.0138ZM85.1442 77.7311C83.8803 77.9304 82.684 78.5597 81.8103 79.485C79.6865 81.7338 79.7404 85.2595 81.9322 87.4557C85.209 90.7392 90.8323 88.9641 91.6369 84.3922C92.0238 82.1942 91.0373 79.8813 89.1931 78.6626C88.4515 78.1725 87.7762 77.9023 86.924 77.7545C86.4421 77.6709 85.5964 77.6598 85.1442 77.7311ZM87.002 79.4724C88.3673 79.8307 89.4391 80.8585 89.8858 82.2378C90.0082 82.6156 90.0243 82.7436 90.0281 83.3658C90.0317 83.9573 90.0142 84.1307 89.9169 84.4686C89.5899 85.6047 88.8488 86.5114 87.8264 87.0258C87.1866 87.3477 86.7065 87.4628 85.9965 87.4645C85.341 87.466 84.922 87.383 84.3744 87.1431C83.0049 86.5432 82.1049 85.3072 81.9413 83.8014C81.8416 82.8846 82.0703 81.991 82.6185 81.1548C83.2255 80.2289 84.2179 79.5881 85.3645 79.3815C85.7436 79.3132 86.57 79.3591 87.002 79.4724ZM73.0619 80.878C71.6121 81.1945 70.4165 82.1006 69.7293 83.4037C68.7133 85.3303 69.0918 87.6752 70.6625 89.1845C71.2596 89.7583 71.7974 90.0856 72.5355 90.3244C73.0966 90.506 73.4475 90.5595 74.0759 90.5595C76.5639 90.5595 78.6194 88.7231 78.9296 86.2232C79.0317 85.4001 78.8713 84.4063 78.5098 83.6241C77.907 82.3195 76.69 81.3 75.2929 80.9293C74.715 80.7759 73.6426 80.7513 73.0619 80.878ZM96.9258 80.8792C96.0676 81.0699 95.4228 81.379 94.805 81.8958C92.0614 84.1908 92.5572 88.4845 95.7476 90.0584C96.56 90.4592 96.8969 90.5334 97.9034 90.5334C98.6417 90.5334 98.8093 90.5181 99.1567 90.4186C100.878 89.9254 102.097 88.7294 102.626 87.0152C102.752 86.6049 102.762 86.5112 102.762 85.6718C102.762 84.8293 102.752 84.7397 102.624 84.3214C102.37 83.4963 101.812 82.5838 101.258 82.0864C100.323 81.246 99.3199 80.8454 98.0538 80.8062C97.4899 80.7888 97.2681 80.8031 96.9258 80.8792ZM74.7382 82.5138C75.2009 82.6118 75.8349 82.9322 76.187 83.246C76.9008 83.8822 77.2847 84.7305 77.2847 85.6718C77.2847 86.5658 76.9832 87.2923 76.3467 87.9319C75.3306 88.9529 73.9148 89.1864 72.6107 88.548C72.2722 88.3824 72.1019 88.2558 71.783 87.933C71.1389 87.2811 70.8409 86.566 70.8405 85.6718C70.8401 84.7773 71.1553 84.0324 71.8082 83.3848C72.5947 82.6045 73.6649 82.2864 74.7382 82.5138ZM98.91 82.609C99.8743 82.9164 100.683 83.7263 100.993 84.6942C101.142 85.1593 101.173 85.8818 101.064 86.3693C100.671 88.1356 98.8867 89.2452 97.1469 88.8049C95.9933 88.5129 95.1406 87.6871 94.7889 86.5214C94.6652 86.1115 94.6653 85.2324 94.7891 84.8196C95.0472 83.9586 95.6978 83.1774 96.4746 82.7957C96.7089 82.6805 97.0473 82.5533 97.2266 82.5129C97.699 82.4066 98.4009 82.4466 98.91 82.609ZM85.3657 90.3635C83.1087 90.5056 80.8588 91.5641 79.3257 93.2048C77.9398 94.688 77.1055 96.4833 76.8685 98.4924C76.7862 99.1902 76.8196 99.7897 76.9504 99.9649C77.1507 100.233 77.3054 100.31 77.6442 100.31C77.9086 100.31 77.986 100.288 78.1374 100.173C78.3771 99.9902 78.4629 99.728 78.4999 99.065C78.6119 97.0608 79.544 95.1617 81.0581 93.8528C82.0384 93.0053 83.1688 92.4437 84.4833 92.1512C84.8886 92.061 85.1344 92.0428 85.9715 92.0408C86.8437 92.0387 87.0419 92.0535 87.4946 92.1549C88.8337 92.4547 90.018 93.0466 90.9401 93.8769C92.4844 95.2675 93.3096 96.9507 93.4772 99.0517C93.5255 99.6571 93.5563 99.8272 93.6395 99.9494C93.8058 100.193 93.9888 100.3 94.2791 100.32C94.6336 100.346 94.9015 100.196 95.0583 99.8856C95.187 99.6305 95.1977 99.4057 95.1185 98.6234C94.7933 95.4137 92.8654 92.6508 89.9822 91.2622C88.499 90.5478 87.0175 90.2594 85.3657 90.3635ZM72.9836 91.8398C70.0631 92.2662 67.6677 94.2525 66.7289 97.0264C66.5128 97.6647 66.417 98.1229 66.342 98.8756C66.2574 99.7255 66.3528 100.033 66.7627 100.231C67.0324 100.362 67.2575 100.363 67.5221 100.235C67.8455 100.078 67.9532 99.8377 68.0022 99.1632C68.0513 98.4866 68.1151 98.1409 68.284 97.6363C68.4553 97.1248 68.6103 96.7793 68.8358 96.407C70.4122 93.8038 73.5934 92.7469 76.4074 93.8915C76.7777 94.0421 76.9276 94.0481 77.2029 93.9231C77.4716 93.801 77.634 93.5675 77.6635 93.2608C77.7087 92.7896 77.4821 92.5215 76.8239 92.2677C75.6682 91.8221 74.2144 91.6601 72.9836 91.8398ZM97.1263 91.7939C96.285 91.8985 95.0688 92.2361 94.6848 92.4715C94.0026 92.8898 94.2931 93.9831 95.0886 93.9909C95.2581 93.9926 95.4605 93.9471 95.679 93.8582C97.8433 92.9776 100.4 93.4826 102.117 95.13C103.24 96.2072 103.868 97.5813 103.989 99.2306C104.032 99.8205 104.106 100.014 104.357 100.193C104.582 100.353 105.074 100.359 105.282 100.205C105.582 99.9827 105.649 99.8148 105.648 99.2874C105.645 97.3603 104.738 95.3239 103.253 93.9116C102.13 92.8429 100.802 92.1676 99.257 91.8804C98.8638 91.8073 97.4724 91.7508 97.1263 91.7939Z" fill="url(#paint2_linear_240_286)" stroke="url(#paint3_linear_240_286)" stroke-width="0.5"/>
<defs>
<filter id="filter0_f_240_286" x="0" y="0" width="178" height="178" filterUnits="userSpaceOnUse" color-interpolation-filters="sRGB">
<feFlood flood-opacity="0" result="BackgroundImageFix"/>
<feBlend mode="normal" in="SourceGraphic" in2="BackgroundImageFix" result="shape"/>
<feGaussianBlur stdDeviation="28.5" result="effect1_foregroundBlur_240_286"/>
</filter>
<filter id="filter1_f_240_286" x="0" y="0" width="178" height="178" filterUnits="userSpaceOnUse" color-interpolation-filters="sRGB">
<feFlood flood-opacity="0" result="BackgroundImageFix"/>
<feBlend mode="normal" in="SourceGraphic" in2="BackgroundImageFix" result="shape"/>
<feGaussianBlur stdDeviation="28.5" result="effect1_foregroundBlur_240_286"/>
</filter>
<linearGradient id="paint0_linear_240_286" x1="89" y1="64" x2="89" y2="114" gradientUnits="userSpaceOnUse">
<stop stop-color="#43DF9B"/>
<stop offset="1" stop-color="#3DBAB5"/>
</linearGradient>
<linearGradient id="paint1_linear_240_286" x1="89" y1="64" x2="89" y2="114" gradientUnits="userSpaceOnUse">
<stop stop-color="#43DF9B"/>
<stop offset="1" stop-color="#3DBAB5"/>
</linearGradient>
<linearGradient id="paint2_linear_240_286" x1="88.5" y1="60" x2="88.5" y2="117" gradientUnits="userSpaceOnUse">
<stop stop-color="#43DF9B"/>
<stop offset="1" stop-color="#3DBAB5"/>
</linearGradient>
<linearGradient id="paint3_linear_240_286" x1="88.5" y1="60" x2="88.5" y2="117" gradientUnits="userSpaceOnUse">
<stop stop-color="#43DF9B"/>
<stop offset="1" stop-color="#3DBAB5"/>
</linearGradient>
</defs>
</svg>
