<svg width="178" height="178" viewBox="0 0 178 178" fill="none" xmlns="http://www.w3.org/2000/svg">
<g filter="url(#filter0_f_240_280)">
<circle cx="89" cy="89" r="28.5" stroke="url(#paint0_linear_240_280)" stroke-width="7"/>
</g>
<g filter="url(#filter1_f_240_280)">
<circle cx="89" cy="89" r="28.5" stroke="url(#paint1_linear_240_280)" stroke-width="7"/>
</g>
<g opacity="0.9">
<path d="M84.4167 93.8571L78.9722 88.4286L76.25 91.1429L84.4167 99.2857L100.75 83L98.0278 80.2857L84.4167 93.8571Z" fill="url(#paint2_linear_240_280)"/>
<path d="M88.5 121L75.5695 114.214C71.9748 112.307 69.4976 109.553 67.4028 106.071C65.3079 102.59 63.9957 98.5956 64 94.5357V68.0714C64.0011 66.9919 64.5956 66.1205 65.3611 65.3571C66.1267 64.5938 67.0007 64.0011 68.0833 64H108.917C109.999 64.0011 110.873 64.5938 111.639 65.3571C112.404 66.1205 112.999 66.9919 113 68.0714V94.5357C113.004 98.5956 111.692 102.59 109.597 106.071C107.502 109.553 105.025 112.307 101.431 114.214L88.5 121ZM68.0833 68.0714V94.5357C68.08 97.8576 69.0913 101.187 70.8056 104.036C72.5199 106.884 74.6696 109.262 77.6111 110.821L88.5 116.25L99.3889 110.821C102.331 109.261 104.48 106.884 106.194 104.036C107.909 101.187 108.92 97.8579 108.917 94.5357V68.0714H68.0833Z" fill="url(#paint3_linear_240_280)"/>
</g>
<defs>
<filter id="filter0_f_240_280" x="0" y="0" width="178" height="178" filterUnits="userSpaceOnUse" color-interpolation-filters="sRGB">
<feFlood flood-opacity="0" result="BackgroundImageFix"/>
<feBlend mode="normal" in="SourceGraphic" in2="BackgroundImageFix" result="shape"/>
<feGaussianBlur stdDeviation="28.5" result="effect1_foregroundBlur_240_280"/>
</filter>
<filter id="filter1_f_240_280" x="0" y="0" width="178" height="178" filterUnits="userSpaceOnUse" color-interpolation-filters="sRGB">
<feFlood flood-opacity="0" result="BackgroundImageFix"/>
<feBlend mode="normal" in="SourceGraphic" in2="BackgroundImageFix" result="shape"/>
<feGaussianBlur stdDeviation="28.5" result="effect1_foregroundBlur_240_280"/>
</filter>
<linearGradient id="paint0_linear_240_280" x1="89" y1="64" x2="89" y2="114" gradientUnits="userSpaceOnUse">
<stop stop-color="#43DF9B"/>
<stop offset="1" stop-color="#3DBAB5"/>
</linearGradient>
<linearGradient id="paint1_linear_240_280" x1="89" y1="64" x2="89" y2="114" gradientUnits="userSpaceOnUse">
<stop stop-color="#43DF9B"/>
<stop offset="1" stop-color="#3DBAB5"/>
</linearGradient>
<linearGradient id="paint2_linear_240_280" x1="88.5" y1="64" x2="88.5" y2="121" gradientUnits="userSpaceOnUse">
<stop stop-color="#43DF9B"/>
<stop offset="1" stop-color="#3DBAB5"/>
</linearGradient>
<linearGradient id="paint3_linear_240_280" x1="88.5" y1="64" x2="88.5" y2="121" gradientUnits="userSpaceOnUse">
<stop stop-color="#43DF9B"/>
<stop offset="1" stop-color="#3DBAB5"/>
</linearGradient>
</defs>
</svg>
